0
SECTION
2
HEADER
9
$INSUNITS
70
4
9
$ACADVER
1
AC1014
9
$HANDSEED
5
FFFF
0
ENDSEC
0
SECTION
2
TABLES
0
TABLE
2
VPORT
5
8
100
AcDbSymbolTable
0
ENDTAB
0
TABLE
2
LTYPE
5
5
100
AcDbSymbolTable
0
LTYPE
5
14
100
AcDbSymbolTableRecord
100
AcDbLinetypeTableRecord
2
BYBLOCK
70
0
0
LTYPE
5
15
100
AcDbSymbolTableRecord
100
AcDbLinetypeTableRecord
2
BYLAYER
70
0
0
LTYPE
5
16
100
AcDbSymbolTableRecord
100
AcDbLinetypeTableRecord
2
DASHED
70
0
3
Dashed __ __ __ __ __ __ __ __ __ __ __ __ __ _
72
65
73
2
40
0.75
49
0.5
74
0
49
-0.25
74
0
0
ENDTAB
0
TABLE
2
LAYER
5
2
100
AcDbSymbolTable
70
2
0
LAYER
5
50
100
AcDbSymbolTableRecord
100
AcDbLayerTableRecord
2
0
70
0
62
7
6
CONTINUOUS
0
ENDTAB
0
TABLE
2
STYLE
5
3
100
AcDbSymbolTable
70
1
0
STYLE
5
11
100
AcDbSymbolTableRecord
100
AcDbTextStyleTableRecord
2
STANDARD
70
0
0
ENDTAB
0
TABLE
2
VIEW
5
6
100
AcDbSymbolTable
70
0
0
ENDTAB
0
TABLE
2
UCS
5
7
100
AcDbSymbolTable
70
0
0
ENDTAB
0
TABLE
2
APPID
5
9
100
AcDbSymbolTable
70
2
0
APPID
5
12
100
AcDbSymbolTableRecord
100
AcDbRegAppTableRecord
2
ACAD
70
0
0
ENDTAB
0
TABLE
2
DIMSTYLE
5
A
100
AcDbSymbolTable
70
1
0
ENDTAB
0
TABLE
2
BLOCK_RECORD
5
1
100
AcDbSymbolTable
70
1
0
BLOCK_RECORD
5
1F
100
AcDbSymbolTableRecord
100
AcDbBlockTableRecord
2
*MODEL_SPACE
0
BLOCK_RECORD
5
1B
100
AcDbSymbolTableRecord
100
AcDbBlockTableRecord
2
*PAPER_SPACE
0
ENDTAB
0
ENDSEC
0
SECTION
2
BLOCKS
0
BLOCK
5
20
100
AcDbEntity
100
AcDbBlockBegin
2
*MODEL_SPACE
0
ENDBLK
5
21
100
AcDbEntity
100
AcDbBlockEnd
0
BLOCK
5
1C
100
AcDbEntity
100
AcDbBlockBegin
2
*PAPER_SPACE
0
ENDBLK
5
1D
100
AcDbEntity
100
AcDbBlockEnd
0
ENDSEC
0
SECTION
2
ENTITIES
0
LWPOLYLINE
5
100
100
AcDbEntity
8
0
100
AcDbPolyline
90
46
70
1
43
0.0
10
-43.752785709847721
20
61.223803173667179
10
-43.752785709848432
20
132.22380317366719
42
0.061216884310356032
10
-45.954774945122878
20
150.14154996918626
10
-38.192827835422918
20
152.07860367681002
42
0.026131822832796889
10
-40.697990805404274
20
160.26945492637179
10
-74.759230597904804
20
147.87217749969733
42
-0.036322062210408207
10
-72.947257831799874
20
141.48566431388704
10
-65.112888460335938
20
143.10512612309034
42
-0.051004520746980517
10
-63.999999999999986
20
132.22380317366708
10
-63.999999999999986
20
61.223803173667164
10
-72
20
61.223803173667157
10
-71.999999999999957
20
53.22380317366715
10
-63.99999999999995
20
53.22380317366715
10
-63.999999999999666
20
-20.776196826333184
10
-52.599999999999945
20
-20.776196826332733
10
-52.59999999999998
20
-24.776196826332736
10
-46.599999999999966
20
-24.776196826332736
10
-46.599999999999966
20
-20.776196826332733
10
-28.599999999999994
20
-20.776196826332733
10
-28.599999999999959
20
-24.776196826332736
10
-22.59999999999998
20
-24.776196826332736
10
-22.59999999999998
20
-20.776196826332733
10
-4.599999999999973
20
-20.776196826332733
10
-4.599999999999973
20
-24.776196826332736
10
1.4000000000000412
20
-24.776196826332736
10
1.4000000000000412
20
-20.776196826332733
10
19.400000000000048
20
-20.776196826332733
10
19.400000000000048
20
-24.776196826332736
10
25.400000000000063
20
-24.776196826332736
10
25.400000000000063
20
-20.776196826332733
10
43.40000000000007
20
-20.776196826332733
10
43.400000000000048
20
-24.776196826332736
10
49.400000000000048
20
-24.776196826332736
10
49.400000000000048
20
-20.776196826332733
10
61.400000000000041
20
-20.776196826332871
10
61.400000000000063
20
-15.176196826332875
10
69.400000000000048
20
-15.176196826332912
10
69.400000000000091
20
-7.1761968263329088
10
33.700000000000081
20
-7.176196826332804
10
33.700000000000081
20
7.4710174638193667
10
25.700000000000109
20
7.4710174638193667
10
25.700000000000109
20
-0.52898253618064217
10
10.000000000000117
20
-0.52898253618065993
42
-0.41421356237309576
10
-43.752785709847757
20
53.223803173667186
10
-35.752785709847714
20
53.223803173667186
10
-35.752785709847714
20
61.223803173667179
0
CIRCLE
5
101
100
AcDbEntity
8
0
100
AcDbCircle
10
29.700000000000095
20
3.4710174638193636
30
0
40
1.5000000000000004
210
0
220
-0
230
1
0
CIRCLE
5
102
100
AcDbEntity
8
0
100
AcDbCircle
10
-43.163480936063685
20
155.03686113097322
30
0
40
1.5000000000000004
210
0
220
-0
230
1
0
CIRCLE
5
103
100
AcDbEntity
8
0
100
AcDbCircle
10
-59.999999999999645
20
-16.776196826333202
30
0
40
1.5000000000000004
210
0
220
-0
230
1
0
CIRCLE
5
104
100
AcDbEntity
8
0
100
AcDbCircle
10
65.400000000000077
20
-11.176196826332891
30
0
40
1.5000000000000004
210
0
220
-0
230
1
0
CIRCLE
5
105
100
AcDbEntity
8
0
100
AcDbCircle
10
-69.889140760092346
20
145.80361090477206
30
0
40
1.5000000000000004
210
0
220
-0
230
1
0
CIRCLE
5
106
100
AcDbEntity
8
0
100
AcDbCircle
10
-68.000000551342936
20
57.223803725010129
30
0
40
1.5000000000000004
210
0
220
-0
230
1
0
CIRCLE
5
107
100
AcDbEntity
8
0
100
AcDbCircle
10
-39.752785709847736
20
57.22380317366715
30
0
40
1.5000000000000004
210
0
220
-0
230
1
0
ENDSEC
0
SECTION
2
OBJECTS
0
DICTIONARY
5
C
100
AcDbDictionary
3
ACAD_GROUP
350
D
3
ACAD_MLINESTYLE
350
17
0
DICTIONARY
5
D
100
AcDbDictionary
0
DICTIONARY
5
1A
330
C
100
AcDbDictionary
0
DICTIONARY
5
17
100
AcDbDictionary
0
ENDSEC
0
EOF
