0
SECTION
2
HEADER
9
$INSUNITS
70
4
9
$ACADVER
1
AC1014
9
$HANDSEED
5
FFFF
0
ENDSEC
0
SECTION
2
TABLES
0
TABLE
2
VPORT
5
8
100
AcDbSymbolTable
0
ENDTAB
0
TABLE
2
LTYPE
5
5
100
AcDbSymbolTable
0
LTYPE
5
14
100
AcDbSymbolTableRecord
100
AcDbLinetypeTableRecord
2
BYBLOCK
70
0
0
LTYPE
5
15
100
AcDbSymbolTableRecord
100
AcDbLinetypeTableRecord
2
BYLAYER
70
0
0
LTYPE
5
16
100
AcDbSymbolTableRecord
100
AcDbLinetypeTableRecord
2
DASHED
70
0
3
Dashed __ __ __ __ __ __ __ __ __ __ __ __ __ _
72
65
73
2
40
0.75
49
0.5
74
0
49
-0.25
74
0
0
ENDTAB
0
TABLE
2
LAYER
5
2
100
AcDbSymbolTable
70
2
0
LAYER
5
50
100
AcDbSymbolTableRecord
100
AcDbLayerTableRecord
2
0
70
0
62
7
6
CONTINUOUS
0
ENDTAB
0
TABLE
2
STYLE
5
3
100
AcDbSymbolTable
70
1
0
STYLE
5
11
100
AcDbSymbolTableRecord
100
AcDbTextStyleTableRecord
2
STANDARD
70
0
0
ENDTAB
0
TABLE
2
VIEW
5
6
100
AcDbSymbolTable
70
0
0
ENDTAB
0
TABLE
2
UCS
5
7
100
AcDbSymbolTable
70
0
0
ENDTAB
0
TABLE
2
APPID
5
9
100
AcDbSymbolTable
70
2
0
APPID
5
12
100
AcDbSymbolTableRecord
100
AcDbRegAppTableRecord
2
ACAD
70
0
0
ENDTAB
0
TABLE
2
DIMSTYLE
5
A
100
AcDbSymbolTable
70
1
0
ENDTAB
0
TABLE
2
BLOCK_RECORD
5
1
100
AcDbSymbolTable
70
1
0
BLOCK_RECORD
5
1F
100
AcDbSymbolTableRecord
100
AcDbBlockTableRecord
2
*MODEL_SPACE
0
BLOCK_RECORD
5
1B
100
AcDbSymbolTableRecord
100
AcDbBlockTableRecord
2
*PAPER_SPACE
0
ENDTAB
0
ENDSEC
0
SECTION
2
BLOCKS
0
BLOCK
5
20
100
AcDbEntity
100
AcDbBlockBegin
2
*MODEL_SPACE
0
ENDBLK
5
21
100
AcDbEntity
100
AcDbBlockEnd
0
BLOCK
5
1C
100
AcDbEntity
100
AcDbBlockBegin
2
*PAPER_SPACE
0
ENDBLK
5
1D
100
AcDbEntity
100
AcDbBlockEnd
0
ENDSEC
0
SECTION
2
ENTITIES
0
LWPOLYLINE
5
100
100
AcDbEntity
8
0
100
AcDbPolyline
90
6
70
1
43
0.0
10
1077.0000027120116
20
297.99999999999937
10
1102.6000027120117
20
297.99999999999937
10
1102.6000027120117
20
334.99999999999937
10
827.00000271201156
20
334.99999999999949
10
827.00000271201156
20
5
10
1077.0000027120116
20
4.9999999999999289
0
LWPOLYLINE
5
101
100
AcDbEntity
8
0
100
AcDbPolyline
90
4
70
1
43
0.0
10
847.50000000000023
20
238.99999999999966
10
847.50000000000023
20
232.99999999999966
10
843.50000000000023
20
232.99999999999966
10
843.50000000000023
20
238.99999999999966
0
CIRCLE
5
102
100
AcDbEntity
8
0
100
AcDbCircle
10
954.50000271201156
20
135.99999999999966
30
0
40
1.4999999999999158
210
-0
220
1.9721522630525295e-31
230
1
0
CIRCLE
5
103
100
AcDbEntity
8
0
100
AcDbCircle
10
1059.5000027120116
20
240.99999999999969
30
0
40
1.4999999999999158
210
-0
220
1.9721522630525295e-31
230
1
0
LWPOLYLINE
5
104
100
AcDbEntity
8
0
100
AcDbPolyline
90
4
70
1
43
0.0
10
960.55000000000041
20
238.99999999999966
10
960.55000000000041
20
232.99999999999966
10
956.5500000000003
20
232.99999999999966
10
956.5500000000003
20
238.99999999999966
0
CIRCLE
5
105
100
AcDbEntity
8
0
100
AcDbCircle
10
881.45293704954884
20
170.99999999999966
30
0
40
1.599999999999967
210
-0
220
1.9721522630525295e-31
230
1
0
CIRCLE
5
106
100
AcDbEntity
8
0
100
AcDbCircle
10
861.00000271201168
20
100.99999999999963
30
0
40
1.599999999999967
210
-0
220
1.9721522630525295e-31
230
1
0
CIRCLE
5
107
100
AcDbEntity
8
0
100
AcDbCircle
10
1059.5000027120116
20
30.99999999999989
30
0
40
1.500000000000058
210
-0
220
1.9721522630525295e-31
230
1
0
CIRCLE
5
108
100
AcDbEntity
8
0
100
AcDbCircle
10
881.00000271201168
20
100.99999999999963
30
0
40
1.599999999999967
210
-0
220
1.9721522630525295e-31
230
1
0
LWPOLYLINE
5
109
100
AcDbEntity
8
0
100
AcDbPolyline
90
4
70
1
43
0.0
10
851.57500000000027
20
232.99999999999966
10
851.57500000000027
20
238.99999999999966
10
855.57500000000027
20
238.99999999999966
10
855.57500000000027
20
232.99999999999966
0
CIRCLE
5
110
100
AcDbEntity
8
0
100
AcDbCircle
10
954.50000271201156
20
240.99999999999969
30
0
40
1.4999999999999158
210
-0
220
1.9721522630525295e-31
230
1
0
CIRCLE
5
111
100
AcDbEntity
8
0
100
AcDbCircle
10
1059.5000027120116
20
135.99999999999966
30
0
40
1.4999999999999158
210
-0
220
1.9721522630525295e-31
230
1
0
CIRCLE
5
112
100
AcDbEntity
8
0
100
AcDbCircle
10
956.00000271201168
20
116.49999999999963
30
0
40
1.500000000000058
210
-0
220
1.9721522630525295e-31
230
1
0
CIRCLE
5
113
100
AcDbEntity
8
0
100
AcDbCircle
10
1031.0000027120118
20
135.99999999999966
30
0
40
1.599999999999967
210
-0
220
1.9721522630525295e-31
230
1
0
LWPOLYLINE
5
114
100
AcDbEntity
8
0
100
AcDbPolyline
90
4
70
1
43
0.0
10
1066.2000000000003
20
238.99999999999966
10
1066.2000000000003
20
232.99999999999966
10
1062.2000000000003
20
232.99999999999966
10
1062.2000000000003
20
238.99999999999966
0
LWPOLYLINE
5
115
100
AcDbEntity
8
0
100
AcDbPolyline
90
4
70
1
43
0.0
10
952.47500000000036
20
238.99999999999966
10
952.47500000000036
20
232.99999999999966
10
948.47500000000025
20
232.99999999999966
10
948.47500000000025
20
238.99999999999966
0
CIRCLE
5
116
100
AcDbEntity
8
0
100
AcDbCircle
10
861.00000271201168
20
170.99999999999966
30
0
40
1.599999999999967
210
-0
220
1.9721522630525295e-31
230
1
0
CIRCLE
5
117
100
AcDbEntity
8
0
100
AcDbCircle
10
844.50000271201156
20
30.99999999999989
30
0
40
1.500000000000058
210
-0
220
1.9721522630525295e-31
230
1
0
CIRCLE
5
118
100
AcDbEntity
8
0
100
AcDbCircle
10
954.50000271201156
20
30.99999999999989
30
0
40
1.500000000000058
210
-0
220
1.9721522630525295e-31
230
1
0
CIRCLE
5
119
100
AcDbEntity
8
0
100
AcDbCircle
10
844.50000271201156
20
135.99999999999966
30
0
40
1.4999999999999158
210
-0
220
1.9721522630525295e-31
230
1
0
CIRCLE
5
120
100
AcDbEntity
8
0
100
AcDbCircle
10
844.50000271201156
20
240.99999999999969
30
0
40
1.4999999999999158
210
-0
220
1.9721522630525295e-31
230
1
0
LWPOLYLINE
5
121
100
AcDbEntity
8
0
100
AcDbPolyline
90
4
70
1
43
0.0
10
1057.4500000000003
20
238.99999999999966
10
1057.4500000000003
20
232.99999999999966
10
1053.4500000000003
20
232.99999999999966
10
1053.4500000000003
20
238.99999999999966
0
CIRCLE
5
122
100
AcDbEntity
8
0
100
AcDbCircle
10
1051.0000027120118
20
135.99999999999966
30
0
40
1.599999999999967
210
-0
220
1.9721522630525295e-31
230
1
0
CIRCLE
5
123
100
AcDbEntity
8
0
100
AcDbCircle
10
956.00000271201168
20
155.49999999999966
30
0
40
1.500000000000058
210
-0
220
1.9721522630525295e-31
230
1
0
LWPOLYLINE
5
124
100
AcDbEntity
8
0
100
AcDbPolyline
90
4
70
1
43
0.0
10
1018.0000027120116
20
197.99999999999949
10
1018.0000027120116
20
200.9999999999994
10
1029.0000027120116
20
200.9999999999994
10
1029.0000027120116
20
197.99999999999943
0
LWPOLYLINE
5
125
100
AcDbEntity
8
0
100
AcDbPolyline
90
4
70
1
43
0.0
10
974.00000271201168
20
200.9999999999994
10
985.00000271201179
20
200.9999999999994
10
985.00000271201179
20
197.99999999999943
10
974.00000271201168
20
197.99999999999949
0
LWPOLYLINE
5
126
100
AcDbEntity
8
0
100
AcDbPolyline
90
4
70
1
43
0.0
10
1043.0000040680172
20
120.99999999999959
10
1040.0000027120116
20
120.99999999999959
10
1040.0000027120116
20
131.99999999999955
10
1043.0000040680172
20
131.99999999999955
0
LWPOLYLINE
5
127
100
AcDbEntity
8
0
100
AcDbPolyline
90
4
70
1
43
0.0
10
897.00000271201156
20
200.9999999999994
10
897.00000271201156
20
197.99999999999949
10
886.00000271201168
20
197.99999999999949
10
886.00000271201168
20
200.9999999999994
0
LWPOLYLINE
5
128
100
AcDbEntity
8
0
100
AcDbPolyline
90
4
70
1
43
0.0
10
864.00000271201168
20
153.99999999999957
10
861.0000013560059
20
153.99999999999957
10
861.0000013560059
20
164.99999999999955
10
864.00000271201168
20
164.99999999999949
0
LWPOLYLINE
5
129
100
AcDbEntity
8
0
100
AcDbPolyline
90
4
70
1
43
0.0
10
919.00000271201168
20
197.99999999999943
10
908.00000271201156
20
197.99999999999949
10
908.00000271201156
20
200.9999999999994
10
919.00000271201168
20
200.9999999999994
0
LWPOLYLINE
5
130
100
AcDbEntity
8
0
100
AcDbPolyline
90
4
70
1
43
0.0
10
1040.0000027120116
20
98.999999999999631
10
1040.0000027120116
20
109.9999999999996
10
1043.0000040680172
20
109.9999999999996
10
1043.0000040680172
20
98.999999999999631
0
LWPOLYLINE
5
131
100
AcDbEntity
8
0
100
AcDbPolyline
90
4
70
1
43
0.0
10
952.00000271201156
20
197.99999999999949
10
952.00000271201156
20
200.9999999999994
10
963.00000271201156
20
200.9999999999994
10
963.00000271201156
20
197.99999999999943
0
LWPOLYLINE
5
132
100
AcDbEntity
8
0
100
AcDbPolyline
90
4
70
1
43
0.0
10
864.00000271201168
20
175.99999999999949
10
861.0000013560059
20
175.99999999999952
10
861.0000013560059
20
186.99999999999949
10
864.00000271201168
20
186.99999999999946
0
LWPOLYLINE
5
133
100
AcDbEntity
8
0
100
AcDbPolyline
90
4
70
1
43
0.0
10
861.0000013560059
20
120.99999999999964
10
864.00000271201168
20
120.99999999999964
10
864.00000271201168
20
109.99999999999966
10
861.0000013560059
20
109.99999999999969
0
LWPOLYLINE
5
134
100
AcDbEntity
8
0
100
AcDbPolyline
90
4
70
1
43
0.0
10
1043.0000040680172
20
175.99999999999949
10
1043.0000040680172
20
164.99999999999946
10
1040.0000027120116
20
164.99999999999946
10
1040.0000027120116
20
175.99999999999949
0
LWPOLYLINE
5
135
100
AcDbEntity
8
0
100
AcDbPolyline
90
4
70
1
43
0.0
10
861.0000013560059
20
43.999999999999829
10
861.0000013560059
20
54.999999999999794
10
864.00000271201168
20
54.999999999999794
10
864.00000271201168
20
43.999999999999808
0
LWPOLYLINE
5
136
100
AcDbEntity
8
0
100
AcDbPolyline
90
4
70
1
43
0.0
10
875.00000271201156
20
200.9999999999994
10
875.00000271201156
20
197.99999999999949
10
864.00000271201156
20
197.99999999999943
10
864.00000271201168
20
200.9999999999994
0
LWPOLYLINE
5
137
100
AcDbEntity
8
0
100
AcDbPolyline
90
4
70
1
43
0.0
10
1007.0000027120116
20
197.99999999999943
10
996.00000271201168
20
197.99999999999949
10
996.00000271201168
20
200.9999999999994
10
1007.0000027120116
20
200.9999999999994
0
LWPOLYLINE
5
138
100
AcDbEntity
8
0
100
AcDbPolyline
90
4
70
1
43
0.0
10
861.0000013560059
20
87.999999999999702
10
861.0000013560059
20
98.999999999999687
10
864.00000271201168
20
98.999999999999687
10
864.00000271201168
20
87.999999999999702
0
LWPOLYLINE
5
139
100
AcDbEntity
8
0
100
AcDbPolyline
90
4
70
1
43
0.0
10
861.00000271201168
20
7.9999999999999183
10
861.00000271201168
20
13.499999999999911
10
864.00000271201168
20
13.499999999999908
10
864.00000271201168
20
7.9999999999999147
0
LWPOLYLINE
5
140
100
AcDbEntity
8
0
100
AcDbPolyline
90
4
70
1
43
0.0
10
1040.0000027120116
20
186.99999999999943
10
1040.0000027120116
20
197.9999999999994
10
1043.0000040680172
20
197.9999999999994
10
1043.0000040680172
20
186.99999999999946
0
LWPOLYLINE
5
141
100
AcDbEntity
8
0
100
AcDbPolyline
90
4
70
1
43
0.0
10
861.0000013560059
20
32.999999999999844
10
864.00000271201168
20
32.999999999999844
10
863.99992180359482
20
21.999978303909103
10
860.99992180367326
20
21.999999999999851
0
LWPOLYLINE
5
142
100
AcDbEntity
8
0
100
AcDbPolyline
90
4
70
1
43
0.0
10
1043.0000040680172
20
54.999999999999744
10
1040.0000027120116
20
54.999999999999744
10
1040.0000027120116
20
65.999999999999702
10
1043.0000040680172
20
65.999999999999702
0
LWPOLYLINE
5
143
100
AcDbEntity
8
0
100
AcDbPolyline
90
4
70
1
43
0.0
10
1040.0000027120116
20
76.999999999999673
10
1040.0000027120116
20
87.999999999999659
10
1043.0000040680172
20
87.999999999999659
10
1043.0000040680172
20
76.999999999999659
0
LWPOLYLINE
5
144
100
AcDbEntity
8
0
100
AcDbPolyline
90
4
70
1
43
0.0
10
864.00000271201168
20
65.999999999999758
10
861.0000013560059
20
65.999999999999773
10
861.0000013560059
20
76.99999999999973
10
864.00000271201168
20
76.99999999999973
0
LWPOLYLINE
5
145
100
AcDbEntity
8
0
100
AcDbPolyline
90
4
70
1
43
0.0
10
1040.0000027120116
20
153.99999999999952
10
1043.0000040680172
20
153.99999999999952
10
1043.0000040680172
20
142.99999999999955
10
1040.0000027120116
20
142.99999999999952
0
LWPOLYLINE
5
146
100
AcDbEntity
8
0
100
AcDbPolyline
90
4
70
1
43
0.0
10
930.00000271201179
20
197.99999999999949
10
930.00000271201179
20
200.9999999999994
10
941.00000271201168
20
200.9999999999994
10
941.00000271201168
20
197.99999999999943
0
LWPOLYLINE
5
147
100
AcDbEntity
8
0
100
AcDbPolyline
90
4
70
1
43
0.0
10
861.0000013560059
20
142.9999999999996
10
864.00000271201168
20
142.9999999999996
10
864.00000271201168
20
131.99999999999963
10
861.0000013560059
20
131.9999999999996
0
LWPOLYLINE
5
148
100
AcDbEntity
8
0
100
AcDbPolyline
90
4
70
1
43
0.0
10
1040.0000027120116
20
13.49999999999989
10
1043.0000027120116
20
13.49999999999989
10
1043.0000027120116
20
7.999999999999897
10
1040.0000027120116
20
7.9999999999999005
0
LWPOLYLINE
5
149
100
AcDbEntity
8
0
100
AcDbPolyline
90
4
70
1
43
0.0
10
1043.0000040680172
20
32.999999999999815
10
1040.0000027120116
20
32.999999999999815
10
1040.0000027120116
20
43.999999999999766
10
1043.0000040680172
20
43.999999999999758
0
LWPOLYLINE
5
150
100
AcDbEntity
8
0
100
AcDbPolyline
90
4
70
1
43
0.0
10
895.95000000000027
20
304.99999999999972
10
891.95000000000027
20
304.99999999999972
10
891.95000000000027
20
310.99999999999972
10
895.95000000000027
20
310.99999999999977
0
LWPOLYLINE
5
151
100
AcDbEntity
8
0
100
AcDbPolyline
90
4
70
1
43
0.0
10
843.50000000000023
20
292.99999999999966
10
839.50000000000034
20
292.99999999999966
10
839.50000000000034
20
298.99999999999972
10
843.50000000000023
20
298.99999999999972
0
LWPOLYLINE
5
152
100
AcDbEntity
8
0
100
AcDbPolyline
90
4
70
1
43
0.0
10
887.87500000000023
20
304.99999999999972
10
883.87500000000034
20
304.99999999999972
10
883.87500000000034
20
310.99999999999972
10
887.87500000000023
20
310.99999999999977
0
LWPOLYLINE
5
153
100
AcDbEntity
8
0
100
AcDbPolyline
90
4
70
1
43
0.0
10
863.65000000000032
20
280.99999999999972
10
859.65000000000032
20
280.99999999999972
10
859.65000000000032
20
286.99999999999972
10
863.65000000000032
20
286.99999999999972
0
LWPOLYLINE
5
154
100
AcDbEntity
8
0
100
AcDbPolyline
90
4
70
1
43
0.0
10
859.65000000000032
20
316.99999999999977
10
855.65000000000032
20
316.99999999999977
10
855.65000000000032
20
322.99999999999977
10
859.65000000000032
20
322.99999999999977
0
LWPOLYLINE
5
155
100
AcDbEntity
8
0
100
AcDbPolyline
90
4
70
1
43
0.0
10
883.87500000000034
20
316.99999999999977
10
879.87500000000045
20
316.99999999999977
10
879.87500000000045
20
322.99999999999977
10
883.87500000000034
20
322.99999999999977
0
LWPOLYLINE
5
156
100
AcDbEntity
8
0
100
AcDbPolyline
90
4
70
1
43
0.0
10
976.70000000000027
20
214.99999999999966
10
976.70000000000027
20
208.99999999999963
10
972.70000000000027
20
208.99999999999966
10
972.70000000000027
20
214.9999999999996
0
LWPOLYLINE
5
157
100
AcDbEntity
8
0
100
AcDbPolyline
90
4
70
1
43
0.0
10
863.65000000000032
20
304.99999999999972
10
859.65000000000032
20
304.99999999999972
10
859.65000000000032
20
310.99999999999972
10
863.65000000000032
20
310.99999999999977
0
LWPOLYLINE
5
158
100
AcDbEntity
8
0
100
AcDbPolyline
90
4
70
1
43
0.0
10
891.95000000000027
20
292.99999999999966
10
887.95000000000027
20
292.99999999999966
10
887.95000000000027
20
298.99999999999972
10
891.95000000000027
20
298.99999999999972
0
LWPOLYLINE
5
159
100
AcDbEntity
8
0
100
AcDbPolyline
90
4
70
1
43
0.0
10
875.8000000000003
20
316.99999999999977
10
871.80000000000041
20
316.99999999999977
10
871.80000000000041
20
322.99999999999977
10
875.8000000000003
20
322.99999999999977
0
LWPOLYLINE
5
160
100
AcDbEntity
8
0
100
AcDbPolyline
90
4
70
1
43
0.0
10
1013.0750000000003
20
244.99999999999969
10
1009.0750000000003
20
244.99999999999969
10
1009.0750000000003
20
250.99999999999969
10
1013.0750000000003
20
250.99999999999969
0
LWPOLYLINE
5
161
100
AcDbEntity
8
0
100
AcDbPolyline
90
4
70
1
43
0.0
10
879.80000000000018
20
304.99999999999972
10
875.8000000000003
20
304.99999999999972
10
875.8000000000003
20
310.99999999999972
10
879.80000000000018
20
310.99999999999977
0
LWPOLYLINE
5
162
100
AcDbEntity
8
0
100
AcDbPolyline
90
4
70
1
43
0.0
10
855.57500000000027
20
280.99999999999972
10
851.57500000000027
20
280.99999999999972
10
851.57500000000027
20
286.99999999999972
10
855.57500000000027
20
286.99999999999972
0
LWPOLYLINE
5
163
100
AcDbEntity
8
0
100
AcDbPolyline
90
4
70
1
43
0.0
10
891.95000000000027
20
316.99999999999977
10
887.95000000000027
20
316.99999999999977
10
887.95000000000027
20
322.99999999999977
10
891.95000000000027
20
322.99999999999977
0
LWPOLYLINE
5
164
100
AcDbEntity
8
0
100
AcDbPolyline
90
4
70
1
43
0.0
10
871.72500000000025
20
304.99999999999972
10
867.72500000000036
20
304.99999999999972
10
867.72500000000036
20
310.99999999999972
10
871.72500000000025
20
310.99999999999977
0
LWPOLYLINE
5
165
100
AcDbEntity
8
0
100
AcDbPolyline
90
4
70
1
43
0.0
10
867.72500000000036
20
292.99999999999966
10
863.72500000000036
20
292.99999999999966
10
863.72500000000036
20
298.99999999999972
10
867.72500000000036
20
298.99999999999972
0
LWPOLYLINE
5
166
100
AcDbEntity
8
0
100
AcDbPolyline
90
4
70
1
43
0.0
10
920.1750000000003
20
214.99999999999966
10
920.1750000000003
20
208.99999999999963
10
916.17500000000041
20
208.99999999999966
10
916.17500000000041
20
214.9999999999996
0
LWPOLYLINE
5
167
100
AcDbEntity
8
0
100
AcDbPolyline
90
4
70
1
43
0.0
10
855.57500000000027
20
304.99999999999972
10
851.57500000000027
20
304.99999999999972
10
851.57500000000027
20
310.99999999999972
10
855.57500000000027
20
310.99999999999977
0
LWPOLYLINE
5
168
100
AcDbEntity
8
0
100
AcDbPolyline
90
4
70
1
43
0.0
10
879.80000000000018
20
214.99999999999966
10
879.80000000000018
20
208.99999999999963
10
875.8000000000003
20
208.99999999999966
10
875.8000000000003
20
214.9999999999996
0
LWPOLYLINE
5
169
100
AcDbEntity
8
0
100
AcDbPolyline
90
4
70
1
43
0.0
10
847.50000000000023
20
214.99999999999966
10
847.50000000000023
20
208.99999999999963
10
843.50000000000023
20
208.99999999999966
10
843.50000000000023
20
214.9999999999996
0
LWPOLYLINE
5
170
100
AcDbEntity
8
0
100
AcDbPolyline
90
4
70
1
43
0.0
10
1049.3750000000002
20
214.99999999999966
10
1049.3750000000002
20
208.99999999999963
10
1045.3750000000002
20
208.99999999999966
10
1045.3750000000002
20
214.9999999999996
0
LWPOLYLINE
5
171
100
AcDbEntity
8
0
100
AcDbPolyline
90
4
70
1
43
0.0
10
887.87500000000023
20
214.99999999999966
10
887.87500000000023
20
208.99999999999963
10
883.87500000000034
20
208.99999999999966
10
883.87500000000034
20
214.9999999999996
0
LWPOLYLINE
5
172
100
AcDbEntity
8
0
100
AcDbPolyline
90
4
70
1
43
0.0
10
895.95000000000027
20
214.99999999999966
10
895.95000000000027
20
208.99999999999963
10
891.95000000000027
20
208.99999999999966
10
891.95000000000027
20
214.9999999999996
0
LWPOLYLINE
5
173
100
AcDbEntity
8
0
100
AcDbPolyline
90
4
70
1
43
0.0
10
1009.0000000000003
20
214.99999999999966
10
1009.0000000000003
20
208.99999999999963
10
1005.0000000000002
20
208.99999999999966
10
1005.0000000000002
20
214.9999999999996
0
LWPOLYLINE
5
174
100
AcDbEntity
8
0
100
AcDbPolyline
90
4
70
1
43
0.0
10
1065.5250000000003
20
214.99999999999966
10
1065.5250000000003
20
208.99999999999963
10
1061.5250000000003
20
208.99999999999966
10
1061.5250000000003
20
214.9999999999996
0
LWPOLYLINE
5
175
100
AcDbEntity
8
0
100
AcDbPolyline
90
4
70
1
43
0.0
10
960.55000000000041
20
214.99999999999966
10
960.55000000000041
20
208.99999999999963
10
956.5500000000003
20
208.99999999999966
10
956.5500000000003
20
214.9999999999996
0
LWPOLYLINE
5
176
100
AcDbEntity
8
0
100
AcDbPolyline
90
4
70
1
43
0.0
10
887.87500000000023
20
280.99999999999972
10
883.87500000000034
20
280.99999999999972
10
883.87500000000034
20
286.99999999999972
10
887.87500000000023
20
286.99999999999972
0
LWPOLYLINE
5
177
100
AcDbEntity
8
0
100
AcDbPolyline
90
4
70
1
43
0.0
10
851.57500000000027
20
292.99999999999966
10
847.57500000000027
20
292.99999999999966
10
847.57500000000027
20
298.99999999999972
10
851.57500000000027
20
298.99999999999972
0
LWPOLYLINE
5
178
100
AcDbEntity
8
0
100
AcDbPolyline
90
4
70
1
43
0.0
10
912.10000000000036
20
214.99999999999966
10
912.10000000000036
20
208.99999999999963
10
908.10000000000036
20
208.99999999999966
10
908.10000000000036
20
214.9999999999996
0
LWPOLYLINE
5
179
100
AcDbEntity
8
0
100
AcDbPolyline
90
4
70
1
43
0.0
10
968.62500000000023
20
214.99999999999966
10
968.62500000000023
20
208.99999999999963
10
964.62500000000034
20
208.99999999999966
10
964.62500000000034
20
214.9999999999996
0
LWPOLYLINE
5
180
100
AcDbEntity
8
0
100
AcDbPolyline
90
4
70
1
43
0.0
10
855.57500000000027
20
214.99999999999966
10
855.57500000000027
20
208.99999999999963
10
851.57500000000027
20
208.99999999999966
10
851.57500000000027
20
214.9999999999996
0
LWPOLYLINE
5
181
100
AcDbEntity
8
0
100
AcDbPolyline
90
4
70
1
43
0.0
10
936.32500000000027
20
214.99999999999966
10
936.32500000000027
20
208.99999999999963
10
932.32500000000027
20
208.99999999999966
10
932.32500000000027
20
214.9999999999996
0
LWPOLYLINE
5
182
100
AcDbEntity
8
0
100
AcDbPolyline
90
4
70
1
43
0.0
10
1033.2250000000004
20
214.99999999999966
10
1033.2250000000004
20
208.99999999999963
10
1029.2250000000004
20
208.99999999999966
10
1029.2250000000004
20
214.9999999999996
0
LWPOLYLINE
5
183
100
AcDbEntity
8
0
100
AcDbPolyline
90
4
70
1
43
0.0
10
895.95000000000027
20
280.99999999999972
10
891.95000000000027
20
280.99999999999972
10
891.95000000000027
20
286.99999999999972
10
895.95000000000027
20
286.99999999999972
0
LWPOLYLINE
5
184
100
AcDbEntity
8
0
100
AcDbPolyline
90
4
70
1
43
0.0
10
883.87500000000034
20
292.99999999999966
10
879.87500000000045
20
292.99999999999966
10
879.87500000000045
20
298.99999999999972
10
883.87500000000034
20
298.99999999999972
0
LWPOLYLINE
5
185
100
AcDbEntity
8
0
100
AcDbPolyline
90
4
70
1
43
0.0
10
879.80000000000018
20
280.99999999999972
10
875.8000000000003
20
280.99999999999972
10
875.8000000000003
20
286.99999999999972
10
879.80000000000018
20
286.99999999999972
0
LWPOLYLINE
5
186
100
AcDbEntity
8
0
100
AcDbPolyline
90
4
70
1
43
0.0
10
875.8000000000003
20
292.99999999999966
10
871.80000000000041
20
292.99999999999966
10
871.80000000000041
20
298.99999999999972
10
875.8000000000003
20
298.99999999999972
0
LWPOLYLINE
5
187
100
AcDbEntity
8
0
100
AcDbPolyline
90
4
70
1
43
0.0
10
871.72500000000025
20
214.99999999999966
10
871.72500000000025
20
208.99999999999963
10
867.72500000000036
20
208.99999999999966
10
867.72500000000036
20
214.9999999999996
0
LWPOLYLINE
5
188
100
AcDbEntity
8
0
100
AcDbPolyline
90
4
70
1
43
0.0
10
1000.9250000000003
20
214.99999999999966
10
1000.9250000000003
20
208.99999999999963
10
996.92500000000018
20
208.99999999999966
10
996.92500000000018
20
214.9999999999996
0
LWPOLYLINE
5
189
100
AcDbEntity
8
0
100
AcDbPolyline
90
4
70
1
43
0.0
10
843.50000000000023
20
316.99999999999977
10
839.50000000000034
20
316.99999999999977
10
839.50000000000034
20
322.99999999999977
10
843.50000000000023
20
322.99999999999977
0
LWPOLYLINE
5
190
100
AcDbEntity
8
0
100
AcDbPolyline
90
4
70
1
43
0.0
10
867.72500000000036
20
316.99999999999977
10
863.72500000000036
20
316.99999999999977
10
863.72500000000036
20
322.99999999999977
10
867.72500000000036
20
322.99999999999977
0
LWPOLYLINE
5
191
100
AcDbEntity
8
0
100
AcDbPolyline
90
4
70
1
43
0.0
10
871.72500000000025
20
280.99999999999972
10
867.72500000000036
20
280.99999999999972
10
867.72500000000036
20
286.99999999999972
10
871.72500000000025
20
286.99999999999972
0
LWPOLYLINE
5
192
100
AcDbEntity
8
0
100
AcDbPolyline
90
4
70
1
43
0.0
10
863.65000000000032
20
214.99999999999966
10
863.65000000000032
20
208.99999999999963
10
859.65000000000032
20
208.99999999999966
10
859.65000000000032
20
214.9999999999996
0
LWPOLYLINE
5
193
100
AcDbEntity
8
0
100
AcDbPolyline
90
4
70
1
43
0.0
10
928.25000000000034
20
214.99999999999966
10
928.25000000000034
20
208.99999999999963
10
924.25000000000023
20
208.99999999999966
10
924.25000000000023
20
214.9999999999996
0
LWPOLYLINE
5
194
100
AcDbEntity
8
0
100
AcDbPolyline
90
4
70
1
43
0.0
10
944.40000000000032
20
214.99999999999966
10
944.40000000000032
20
208.99999999999963
10
940.4000000000002
20
208.99999999999966
10
940.4000000000002
20
214.9999999999996
0
LWPOLYLINE
5
195
100
AcDbEntity
8
0
100
AcDbPolyline
90
4
70
1
43
0.0
10
1057.4500000000003
20
214.99999999999966
10
1057.4500000000003
20
208.99999999999963
10
1053.4500000000003
20
208.99999999999966
10
1053.4500000000003
20
214.9999999999996
0
LWPOLYLINE
5
196
100
AcDbEntity
8
0
100
AcDbPolyline
90
4
70
1
43
0.0
10
952.47500000000036
20
214.99999999999966
10
952.47500000000036
20
208.99999999999963
10
948.47500000000025
20
208.99999999999966
10
948.47500000000025
20
214.9999999999996
0
LWPOLYLINE
5
197
100
AcDbEntity
8
0
100
AcDbPolyline
90
4
70
1
43
0.0
10
1041.3000000000002
20
214.99999999999966
10
1041.3000000000002
20
208.99999999999963
10
1037.3000000000004
20
208.99999999999966
10
1037.3000000000004
20
214.9999999999996
0
LWPOLYLINE
5
198
100
AcDbEntity
8
0
100
AcDbPolyline
90
4
70
1
43
0.0
10
1025.1500000000003
20
214.99999999999966
10
1025.1500000000003
20
208.99999999999963
10
1021.1500000000003
20
208.99999999999966
10
1021.1500000000003
20
214.9999999999996
0
LWPOLYLINE
5
199
100
AcDbEntity
8
0
100
AcDbPolyline
90
4
70
1
43
0.0
10
859.65000000000032
20
292.99999999999966
10
855.65000000000032
20
292.99999999999966
10
855.65000000000032
20
298.99999999999972
10
859.65000000000032
20
298.99999999999972
0
LWPOLYLINE
5
200
100
AcDbEntity
8
0
100
AcDbPolyline
90
4
70
1
43
0.0
10
1017.0750000000003
20
214.99999999999966
10
1017.0750000000003
20
208.99999999999963
10
1013.0750000000003
20
208.99999999999966
10
1013.0750000000003
20
214.9999999999996
0
LWPOLYLINE
5
201
100
AcDbEntity
8
0
100
AcDbPolyline
90
4
70
1
43
0.0
10
956.5500000000003
20
316.99999999999977
10
952.55000000000018
20
316.99999999999977
10
952.55000000000018
20
322.99999999999977
10
956.5500000000003
20
322.99999999999977
0
LWPOLYLINE
5
202
100
AcDbEntity
8
0
100
AcDbPolyline
90
4
70
1
43
0.0
10
956.5500000000003
20
292.99999999999966
10
952.55000000000018
20
292.99999999999966
10
952.55000000000018
20
298.99999999999972
10
956.5500000000003
20
298.99999999999972
0
LWPOLYLINE
5
203
100
AcDbEntity
8
0
100
AcDbPolyline
90
4
70
1
43
0.0
10
952.55000000000018
20
226.99999999999963
10
956.5500000000003
20
226.99999999999963
10
956.5500000000003
20
220.99999999999963
10
952.55000000000018
20
220.99999999999966
0
LWPOLYLINE
5
204
100
AcDbEntity
8
0
100
AcDbPolyline
90
4
70
1
43
0.0
10
887.95000000000027
20
226.99999999999963
10
891.95000000000027
20
226.99999999999963
10
891.95000000000027
20
220.99999999999963
10
887.95000000000027
20
220.99999999999966
0
LWPOLYLINE
5
205
100
AcDbEntity
8
0
100
AcDbPolyline
90
4
70
1
43
0.0
10
992.85000000000025
20
214.99999999999966
10
992.85000000000025
20
208.99999999999963
10
988.85000000000036
20
208.99999999999966
10
988.85000000000036
20
214.9999999999996
0
LWPOLYLINE
5
206
100
AcDbEntity
8
0
100
AcDbPolyline
90
4
70
1
43
0.0
10
871.72500000000025
20
256.99999999999972
10
867.72500000000036
20
256.99999999999972
10
867.72500000000036
20
262.99999999999972
10
871.72500000000025
20
262.99999999999966
0
LWPOLYLINE
5
207
100
AcDbEntity
8
0
100
AcDbPolyline
90
4
70
1
43
0.0
10
956.5500000000003
20
268.99999999999972
10
952.55000000000018
20
268.99999999999972
10
952.55000000000018
20
274.99999999999972
10
956.5500000000003
20
274.99999999999966
0
LWPOLYLINE
5
208
100
AcDbEntity
8
0
100
AcDbPolyline
90
4
70
1
43
0.0
10
956.5500000000003
20
244.99999999999969
10
952.55000000000018
20
244.99999999999969
10
952.55000000000018
20
250.99999999999969
10
956.5500000000003
20
250.99999999999969
0
LWPOLYLINE
5
209
100
AcDbEntity
8
0
100
AcDbPolyline
90
4
70
1
43
0.0
10
1009.0750000000003
20
226.99999999999963
10
1013.0750000000003
20
226.99999999999963
10
1013.0750000000003
20
220.99999999999963
10
1009.0750000000003
20
220.99999999999966
0
LWPOLYLINE
5
210
100
AcDbEntity
8
0
100
AcDbPolyline
90
4
70
1
43
0.0
10
968.62500000000023
20
304.99999999999972
10
964.62500000000034
20
304.99999999999972
10
964.62500000000034
20
310.99999999999972
10
968.62500000000023
20
310.99999999999977
0
LWPOLYLINE
5
211
100
AcDbEntity
8
0
100
AcDbPolyline
90
4
70
1
43
0.0
10
900.02500000000032
20
292.99999999999966
10
896.02500000000032
20
292.99999999999966
10
896.02500000000032
20
298.99999999999972
10
900.02500000000032
20
298.99999999999972
0
LWPOLYLINE
5
212
100
AcDbEntity
8
0
100
AcDbPolyline
90
4
70
1
43
0.0
10
863.65000000000032
20
232.99999999999966
10
859.65000000000032
20
232.99999999999966
10
859.65000000000032
20
238.99999999999966
10
863.65000000000032
20
238.99999999999966
0
LWPOLYLINE
5
213
100
AcDbEntity
8
0
100
AcDbPolyline
90
4
70
1
43
0.0
10
847.50000000000023
20
280.99999999999972
10
843.50000000000023
20
280.99999999999972
10
843.50000000000023
20
286.99999999999972
10
847.50000000000023
20
286.99999999999972
0
LWPOLYLINE
5
214
100
AcDbEntity
8
0
100
AcDbPolyline
90
4
70
1
43
0.0
10
1013.0750000000003
20
316.99999999999977
10
1009.0750000000003
20
316.99999999999977
10
1009.0750000000003
20
322.99999999999977
10
1013.0750000000003
20
322.99999999999977
0
LWPOLYLINE
5
215
100
AcDbEntity
8
0
100
AcDbPolyline
90
4
70
1
43
0.0
10
968.62500000000023
20
280.99999999999972
10
964.62500000000034
20
280.99999999999972
10
964.62500000000034
20
286.99999999999972
10
968.62500000000023
20
286.99999999999972
0
LWPOLYLINE
5
216
100
AcDbEntity
8
0
100
AcDbPolyline
90
4
70
1
43
0.0
10
891.95000000000027
20
268.99999999999972
10
887.95000000000027
20
268.99999999999972
10
887.95000000000027
20
274.99999999999972
10
891.95000000000027
20
274.99999999999966
0
LWPOLYLINE
5
217
100
AcDbEntity
8
0
100
AcDbPolyline
90
4
70
1
43
0.0
10
879.80000000000018
20
256.99999999999972
10
875.8000000000003
20
256.99999999999972
10
875.8000000000003
20
262.99999999999972
10
879.80000000000018
20
262.99999999999966
0
LWPOLYLINE
5
218
100
AcDbEntity
8
0
100
AcDbPolyline
90
4
70
1
43
0.0
10
1041.3750000000002
20
226.99999999999963
10
1045.3750000000002
20
226.99999999999963
10
1045.3750000000002
20
220.99999999999963
10
1041.3750000000002
20
220.99999999999966
0
LWPOLYLINE
5
219
100
AcDbEntity
8
0
100
AcDbPolyline
90
4
70
1
43
0.0
10
1005.0000000000002
20
292.99999999999966
10
1001.0000000000002
20
292.99999999999966
10
1001.0000000000002
20
298.99999999999972
10
1005.0000000000002
20
298.99999999999972
0
LWPOLYLINE
5
220
100
AcDbEntity
8
0
100
AcDbPolyline
90
4
70
1
43
0.0
10
887.87500000000023
20
232.99999999999966
10
883.87500000000034
20
232.99999999999966
10
883.87500000000034
20
238.99999999999966
10
887.87500000000023
20
238.99999999999966
0
LWPOLYLINE
5
221
100
AcDbEntity
8
0
100
AcDbPolyline
90
4
70
1
43
0.0
10
972.70000000000027
20
316.99999999999977
10
968.70000000000027
20
316.99999999999977
10
968.70000000000027
20
322.99999999999977
10
972.70000000000027
20
322.99999999999977
0
LWPOLYLINE
5
222
100
AcDbEntity
8
0
100
AcDbPolyline
90
4
70
1
43
0.0
10
883.87500000000034
20
244.99999999999969
10
879.87500000000045
20
244.99999999999969
10
879.87500000000045
20
250.99999999999969
10
883.87500000000034
20
250.99999999999969
0
LWPOLYLINE
5
223
100
AcDbEntity
8
0
100
AcDbPolyline
90
4
70
1
43
0.0
10
1000.9250000000003
20
304.99999999999972
10
996.92500000000018
20
304.99999999999972
10
996.92500000000018
20
310.99999999999972
10
1000.9250000000003
20
310.99999999999977
0
LWPOLYLINE
5
224
100
AcDbEntity
8
0
100
AcDbPolyline
90
4
70
1
43
0.0
10
900.02500000000032
20
316.99999999999977
10
896.02500000000032
20
316.99999999999977
10
896.02500000000032
20
322.99999999999977
10
900.02500000000032
20
322.99999999999977
0
LWPOLYLINE
5
225
100
AcDbEntity
8
0
100
AcDbPolyline
90
4
70
1
43
0.0
10
851.57500000000027
20
244.99999999999969
10
847.57500000000027
20
244.99999999999969
10
847.57500000000027
20
250.99999999999969
10
851.57500000000027
20
250.99999999999969
0
LWPOLYLINE
5
226
100
AcDbEntity
8
0
100
AcDbPolyline
90
4
70
1
43
0.0
10
988.85000000000036
20
316.99999999999977
10
984.85000000000025
20
316.99999999999977
10
984.85000000000025
20
322.99999999999977
10
988.85000000000036
20
322.99999999999977
0
LWPOLYLINE
5
227
100
AcDbEntity
8
0
100
AcDbPolyline
90
4
70
1
43
0.0
10
879.87500000000045
20
226.99999999999963
10
883.87500000000034
20
226.99999999999963
10
883.87500000000034
20
220.99999999999963
10
879.87500000000045
20
220.99999999999966
0
LWPOLYLINE
5
228
100
AcDbEntity
8
0
100
AcDbPolyline
90
4
70
1
43
0.0
10
1013.0750000000003
20
268.99999999999972
10
1009.0750000000003
20
268.99999999999972
10
1009.0750000000003
20
274.99999999999972
10
1013.0750000000003
20
274.99999999999966
0
LWPOLYLINE
5
229
100
AcDbEntity
8
0
100
AcDbPolyline
90
4
70
1
43
0.0
10
992.85000000000025
20
280.99999999999972
10
988.85000000000036
20
280.99999999999972
10
988.85000000000036
20
286.99999999999972
10
992.85000000000025
20
286.99999999999972
0
LWPOLYLINE
5
230
100
AcDbEntity
8
0
100
AcDbPolyline
90
4
70
1
43
0.0
10
900.02500000000032
20
244.99999999999969
10
896.02500000000032
20
244.99999999999969
10
896.02500000000032
20
250.99999999999969
10
900.02500000000032
20
250.99999999999969
0
LWPOLYLINE
5
231
100
AcDbEntity
8
0
100
AcDbPolyline
90
4
70
1
43
0.0
10
871.72500000000025
20
232.99999999999966
10
867.72500000000036
20
232.99999999999966
10
867.72500000000036
20
238.99999999999966
10
871.72500000000025
20
238.99999999999966
0
LWPOLYLINE
5
232
100
AcDbEntity
8
0
100
AcDbPolyline
90
4
70
1
43
0.0
10
1013.0750000000003
20
292.99999999999966
10
1009.0750000000003
20
292.99999999999966
10
1009.0750000000003
20
298.99999999999972
10
1013.0750000000003
20
298.99999999999972
0
LWPOLYLINE
5
233
100
AcDbEntity
8
0
100
AcDbPolyline
90
4
70
1
43
0.0
10
843.50000000000023
20
244.99999999999969
10
839.50000000000034
20
244.99999999999969
10
839.50000000000034
20
250.99999999999969
10
843.50000000000023
20
250.99999999999969
0
LWPOLYLINE
5
234
100
AcDbEntity
8
0
100
AcDbPolyline
90
4
70
1
43
0.0
10
896.02500000000032
20
226.99999999999963
10
900.02500000000032
20
226.99999999999963
10
900.02500000000032
20
220.99999999999963
10
896.02500000000032
20
220.99999999999966
0
LWPOLYLINE
5
235
100
AcDbEntity
8
0
100
AcDbPolyline
90
4
70
1
43
0.0
10
1049.4500000000003
20
226.99999999999963
10
1053.4500000000003
20
226.99999999999963
10
1053.4500000000003
20
220.99999999999963
10
1049.4500000000003
20
220.99999999999966
0
LWPOLYLINE
5
236
100
AcDbEntity
8
0
100
AcDbPolyline
90
4
70
1
43
0.0
10
964.62500000000034
20
292.99999999999966
10
960.62500000000023
20
292.99999999999966
10
960.62500000000023
20
298.99999999999972
10
964.62500000000034
20
298.99999999999972
0
LWPOLYLINE
5
237
100
AcDbEntity
8
0
100
AcDbPolyline
90
4
70
1
43
0.0
10
992.85000000000025
20
304.99999999999972
10
988.85000000000036
20
304.99999999999972
10
988.85000000000036
20
310.99999999999972
10
992.85000000000025
20
310.99999999999977
0
LWPOLYLINE
5
238
100
AcDbEntity
8
0
100
AcDbPolyline
90
4
70
1
43
0.0
10
1009.0000000000003
20
280.99999999999972
10
1005.0000000000002
20
280.99999999999972
10
1005.0000000000002
20
286.99999999999972
10
1009.0000000000003
20
286.99999999999972
0
LWPOLYLINE
5
239
100
AcDbEntity
8
0
100
AcDbPolyline
90
4
70
1
43
0.0
10
1000.9250000000003
20
280.99999999999972
10
996.92500000000018
20
280.99999999999972
10
996.92500000000018
20
286.99999999999972
10
1000.9250000000003
20
286.99999999999972
0
LWPOLYLINE
5
240
100
AcDbEntity
8
0
100
AcDbPolyline
90
4
70
1
43
0.0
10
900.02500000000032
20
268.99999999999972
10
896.02500000000032
20
268.99999999999972
10
896.02500000000032
20
274.99999999999972
10
900.02500000000032
20
274.99999999999966
0
LWPOLYLINE
5
241
100
AcDbEntity
8
0
100
AcDbPolyline
90
4
70
1
43
0.0
10
1049.3750000000002
20
232.99999999999966
10
1045.3750000000002
20
232.99999999999966
10
1045.3750000000002
20
238.99999999999966
10
1049.3750000000002
20
238.99999999999966
0
LWPOLYLINE
5
242
100
AcDbEntity
8
0
100
AcDbPolyline
90
4
70
1
43
0.0
10
1017.0750000000003
20
256.99999999999972
10
1013.0750000000003
20
256.99999999999972
10
1013.0750000000003
20
262.99999999999972
10
1017.0750000000003
20
262.99999999999966
0
LWPOLYLINE
5
243
100
AcDbEntity
8
0
100
AcDbPolyline
90
4
70
1
43
0.0
10
891.95000000000027
20
244.99999999999969
10
887.95000000000027
20
244.99999999999969
10
887.95000000000027
20
250.99999999999969
10
891.95000000000027
20
250.99999999999969
0
LWPOLYLINE
5
244
100
AcDbEntity
8
0
100
AcDbPolyline
90
4
70
1
43
0.0
10
1041.3000000000002
20
304.99999999999972
10
1037.3000000000004
20
304.99999999999972
10
1037.3000000000004
20
310.99999999999972
10
1041.3000000000002
20
310.99999999999977
0
LWPOLYLINE
5
245
100
AcDbEntity
8
0
100
AcDbPolyline
90
4
70
1
43
0.0
10
1025.1500000000003
20
280.99999999999972
10
1021.1500000000003
20
280.99999999999972
10
1021.1500000000003
20
286.99999999999972
10
1025.1500000000003
20
286.99999999999972
0
LWPOLYLINE
5
246
100
AcDbEntity
8
0
100
AcDbPolyline
90
4
70
1
43
0.0
10
839.50000000000034
20
226.99999999999963
10
843.50000000000023
20
226.99999999999963
10
843.50000000000023
20
220.99999999999963
10
839.50000000000034
20
220.99999999999966
0
LWPOLYLINE
5
247
100
AcDbEntity
8
0
100
AcDbPolyline
90
4
70
1
43
0.0
10
1017.0750000000003
20
280.99999999999972
10
1013.0750000000003
20
280.99999999999972
10
1013.0750000000003
20
286.99999999999972
10
1017.0750000000003
20
286.99999999999972
0
LWPOLYLINE
5
248
100
AcDbEntity
8
0
100
AcDbPolyline
90
4
70
1
43
0.0
10
976.70000000000027
20
304.99999999999972
10
972.70000000000027
20
304.99999999999972
10
972.70000000000027
20
310.99999999999972
10
976.70000000000027
20
310.99999999999977
0
LWPOLYLINE
5
249
100
AcDbEntity
8
0
100
AcDbPolyline
90
4
70
1
43
0.0
10
980.77500000000032
20
316.99999999999977
10
976.77500000000032
20
316.99999999999977
10
976.77500000000032
20
322.99999999999977
10
980.77500000000032
20
322.99999999999977
0
LWPOLYLINE
5
250
100
AcDbEntity
8
0
100
AcDbPolyline
90
4
70
1
43
0.0
10
1017.1500000000003
20
226.99999999999963
10
1021.1500000000003
20
226.99999999999963
10
1021.1500000000003
20
220.99999999999963
10
1017.1500000000003
20
220.99999999999966
0
LWPOLYLINE
5
251
100
AcDbEntity
8
0
100
AcDbPolyline
90
4
70
1
43
0.0
10
996.92500000000018
20
316.99999999999977
10
992.9250000000003
20
316.99999999999977
10
992.9250000000003
20
322.99999999999977
10
996.92500000000018
20
322.99999999999977
0
LWPOLYLINE
5
252
100
AcDbEntity
8
0
100
AcDbPolyline
90
4
70
1
43
0.0
10
875.8000000000003
20
244.99999999999969
10
871.80000000000041
20
244.99999999999969
10
871.80000000000041
20
250.99999999999969
10
875.8000000000003
20
250.99999999999969
0
LWPOLYLINE
5
253
100
AcDbEntity
8
0
100
AcDbPolyline
90
4
70
1
43
0.0
10
1029.2250000000004
20
244.99999999999969
10
1025.2250000000004
20
244.99999999999969
10
1025.2250000000004
20
250.99999999999969
10
1029.2250000000004
20
250.99999999999969
0
LWPOLYLINE
5
254
100
AcDbEntity
8
0
100
AcDbPolyline
90
4
70
1
43
0.0
10
1033.2250000000004
20
256.99999999999972
10
1029.2250000000004
20
256.99999999999972
10
1029.2250000000004
20
262.99999999999972
10
1033.2250000000004
20
262.99999999999966
0
LWPOLYLINE
5
255
100
AcDbEntity
8
0
100
AcDbPolyline
90
4
70
1
43
0.0
10
1065.5250000000003
20
304.99999999999972
10
1061.5250000000003
20
304.99999999999972
10
1061.5250000000003
20
310.99999999999972
10
1065.5250000000003
20
310.99999999999977
0
LWPOLYLINE
5
256
100
AcDbEntity
8
0
100
AcDbPolyline
90
4
70
1
43
0.0
10
867.72500000000036
20
244.99999999999969
10
863.72500000000036
20
244.99999999999969
10
863.72500000000036
20
250.99999999999969
10
867.72500000000036
20
250.99999999999969
0
LWPOLYLINE
5
257
100
AcDbEntity
8
0
100
AcDbPolyline
90
4
70
1
43
0.0
10
1061.5250000000003
20
268.99999999999972
10
1057.5250000000003
20
268.99999999999972
10
1057.5250000000003
20
274.99999999999972
10
1061.5250000000003
20
274.99999999999966
0
LWPOLYLINE
5
258
100
AcDbEntity
8
0
100
AcDbPolyline
90
4
70
1
43
0.0
10
1025.1500000000003
20
304.99999999999972
10
1021.1500000000003
20
304.99999999999972
10
1021.1500000000003
20
310.99999999999972
10
1025.1500000000003
20
310.99999999999977
0
LWPOLYLINE
5
259
100
AcDbEntity
8
0
100
AcDbPolyline
90
4
70
1
43
0.0
10
847.50000000000023
20
304.99999999999972
10
843.50000000000023
20
304.99999999999972
10
843.50000000000023
20
310.99999999999972
10
847.50000000000023
20
310.99999999999977
0
LWPOLYLINE
5
260
100
AcDbEntity
8
0
100
AcDbPolyline
90
4
70
1
43
0.0
10
904.02500000000032
20
214.99999999999966
10
904.02500000000032
20
208.99999999999963
10
900.02500000000032
20
208.99999999999966
10
900.02500000000032
20
214.9999999999996
0
LWPOLYLINE
5
261
100
AcDbEntity
8
0
100
AcDbPolyline
90
4
70
1
43
0.0
10
851.57500000000027
20
316.99999999999977
10
847.57500000000027
20
316.99999999999977
10
847.57500000000027
20
322.99999999999977
10
851.57500000000027
20
322.99999999999977
0
LWPOLYLINE
5
262
100
AcDbEntity
8
0
100
AcDbPolyline
90
4
70
1
43
0.0
10
984.7750000000002
20
214.99999999999966
10
984.7750000000002
20
208.99999999999963
10
980.77500000000032
20
208.99999999999966
10
980.77500000000032
20
214.9999999999996
0
LWPOLYLINE
5
263
100
AcDbEntity
8
0
100
AcDbPolyline
90
4
70
1
43
0.0
10
1005.0000000000002
20
244.99999999999969
10
1001.0000000000002
20
244.99999999999969
10
1001.0000000000002
20
250.99999999999969
10
1005.0000000000002
20
250.99999999999969
0
LWPOLYLINE
5
264
100
AcDbEntity
8
0
100
AcDbPolyline
90
4
70
1
43
0.0
10
1065.5250000000003
20
256.99999999999972
10
1061.5250000000003
20
256.99999999999972
10
1061.5250000000003
20
262.99999999999972
10
1065.5250000000003
20
262.99999999999966
0
LWPOLYLINE
5
265
100
AcDbEntity
8
0
100
AcDbPolyline
90
4
70
1
43
0.0
10
968.62500000000023
20
232.99999999999966
10
964.62500000000034
20
232.99999999999966
10
964.62500000000034
20
238.99999999999966
10
968.62500000000023
20
238.99999999999966
0
LWPOLYLINE
5
266
100
AcDbEntity
8
0
100
AcDbPolyline
90
4
70
1
43
0.0
10
984.7750000000002
20
304.99999999999972
10
980.77500000000032
20
304.99999999999972
10
980.77500000000032
20
310.99999999999972
10
984.7750000000002
20
310.99999999999977
0
LWPOLYLINE
5
267
100
AcDbEntity
8
0
100
AcDbPolyline
90
4
70
1
43
0.0
10
1057.5250000000003
20
226.99999999999963
10
1061.5250000000003
20
226.99999999999963
10
1061.5250000000003
20
220.99999999999963
10
1057.5250000000003
20
220.99999999999966
0
LWPOLYLINE
5
268
100
AcDbEntity
8
0
100
AcDbPolyline
90
4
70
1
43
0.0
10
952.47500000000036
20
256.99999999999972
10
948.47500000000025
20
256.99999999999972
10
948.47500000000025
20
262.99999999999972
10
952.47500000000036
20
262.99999999999966
0
LWPOLYLINE
5
269
100
AcDbEntity
8
0
100
AcDbPolyline
90
4
70
1
43
0.0
10
1021.1500000000003
20
268.99999999999972
10
1017.1500000000003
20
268.99999999999972
10
1017.1500000000003
20
274.99999999999972
10
1021.1500000000003
20
274.99999999999966
0
LWPOLYLINE
5
270
100
AcDbEntity
8
0
100
AcDbPolyline
90
4
70
1
43
0.0
10
968.62500000000023
20
256.99999999999972
10
964.62500000000034
20
256.99999999999972
10
964.62500000000034
20
262.99999999999972
10
968.62500000000023
20
262.99999999999966
0
LWPOLYLINE
5
271
100
AcDbEntity
8
0
100
AcDbPolyline
90
4
70
1
43
0.0
10
1045.3750000000002
20
268.99999999999972
10
1041.3750000000002
20
268.99999999999972
10
1041.3750000000002
20
274.99999999999972
10
1045.3750000000002
20
274.99999999999966
0
LWPOLYLINE
5
272
100
AcDbEntity
8
0
100
AcDbPolyline
90
4
70
1
43
0.0
10
940.4000000000002
20
268.99999999999972
10
936.40000000000032
20
268.99999999999972
10
936.40000000000032
20
274.99999999999972
10
940.4000000000002
20
274.99999999999966
0
LWPOLYLINE
5
273
100
AcDbEntity
8
0
100
AcDbPolyline
90
4
70
1
43
0.0
10
932.32500000000027
20
244.99999999999969
10
928.32500000000039
20
244.99999999999969
10
928.32500000000039
20
250.99999999999969
10
932.32500000000027
20
250.99999999999969
0
LWPOLYLINE
5
274
100
AcDbEntity
8
0
100
AcDbPolyline
90
4
70
1
43
0.0
10
916.17500000000041
20
244.99999999999969
10
912.1750000000003
20
244.99999999999969
10
912.1750000000003
20
250.99999999999969
10
916.17500000000041
20
250.99999999999969
0
LWPOLYLINE
5
275
100
AcDbEntity
8
0
100
AcDbPolyline
90
4
70
1
43
0.0
10
960.62500000000023
20
226.99999999999963
10
964.62500000000034
20
226.99999999999963
10
964.62500000000034
20
220.99999999999963
10
960.62500000000023
20
220.99999999999966
0
LWPOLYLINE
5
276
100
AcDbEntity
8
0
100
AcDbPolyline
90
4
70
1
43
0.0
10
920.25000000000034
20
226.99999999999963
10
924.25000000000023
20
226.99999999999963
10
924.25000000000023
20
220.99999999999963
10
920.25000000000034
20
220.99999999999966
0
LWPOLYLINE
5
277
100
AcDbEntity
8
0
100
AcDbPolyline
90
4
70
1
43
0.0
10
1057.4500000000003
20
256.99999999999972
10
1053.4500000000003
20
256.99999999999972
10
1053.4500000000003
20
262.99999999999972
10
1057.4500000000003
20
262.99999999999966
0
LWPOLYLINE
5
278
100
AcDbEntity
8
0
100
AcDbPolyline
90
4
70
1
43
0.0
10
960.55000000000041
20
256.99999999999972
10
956.5500000000003
20
256.99999999999972
10
956.5500000000003
20
262.99999999999972
10
960.55000000000041
20
262.99999999999966
0
LWPOLYLINE
5
279
100
AcDbEntity
8
0
100
AcDbPolyline
90
4
70
1
43
0.0
10
944.40000000000032
20
232.99999999999966
10
940.4000000000002
20
232.99999999999966
10
940.4000000000002
20
238.99999999999966
10
944.40000000000032
20
238.99999999999966
0
LWPOLYLINE
5
280
100
AcDbEntity
8
0
100
AcDbPolyline
90
4
70
1
43
0.0
10
1005.0000000000002
20
268.99999999999972
10
1001.0000000000002
20
268.99999999999972
10
1001.0000000000002
20
274.99999999999972
10
1005.0000000000002
20
274.99999999999966
0
LWPOLYLINE
5
281
100
AcDbEntity
8
0
100
AcDbPolyline
90
4
70
1
43
0.0
10
964.62500000000034
20
268.99999999999972
10
960.62500000000023
20
268.99999999999972
10
960.62500000000023
20
274.99999999999972
10
964.62500000000034
20
274.99999999999966
0
LWPOLYLINE
5
282
100
AcDbEntity
8
0
100
AcDbPolyline
90
4
70
1
43
0.0
10
1049.3750000000002
20
256.99999999999972
10
1045.3750000000002
20
256.99999999999972
10
1045.3750000000002
20
262.99999999999972
10
1049.3750000000002
20
262.99999999999966
0
LWPOLYLINE
5
283
100
AcDbEntity
8
0
100
AcDbPolyline
90
4
70
1
43
0.0
10
988.85000000000036
20
244.99999999999969
10
984.85000000000025
20
244.99999999999969
10
984.85000000000025
20
250.99999999999969
10
988.85000000000036
20
250.99999999999969
0
LWPOLYLINE
5
284
100
AcDbEntity
8
0
100
AcDbPolyline
90
4
70
1
43
0.0
10
1061.5250000000003
20
244.99999999999969
10
1057.5250000000003
20
244.99999999999969
10
1057.5250000000003
20
250.99999999999969
10
1061.5250000000003
20
250.99999999999969
0
LWPOLYLINE
5
285
100
AcDbEntity
8
0
100
AcDbPolyline
90
4
70
1
43
0.0
10
960.55000000000041
20
280.99999999999972
10
956.5500000000003
20
280.99999999999972
10
956.5500000000003
20
286.99999999999972
10
960.55000000000041
20
286.99999999999972
0
LWPOLYLINE
5
286
100
AcDbEntity
8
0
100
AcDbPolyline
90
4
70
1
43
0.0
10
916.17500000000041
20
268.99999999999972
10
912.1750000000003
20
268.99999999999972
10
912.1750000000003
20
274.99999999999972
10
916.17500000000041
20
274.99999999999966
0
LWPOLYLINE
5
287
100
AcDbEntity
8
0
100
AcDbPolyline
90
4
70
1
43
0.0
10
984.7750000000002
20
232.99999999999966
10
980.77500000000032
20
232.99999999999966
10
980.77500000000032
20
238.99999999999966
10
984.7750000000002
20
238.99999999999966
0
LWPOLYLINE
5
288
100
AcDbEntity
8
0
100
AcDbPolyline
90
4
70
1
43
0.0
10
980.77500000000032
20
244.99999999999969
10
976.77500000000032
20
244.99999999999969
10
976.77500000000032
20
250.99999999999969
10
980.77500000000032
20
250.99999999999969
0
LWPOLYLINE
5
289
100
AcDbEntity
8
0
100
AcDbPolyline
90
4
70
1
43
0.0
10
1045.3750000000002
20
244.99999999999969
10
1041.3750000000002
20
244.99999999999969
10
1041.3750000000002
20
250.99999999999969
10
1045.3750000000002
20
250.99999999999969
0
LWPOLYLINE
5
290
100
AcDbEntity
8
0
100
AcDbPolyline
90
4
70
1
43
0.0
10
1041.3000000000002
20
256.99999999999972
10
1037.3000000000004
20
256.99999999999972
10
1037.3000000000004
20
262.99999999999972
10
1041.3000000000002
20
262.99999999999966
0
LWPOLYLINE
5
291
100
AcDbEntity
8
0
100
AcDbPolyline
90
4
70
1
43
0.0
10
976.77500000000032
20
226.99999999999963
10
980.77500000000032
20
226.99999999999963
10
980.77500000000032
20
220.99999999999963
10
976.77500000000032
20
220.99999999999966
0
LWPOLYLINE
5
292
100
AcDbEntity
8
0
100
AcDbPolyline
90
4
70
1
43
0.0
10
980.77500000000032
20
268.99999999999972
10
976.77500000000032
20
268.99999999999972
10
976.77500000000032
20
274.99999999999972
10
980.77500000000032
20
274.99999999999966
0
LWPOLYLINE
5
293
100
AcDbEntity
8
0
100
AcDbPolyline
90
4
70
1
43
0.0
10
1009.0000000000003
20
256.99999999999972
10
1005.0000000000002
20
256.99999999999972
10
1005.0000000000002
20
262.99999999999972
10
1009.0000000000003
20
262.99999999999966
0
LWPOLYLINE
5
294
100
AcDbEntity
8
0
100
AcDbPolyline
90
4
70
1
43
0.0
10
984.85000000000025
20
226.99999999999963
10
988.85000000000036
20
226.99999999999963
10
988.85000000000036
20
220.99999999999963
10
984.85000000000025
20
220.99999999999966
0
LWPOLYLINE
5
295
100
AcDbEntity
8
0
100
AcDbPolyline
90
4
70
1
43
0.0
10
992.85000000000025
20
232.99999999999966
10
988.85000000000036
20
232.99999999999966
10
988.85000000000036
20
238.99999999999966
10
992.85000000000025
20
238.99999999999966
0
LWPOLYLINE
5
296
100
AcDbEntity
8
0
100
AcDbPolyline
90
4
70
1
43
0.0
10
1001.0000000000002
20
226.99999999999963
10
1005.0000000000002
20
226.99999999999963
10
1005.0000000000002
20
220.99999999999963
10
1001.0000000000002
20
220.99999999999966
0
LWPOLYLINE
5
297
100
AcDbEntity
8
0
100
AcDbPolyline
90
4
70
1
43
0.0
10
972.70000000000027
20
268.99999999999972
10
968.70000000000027
20
268.99999999999972
10
968.70000000000027
20
274.99999999999972
10
972.70000000000027
20
274.99999999999966
0
LWPOLYLINE
5
298
100
AcDbEntity
8
0
100
AcDbPolyline
90
4
70
1
43
0.0
10
1000.9250000000003
20
256.99999999999972
10
996.92500000000018
20
256.99999999999972
10
996.92500000000018
20
262.99999999999972
10
1000.9250000000003
20
262.99999999999966
0
LWPOLYLINE
5
299
100
AcDbEntity
8
0
100
AcDbPolyline
90
4
70
1
43
0.0
10
964.62500000000034
20
244.99999999999969
10
960.62500000000023
20
244.99999999999969
10
960.62500000000023
20
250.99999999999969
10
964.62500000000034
20
250.99999999999969
0
LWPOLYLINE
5
300
100
AcDbEntity
8
0
100
AcDbPolyline
90
4
70
1
43
0.0
10
1053.4500000000003
20
268.99999999999972
10
1049.4500000000003
20
268.99999999999972
10
1049.4500000000003
20
274.99999999999972
10
1053.4500000000003
20
274.99999999999966
0
LWPOLYLINE
5
301
100
AcDbEntity
8
0
100
AcDbPolyline
90
4
70
1
43
0.0
10
904.10000000000025
20
226.99999999999963
10
908.10000000000036
20
226.99999999999963
10
908.10000000000036
20
220.99999999999963
10
904.10000000000025
20
220.99999999999966
0
LWPOLYLINE
5
302
100
AcDbEntity
8
0
100
AcDbPolyline
90
4
70
1
43
0.0
10
908.10000000000036
20
244.99999999999969
10
904.10000000000025
20
244.99999999999969
10
904.10000000000025
20
250.99999999999969
10
908.10000000000036
20
250.99999999999969
0
LWPOLYLINE
5
303
100
AcDbEntity
8
0
100
AcDbPolyline
90
4
70
1
43
0.0
10
936.32500000000027
20
304.99999999999972
10
932.32500000000027
20
304.99999999999972
10
932.32500000000027
20
310.99999999999972
10
936.32500000000027
20
310.99999999999977
0
LWPOLYLINE
5
304
100
AcDbEntity
8
0
100
AcDbPolyline
90
4
70
1
43
0.0
10
944.40000000000032
20
304.99999999999972
10
940.4000000000002
20
304.99999999999972
10
940.4000000000002
20
310.99999999999972
10
944.40000000000032
20
310.99999999999977
0
LWPOLYLINE
5
305
100
AcDbEntity
8
0
100
AcDbPolyline
90
4
70
1
43
0.0
10
996.92500000000018
20
268.99999999999972
10
992.9250000000003
20
268.99999999999972
10
992.9250000000003
20
274.99999999999972
10
996.92500000000018
20
274.99999999999966
0
LWPOLYLINE
5
306
100
AcDbEntity
8
0
100
AcDbPolyline
90
4
70
1
43
0.0
10
1009.0000000000003
20
232.99999999999966
10
1005.0000000000002
20
232.99999999999966
10
1005.0000000000002
20
238.99999999999966
10
1009.0000000000003
20
238.99999999999966
0
LWPOLYLINE
5
307
100
AcDbEntity
8
0
100
AcDbPolyline
90
4
70
1
43
0.0
10
992.9250000000003
20
226.99999999999963
10
996.92500000000018
20
226.99999999999963
10
996.92500000000018
20
220.99999999999963
10
992.9250000000003
20
220.99999999999966
0
LWPOLYLINE
5
308
100
AcDbEntity
8
0
100
AcDbPolyline
90
4
70
1
43
0.0
10
1053.4500000000003
20
244.99999999999969
10
1049.4500000000003
20
244.99999999999969
10
1049.4500000000003
20
250.99999999999969
10
1053.4500000000003
20
250.99999999999969
0
LWPOLYLINE
5
309
100
AcDbEntity
8
0
100
AcDbPolyline
90
4
70
1
43
0.0
10
928.32500000000039
20
226.99999999999963
10
932.32500000000027
20
226.99999999999963
10
932.32500000000027
20
220.99999999999963
10
928.32500000000039
20
220.99999999999966
0
LWPOLYLINE
5
310
100
AcDbEntity
8
0
100
AcDbPolyline
90
4
70
1
43
0.0
10
948.47500000000025
20
316.99999999999977
10
944.47500000000036
20
316.99999999999977
10
944.47500000000036
20
322.99999999999977
10
948.47500000000025
20
322.99999999999977
0
LWPOLYLINE
5
311
100
AcDbEntity
8
0
100
AcDbPolyline
90
4
70
1
43
0.0
10
924.25000000000023
20
244.99999999999969
10
920.25000000000034
20
244.99999999999969
10
920.25000000000034
20
250.99999999999969
10
924.25000000000023
20
250.99999999999969
0
LWPOLYLINE
5
312
100
AcDbEntity
8
0
100
AcDbPolyline
90
4
70
1
43
0.0
10
920.1750000000003
20
232.99999999999966
10
916.17500000000041
20
232.99999999999966
10
916.17500000000041
20
238.99999999999966
10
920.1750000000003
20
238.99999999999966
0
LWPOLYLINE
5
313
100
AcDbEntity
8
0
100
AcDbPolyline
90
4
70
1
43
0.0
10
936.32500000000027
20
256.99999999999972
10
932.32500000000027
20
256.99999999999972
10
932.32500000000027
20
262.99999999999972
10
936.32500000000027
20
262.99999999999966
0
LWPOLYLINE
5
314
100
AcDbEntity
8
0
100
AcDbPolyline
90
4
70
1
43
0.0
10
912.10000000000036
20
280.99999999999972
10
908.10000000000036
20
280.99999999999972
10
908.10000000000036
20
286.99999999999972
10
912.10000000000036
20
286.99999999999972
0
LWPOLYLINE
5
315
100
AcDbEntity
8
0
100
AcDbPolyline
90
4
70
1
43
0.0
10
960.55000000000041
20
304.99999999999972
10
956.5500000000003
20
304.99999999999972
10
956.5500000000003
20
310.99999999999972
10
960.55000000000041
20
310.99999999999977
0
LWPOLYLINE
5
316
100
AcDbEntity
8
0
100
AcDbPolyline
90
4
70
1
43
0.0
10
936.40000000000032
20
226.99999999999963
10
940.4000000000002
20
226.99999999999963
10
940.4000000000002
20
220.99999999999963
10
936.40000000000032
20
220.99999999999966
0
LWPOLYLINE
5
317
100
AcDbEntity
8
0
100
AcDbPolyline
90
4
70
1
43
0.0
10
936.32500000000027
20
280.99999999999972
10
932.32500000000027
20
280.99999999999972
10
932.32500000000027
20
286.99999999999972
10
936.32500000000027
20
286.99999999999972
0
LWPOLYLINE
5
318
100
AcDbEntity
8
0
100
AcDbPolyline
90
4
70
1
43
0.0
10
948.47500000000025
20
292.99999999999966
10
944.47500000000036
20
292.99999999999966
10
944.47500000000036
20
298.99999999999972
10
948.47500000000025
20
298.99999999999972
0
LWPOLYLINE
5
319
100
AcDbEntity
8
0
100
AcDbPolyline
90
4
70
1
43
0.0
10
920.1750000000003
20
304.99999999999972
10
916.17500000000041
20
304.99999999999972
10
916.17500000000041
20
310.99999999999972
10
920.1750000000003
20
310.99999999999977
0
LWPOLYLINE
5
320
100
AcDbEntity
8
0
100
AcDbPolyline
90
4
70
1
43
0.0
10
928.25000000000034
20
280.99999999999972
10
924.25000000000023
20
280.99999999999972
10
924.25000000000023
20
286.99999999999972
10
928.25000000000034
20
286.99999999999972
0
LWPOLYLINE
5
321
100
AcDbEntity
8
0
100
AcDbPolyline
90
4
70
1
43
0.0
10
904.02500000000032
20
256.99999999999972
10
900.02500000000032
20
256.99999999999972
10
900.02500000000032
20
262.99999999999972
10
904.02500000000032
20
262.99999999999966
0
LWPOLYLINE
5
322
100
AcDbEntity
8
0
100
AcDbPolyline
90
4
70
1
43
0.0
10
948.47500000000025
20
244.99999999999969
10
944.47500000000036
20
244.99999999999969
10
944.47500000000036
20
250.99999999999969
10
948.47500000000025
20
250.99999999999969
0
LWPOLYLINE
5
323
100
AcDbEntity
8
0
100
AcDbPolyline
90
4
70
1
43
0.0
10
948.47500000000025
20
268.99999999999972
10
944.47500000000036
20
268.99999999999972
10
944.47500000000036
20
274.99999999999972
10
948.47500000000025
20
274.99999999999966
0
LWPOLYLINE
5
324
100
AcDbEntity
8
0
100
AcDbPolyline
90
4
70
1
43
0.0
10
936.32500000000027
20
232.99999999999966
10
932.32500000000027
20
232.99999999999966
10
932.32500000000027
20
238.99999999999966
10
936.32500000000027
20
238.99999999999966
0
LWPOLYLINE
5
325
100
AcDbEntity
8
0
100
AcDbPolyline
90
4
70
1
43
0.0
10
944.40000000000032
20
256.99999999999972
10
940.4000000000002
20
256.99999999999972
10
940.4000000000002
20
262.99999999999972
10
944.40000000000032
20
262.99999999999966
0
LWPOLYLINE
5
326
100
AcDbEntity
8
0
100
AcDbPolyline
90
4
70
1
43
0.0
10
920.1750000000003
20
256.99999999999972
10
916.17500000000041
20
256.99999999999972
10
916.17500000000041
20
262.99999999999972
10
920.1750000000003
20
262.99999999999966
0
LWPOLYLINE
5
327
100
AcDbEntity
8
0
100
AcDbPolyline
90
4
70
1
43
0.0
10
908.10000000000036
20
268.99999999999972
10
904.10000000000025
20
268.99999999999972
10
904.10000000000025
20
274.99999999999972
10
908.10000000000036
20
274.99999999999966
0
LWPOLYLINE
5
328
100
AcDbEntity
8
0
100
AcDbPolyline
90
4
70
1
43
0.0
10
912.1750000000003
20
226.99999999999963
10
916.17500000000041
20
226.99999999999963
10
916.17500000000041
20
220.99999999999963
10
912.1750000000003
20
220.99999999999966
0
LWPOLYLINE
5
329
100
AcDbEntity
8
0
100
AcDbPolyline
90
4
70
1
43
0.0
10
1037.3000000000004
20
244.99999999999969
10
1033.3000000000002
20
244.99999999999969
10
1033.3000000000002
20
250.99999999999969
10
1037.3000000000004
20
250.99999999999969
0
LWPOLYLINE
5
330
100
AcDbEntity
8
0
100
AcDbPolyline
90
4
70
1
43
0.0
10
1009.0000000000003
20
304.99999999999972
10
1005.0000000000002
20
304.99999999999972
10
1005.0000000000002
20
310.99999999999972
10
1009.0000000000003
20
310.99999999999977
0
LWPOLYLINE
5
331
100
AcDbEntity
8
0
100
AcDbPolyline
90
4
70
1
43
0.0
10
1025.1500000000003
20
256.99999999999972
10
1021.1500000000003
20
256.99999999999972
10
1021.1500000000003
20
262.99999999999972
10
1025.1500000000003
20
262.99999999999966
0
LWPOLYLINE
5
332
100
AcDbEntity
8
0
100
AcDbPolyline
90
4
70
1
43
0.0
10
883.87500000000034
20
268.99999999999972
10
879.87500000000045
20
268.99999999999972
10
879.87500000000045
20
274.99999999999972
10
883.87500000000034
20
274.99999999999966
0
LWPOLYLINE
5
333
100
AcDbEntity
8
0
100
AcDbPolyline
90
4
70
1
43
0.0
10
964.62500000000034
20
316.99999999999977
10
960.62500000000023
20
316.99999999999977
10
960.62500000000023
20
322.99999999999977
10
964.62500000000034
20
322.99999999999977
0
LWPOLYLINE
5
334
100
AcDbEntity
8
0
100
AcDbPolyline
90
4
70
1
43
0.0
10
1021.1500000000003
20
316.99999999999977
10
1017.1500000000003
20
316.99999999999977
10
1017.1500000000003
20
322.99999999999977
10
1021.1500000000003
20
322.99999999999977
0
LWPOLYLINE
5
335
100
AcDbEntity
8
0
100
AcDbPolyline
90
4
70
1
43
0.0
10
988.85000000000036
20
292.99999999999966
10
984.85000000000025
20
292.99999999999966
10
984.85000000000025
20
298.99999999999972
10
988.85000000000036
20
298.99999999999972
0
LWPOLYLINE
5
336
100
AcDbEntity
8
0
100
AcDbPolyline
90
4
70
1
43
0.0
10
1045.3750000000002
20
292.99999999999966
10
1041.3750000000002
20
292.99999999999966
10
1041.3750000000002
20
298.99999999999972
10
1045.3750000000002
20
298.99999999999972
0
LWPOLYLINE
5
337
100
AcDbEntity
8
0
100
AcDbPolyline
90
4
70
1
43
0.0
10
851.57500000000027
20
268.99999999999972
10
847.57500000000027
20
268.99999999999972
10
847.57500000000027
20
274.99999999999972
10
851.57500000000027
20
274.99999999999966
0
LWPOLYLINE
5
338
100
AcDbEntity
8
0
100
AcDbPolyline
90
4
70
1
43
0.0
10
976.70000000000027
20
256.99999999999972
10
972.70000000000027
20
256.99999999999972
10
972.70000000000027
20
262.99999999999972
10
976.70000000000027
20
262.99999999999966
0
LWPOLYLINE
5
339
100
AcDbEntity
8
0
100
AcDbPolyline
90
4
70
1
43
0.0
10
867.72500000000036
20
268.99999999999972
10
863.72500000000036
20
268.99999999999972
10
863.72500000000036
20
274.99999999999972
10
867.72500000000036
20
274.99999999999966
0
LWPOLYLINE
5
340
100
AcDbEntity
8
0
100
AcDbPolyline
90
4
70
1
43
0.0
10
988.85000000000036
20
268.99999999999972
10
984.85000000000025
20
268.99999999999972
10
984.85000000000025
20
274.99999999999972
10
988.85000000000036
20
274.99999999999966
0
LWPOLYLINE
5
341
100
AcDbEntity
8
0
100
AcDbPolyline
90
4
70
1
43
0.0
10
855.65000000000032
20
226.99999999999963
10
859.65000000000032
20
226.99999999999963
10
859.65000000000032
20
220.99999999999963
10
855.65000000000032
20
220.99999999999966
0
LWPOLYLINE
5
342
100
AcDbEntity
8
0
100
AcDbPolyline
90
4
70
1
43
0.0
10
980.77500000000032
20
292.99999999999966
10
976.77500000000032
20
292.99999999999966
10
976.77500000000032
20
298.99999999999972
10
980.77500000000032
20
298.99999999999972
0
LWPOLYLINE
5
343
100
AcDbEntity
8
0
100
AcDbPolyline
90
4
70
1
43
0.0
10
1029.2250000000004
20
316.99999999999977
10
1025.2250000000004
20
316.99999999999977
10
1025.2250000000004
20
322.99999999999977
10
1029.2250000000004
20
322.99999999999977
0
LWPOLYLINE
5
344
100
AcDbEntity
8
0
100
AcDbPolyline
90
4
70
1
43
0.0
10
1029.2250000000004
20
268.99999999999972
10
1025.2250000000004
20
268.99999999999972
10
1025.2250000000004
20
274.99999999999972
10
1029.2250000000004
20
274.99999999999966
0
LWPOLYLINE
5
345
100
AcDbEntity
8
0
100
AcDbPolyline
90
4
70
1
43
0.0
10
1041.3000000000002
20
232.99999999999966
10
1037.3000000000004
20
232.99999999999966
10
1037.3000000000004
20
238.99999999999966
10
1041.3000000000002
20
238.99999999999966
0
LWPOLYLINE
5
346
100
AcDbEntity
8
0
100
AcDbPolyline
90
4
70
1
43
0.0
10
859.65000000000032
20
244.99999999999969
10
855.65000000000032
20
244.99999999999969
10
855.65000000000032
20
250.99999999999969
10
859.65000000000032
20
250.99999999999969
0
LWPOLYLINE
5
347
100
AcDbEntity
8
0
100
AcDbPolyline
90
4
70
1
43
0.0
10
1005.0000000000002
20
316.99999999999977
10
1001.0000000000002
20
316.99999999999977
10
1001.0000000000002
20
322.99999999999977
10
1005.0000000000002
20
322.99999999999977
0
LWPOLYLINE
5
348
100
AcDbEntity
8
0
100
AcDbPolyline
90
4
70
1
43
0.0
10
972.70000000000027
20
292.99999999999966
10
968.70000000000027
20
292.99999999999966
10
968.70000000000027
20
298.99999999999972
10
972.70000000000027
20
298.99999999999972
0
LWPOLYLINE
5
349
100
AcDbEntity
8
0
100
AcDbPolyline
90
4
70
1
43
0.0
10
843.50000000000023
20
268.99999999999972
10
839.50000000000034
20
268.99999999999972
10
839.50000000000034
20
274.99999999999972
10
843.50000000000023
20
274.99999999999966
0
LWPOLYLINE
5
350
100
AcDbEntity
8
0
100
AcDbPolyline
90
4
70
1
43
0.0
10
968.70000000000027
20
226.99999999999963
10
972.70000000000027
20
226.99999999999963
10
972.70000000000027
20
220.99999999999963
10
968.70000000000027
20
220.99999999999966
0
LWPOLYLINE
5
351
100
AcDbEntity
8
0
100
AcDbPolyline
90
4
70
1
43
0.0
10
1021.1500000000003
20
244.99999999999969
10
1017.1500000000003
20
244.99999999999969
10
1017.1500000000003
20
250.99999999999969
10
1021.1500000000003
20
250.99999999999969
0
LWPOLYLINE
5
352
100
AcDbEntity
8
0
100
AcDbPolyline
90
4
70
1
43
0.0
10
871.80000000000041
20
226.99999999999963
10
875.8000000000003
20
226.99999999999963
10
875.8000000000003
20
220.99999999999963
10
871.80000000000041
20
220.99999999999966
0
LWPOLYLINE
5
353
100
AcDbEntity
8
0
100
AcDbPolyline
90
4
70
1
43
0.0
10
1049.3750000000002
20
304.99999999999972
10
1045.3750000000002
20
304.99999999999972
10
1045.3750000000002
20
310.99999999999972
10
1049.3750000000002
20
310.99999999999977
0
LWPOLYLINE
5
354
100
AcDbEntity
8
0
100
AcDbPolyline
90
4
70
1
43
0.0
10
1000.9250000000003
20
232.99999999999966
10
996.92500000000018
20
232.99999999999966
10
996.92500000000018
20
238.99999999999966
10
1000.9250000000003
20
238.99999999999966
0
LWPOLYLINE
5
355
100
AcDbEntity
8
0
100
AcDbPolyline
90
4
70
1
43
0.0
10
984.7750000000002
20
280.99999999999972
10
980.77500000000032
20
280.99999999999972
10
980.77500000000032
20
286.99999999999972
10
984.7750000000002
20
286.99999999999972
0
LWPOLYLINE
5
356
100
AcDbEntity
8
0
100
AcDbPolyline
90
4
70
1
43
0.0
10
887.87500000000023
20
256.99999999999972
10
883.87500000000034
20
256.99999999999972
10
883.87500000000034
20
262.99999999999972
10
887.87500000000023
20
262.99999999999966
0
LWPOLYLINE
5
357
100
AcDbEntity
8
0
100
AcDbPolyline
90
4
70
1
43
0.0
10
1037.3000000000004
20
268.99999999999972
10
1033.3000000000002
20
268.99999999999972
10
1033.3000000000002
20
274.99999999999972
10
1037.3000000000004
20
274.99999999999966
0
LWPOLYLINE
5
358
100
AcDbEntity
8
0
100
AcDbPolyline
90
4
70
1
43
0.0
10
976.70000000000027
20
280.99999999999972
10
972.70000000000027
20
280.99999999999972
10
972.70000000000027
20
286.99999999999972
10
976.70000000000027
20
286.99999999999972
0
LWPOLYLINE
5
359
100
AcDbEntity
8
0
100
AcDbPolyline
90
4
70
1
43
0.0
10
1057.4500000000003
20
280.99999999999972
10
1053.4500000000003
20
280.99999999999972
10
1053.4500000000003
20
286.99999999999972
10
1057.4500000000003
20
286.99999999999972
0
LWPOLYLINE
5
360
100
AcDbEntity
8
0
100
AcDbPolyline
90
4
70
1
43
0.0
10
1033.2250000000004
20
232.99999999999966
10
1029.2250000000004
20
232.99999999999966
10
1029.2250000000004
20
238.99999999999966
10
1033.2250000000004
20
238.99999999999966
0
LWPOLYLINE
5
361
100
AcDbEntity
8
0
100
AcDbPolyline
90
4
70
1
43
0.0
10
1037.3000000000004
20
292.99999999999966
10
1033.3000000000002
20
292.99999999999966
10
1033.3000000000002
20
298.99999999999972
10
1037.3000000000004
20
298.99999999999972
0
LWPOLYLINE
5
362
100
AcDbEntity
8
0
100
AcDbPolyline
90
4
70
1
43
0.0
10
1033.3000000000002
20
226.99999999999963
10
1037.3000000000004
20
226.99999999999963
10
1037.3000000000004
20
220.99999999999963
10
1033.3000000000002
20
220.99999999999966
0
LWPOLYLINE
5
363
100
AcDbEntity
8
0
100
AcDbPolyline
90
4
70
1
43
0.0
10
895.95000000000027
20
256.99999999999972
10
891.95000000000027
20
256.99999999999972
10
891.95000000000027
20
262.99999999999972
10
895.95000000000027
20
262.99999999999966
0
LWPOLYLINE
5
364
100
AcDbEntity
8
0
100
AcDbPolyline
90
4
70
1
43
0.0
10
1025.1500000000003
20
232.99999999999966
10
1021.1500000000003
20
232.99999999999966
10
1021.1500000000003
20
238.99999999999966
10
1025.1500000000003
20
238.99999999999966
0
LWPOLYLINE
5
365
100
AcDbEntity
8
0
100
AcDbPolyline
90
4
70
1
43
0.0
10
996.92500000000018
20
244.99999999999969
10
992.9250000000003
20
244.99999999999969
10
992.9250000000003
20
250.99999999999969
10
996.92500000000018
20
250.99999999999969
0
LWPOLYLINE
5
366
100
AcDbEntity
8
0
100
AcDbPolyline
90
4
70
1
43
0.0
10
972.70000000000027
20
244.99999999999969
10
968.70000000000027
20
244.99999999999969
10
968.70000000000027
20
250.99999999999969
10
972.70000000000027
20
250.99999999999969
0
LWPOLYLINE
5
367
100
AcDbEntity
8
0
100
AcDbPolyline
90
4
70
1
43
0.0
10
1033.2250000000004
20
304.99999999999972
10
1029.2250000000004
20
304.99999999999972
10
1029.2250000000004
20
310.99999999999972
10
1033.2250000000004
20
310.99999999999977
0
LWPOLYLINE
5
368
100
AcDbEntity
8
0
100
AcDbPolyline
90
4
70
1
43
0.0
10
875.8000000000003
20
268.99999999999972
10
871.80000000000041
20
268.99999999999972
10
871.80000000000041
20
274.99999999999972
10
875.8000000000003
20
274.99999999999966
0
LWPOLYLINE
5
369
100
AcDbEntity
8
0
100
AcDbPolyline
90
4
70
1
43
0.0
10
863.72500000000036
20
226.99999999999963
10
867.72500000000036
20
226.99999999999963
10
867.72500000000036
20
220.99999999999963
10
863.72500000000036
20
220.99999999999966
0
LWPOLYLINE
5
370
100
AcDbEntity
8
0
100
AcDbPolyline
90
4
70
1
43
0.0
10
996.92500000000018
20
292.99999999999966
10
992.9250000000003
20
292.99999999999966
10
992.9250000000003
20
298.99999999999972
10
996.92500000000018
20
298.99999999999972
0
LWPOLYLINE
5
371
100
AcDbEntity
8
0
100
AcDbPolyline
90
4
70
1
43
0.0
10
1021.1500000000003
20
292.99999999999966
10
1017.1500000000003
20
292.99999999999966
10
1017.1500000000003
20
298.99999999999972
10
1021.1500000000003
20
298.99999999999972
0
LWPOLYLINE
5
372
100
AcDbEntity
8
0
100
AcDbPolyline
90
4
70
1
43
0.0
10
1045.3750000000002
20
316.99999999999977
10
1041.3750000000002
20
316.99999999999977
10
1041.3750000000002
20
322.99999999999977
10
1045.3750000000002
20
322.99999999999977
0
LWPOLYLINE
5
373
100
AcDbEntity
8
0
100
AcDbPolyline
90
4
70
1
43
0.0
10
1017.0750000000003
20
232.99999999999966
10
1013.0750000000003
20
232.99999999999966
10
1013.0750000000003
20
238.99999999999966
10
1017.0750000000003
20
238.99999999999966
0
LWPOLYLINE
5
374
100
AcDbEntity
8
0
100
AcDbPolyline
90
4
70
1
43
0.0
10
1041.3000000000002
20
280.99999999999972
10
1037.3000000000004
20
280.99999999999972
10
1037.3000000000004
20
286.99999999999972
10
1041.3000000000002
20
286.99999999999972
0
LWPOLYLINE
5
375
100
AcDbEntity
8
0
100
AcDbPolyline
90
4
70
1
43
0.0
10
992.85000000000025
20
256.99999999999972
10
988.85000000000036
20
256.99999999999972
10
988.85000000000036
20
262.99999999999972
10
992.85000000000025
20
262.99999999999966
0
LWPOLYLINE
5
376
100
AcDbEntity
8
0
100
AcDbPolyline
90
4
70
1
43
0.0
10
1017.0750000000003
20
304.99999999999972
10
1013.0750000000003
20
304.99999999999972
10
1013.0750000000003
20
310.99999999999972
10
1017.0750000000003
20
310.99999999999977
0
LWPOLYLINE
5
377
100
AcDbEntity
8
0
100
AcDbPolyline
90
4
70
1
43
0.0
10
855.57500000000027
20
256.99999999999972
10
851.57500000000027
20
256.99999999999972
10
851.57500000000027
20
262.99999999999972
10
855.57500000000027
20
262.99999999999966
0
LWPOLYLINE
5
378
100
AcDbEntity
8
0
100
AcDbPolyline
90
4
70
1
43
0.0
10
984.7750000000002
20
256.99999999999972
10
980.77500000000032
20
256.99999999999972
10
980.77500000000032
20
262.99999999999972
10
984.7750000000002
20
262.99999999999966
0
LWPOLYLINE
5
379
100
AcDbEntity
8
0
100
AcDbPolyline
90
4
70
1
43
0.0
10
1029.2250000000004
20
292.99999999999966
10
1025.2250000000004
20
292.99999999999966
10
1025.2250000000004
20
298.99999999999972
10
1029.2250000000004
20
298.99999999999972
0
LWPOLYLINE
5
380
100
AcDbEntity
8
0
100
AcDbPolyline
90
4
70
1
43
0.0
10
932.32500000000027
20
316.99999999999977
10
928.32500000000039
20
316.99999999999977
10
928.32500000000039
20
322.99999999999977
10
932.32500000000027
20
322.99999999999977
0
LWPOLYLINE
5
381
100
AcDbEntity
8
0
100
AcDbPolyline
90
4
70
1
43
0.0
10
1037.3000000000004
20
316.99999999999977
10
1033.3000000000002
20
316.99999999999977
10
1033.3000000000002
20
322.99999999999977
10
1037.3000000000004
20
322.99999999999977
0
LWPOLYLINE
5
382
100
AcDbEntity
8
0
100
AcDbPolyline
90
4
70
1
43
0.0
10
924.25000000000023
20
316.99999999999977
10
920.25000000000034
20
316.99999999999977
10
920.25000000000034
20
322.99999999999977
10
924.25000000000023
20
322.99999999999977
0
LWPOLYLINE
5
383
100
AcDbEntity
8
0
100
AcDbPolyline
90
4
70
1
43
0.0
10
1053.4500000000003
20
316.99999999999977
10
1049.4500000000003
20
316.99999999999977
10
1049.4500000000003
20
322.99999999999977
10
1053.4500000000003
20
322.99999999999977
0
LWPOLYLINE
5
384
100
AcDbEntity
8
0
100
AcDbPolyline
90
4
70
1
43
0.0
10
952.47500000000036
20
280.99999999999972
10
948.47500000000025
20
280.99999999999972
10
948.47500000000025
20
286.99999999999972
10
952.47500000000036
20
286.99999999999972
0
LWPOLYLINE
5
385
100
AcDbEntity
8
0
100
AcDbPolyline
90
4
70
1
43
0.0
10
847.57500000000027
20
226.99999999999963
10
851.57500000000027
20
226.99999999999963
10
851.57500000000027
20
220.99999999999963
10
847.57500000000027
20
220.99999999999966
0
LWPOLYLINE
5
386
100
AcDbEntity
8
0
100
AcDbPolyline
90
4
70
1
43
0.0
10
1049.3750000000002
20
280.99999999999972
10
1045.3750000000002
20
280.99999999999972
10
1045.3750000000002
20
286.99999999999972
10
1049.3750000000002
20
286.99999999999972
0
LWPOLYLINE
5
387
100
AcDbEntity
8
0
100
AcDbPolyline
90
4
70
1
43
0.0
10
859.65000000000032
20
268.99999999999972
10
855.65000000000032
20
268.99999999999972
10
855.65000000000032
20
274.99999999999972
10
859.65000000000032
20
274.99999999999966
0
LWPOLYLINE
5
388
100
AcDbEntity
8
0
100
AcDbPolyline
90
4
70
1
43
0.0
10
928.25000000000034
20
232.99999999999966
10
924.25000000000023
20
232.99999999999966
10
924.25000000000023
20
238.99999999999966
10
928.25000000000034
20
238.99999999999966
0
LWPOLYLINE
5
389
100
AcDbEntity
8
0
100
AcDbPolyline
90
4
70
1
43
0.0
10
916.17500000000041
20
316.99999999999977
10
912.1750000000003
20
316.99999999999977
10
912.1750000000003
20
322.99999999999977
10
916.17500000000041
20
322.99999999999977
0
LWPOLYLINE
5
390
100
AcDbEntity
8
0
100
AcDbPolyline
90
4
70
1
43
0.0
10
1053.4500000000003
20
292.99999999999966
10
1049.4500000000003
20
292.99999999999966
10
1049.4500000000003
20
298.99999999999972
10
1053.4500000000003
20
298.99999999999972
0
LWPOLYLINE
5
391
100
AcDbEntity
8
0
100
AcDbPolyline
90
4
70
1
43
0.0
10
908.10000000000036
20
292.99999999999966
10
904.10000000000025
20
292.99999999999966
10
904.10000000000025
20
298.99999999999972
10
908.10000000000036
20
298.99999999999972
0
LWPOLYLINE
5
392
100
AcDbEntity
8
0
100
AcDbPolyline
90
4
70
1
43
0.0
10
928.25000000000034
20
304.99999999999972
10
924.25000000000023
20
304.99999999999972
10
924.25000000000023
20
310.99999999999972
10
928.25000000000034
20
310.99999999999977
0
LWPOLYLINE
5
393
100
AcDbEntity
8
0
100
AcDbPolyline
90
4
70
1
43
0.0
10
912.10000000000036
20
256.99999999999972
10
908.10000000000036
20
256.99999999999972
10
908.10000000000036
20
262.99999999999972
10
912.10000000000036
20
262.99999999999966
0
LWPOLYLINE
5
394
100
AcDbEntity
8
0
100
AcDbPolyline
90
4
70
1
43
0.0
10
952.47500000000036
20
304.99999999999972
10
948.47500000000025
20
304.99999999999972
10
948.47500000000025
20
310.99999999999972
10
952.47500000000036
20
310.99999999999977
0
LWPOLYLINE
5
395
100
AcDbEntity
8
0
100
AcDbPolyline
90
4
70
1
43
0.0
10
944.47500000000036
20
226.99999999999963
10
948.47500000000025
20
226.99999999999963
10
948.47500000000025
20
220.99999999999963
10
944.47500000000036
20
220.99999999999966
0
LWPOLYLINE
5
396
100
AcDbEntity
8
0
100
AcDbPolyline
90
4
70
1
43
0.0
10
904.02500000000032
20
232.99999999999966
10
900.02500000000032
20
232.99999999999966
10
900.02500000000032
20
238.99999999999966
10
904.02500000000032
20
238.99999999999966
0
LWPOLYLINE
5
397
100
AcDbEntity
8
0
100
AcDbPolyline
90
4
70
1
43
0.0
10
1033.2250000000004
20
280.99999999999972
10
1029.2250000000004
20
280.99999999999972
10
1029.2250000000004
20
286.99999999999972
10
1033.2250000000004
20
286.99999999999972
0
LWPOLYLINE
5
398
100
AcDbEntity
8
0
100
AcDbPolyline
90
4
70
1
43
0.0
10
1061.5250000000003
20
316.99999999999977
10
1057.5250000000003
20
316.99999999999977
10
1057.5250000000003
20
322.99999999999977
10
1061.5250000000003
20
322.99999999999977
0
LWPOLYLINE
5
399
100
AcDbEntity
8
0
100
AcDbPolyline
90
4
70
1
43
0.0
10
928.25000000000034
20
256.99999999999972
10
924.25000000000023
20
256.99999999999972
10
924.25000000000023
20
262.99999999999972
10
928.25000000000034
20
262.99999999999966
0
LWPOLYLINE
5
400
100
AcDbEntity
8
0
100
AcDbPolyline
90
4
70
1
43
0.0
10
944.40000000000032
20
280.99999999999972
10
940.4000000000002
20
280.99999999999972
10
940.4000000000002
20
286.99999999999972
10
944.40000000000032
20
286.99999999999972
0
LWPOLYLINE
5
401
100
AcDbEntity
8
0
100
AcDbPolyline
90
4
70
1
43
0.0
10
920.1750000000003
20
280.99999999999972
10
916.17500000000041
20
280.99999999999972
10
916.17500000000041
20
286.99999999999972
10
920.1750000000003
20
286.99999999999972
0
LWPOLYLINE
5
402
100
AcDbEntity
8
0
100
AcDbPolyline
90
4
70
1
43
0.0
10
1057.4500000000003
20
304.99999999999972
10
1053.4500000000003
20
304.99999999999972
10
1053.4500000000003
20
310.99999999999972
10
1057.4500000000003
20
310.99999999999977
0
LWPOLYLINE
5
403
100
AcDbEntity
8
0
100
AcDbPolyline
90
4
70
1
43
0.0
10
895.95000000000027
20
232.99999999999966
10
891.95000000000027
20
232.99999999999966
10
891.95000000000027
20
238.99999999999966
10
895.95000000000027
20
238.99999999999966
0
LWPOLYLINE
5
404
100
AcDbEntity
8
0
100
AcDbPolyline
90
4
70
1
43
0.0
10
904.02500000000032
20
304.99999999999972
10
900.02500000000032
20
304.99999999999972
10
900.02500000000032
20
310.99999999999972
10
904.02500000000032
20
310.99999999999977
0
LWPOLYLINE
5
405
100
AcDbEntity
8
0
100
AcDbPolyline
90
4
70
1
43
0.0
10
940.4000000000002
20
316.99999999999977
10
936.40000000000032
20
316.99999999999977
10
936.40000000000032
20
322.99999999999977
10
940.4000000000002
20
322.99999999999977
0
LWPOLYLINE
5
406
100
AcDbEntity
8
0
100
AcDbPolyline
90
4
70
1
43
0.0
10
932.32500000000027
20
268.99999999999972
10
928.32500000000039
20
268.99999999999972
10
928.32500000000039
20
274.99999999999972
10
932.32500000000027
20
274.99999999999966
0
LWPOLYLINE
5
407
100
AcDbEntity
8
0
100
AcDbPolyline
90
4
70
1
43
0.0
10
932.32500000000027
20
292.99999999999966
10
928.32500000000039
20
292.99999999999966
10
928.32500000000039
20
298.99999999999972
10
932.32500000000027
20
298.99999999999972
0
LWPOLYLINE
5
408
100
AcDbEntity
8
0
100
AcDbPolyline
90
4
70
1
43
0.0
10
1061.5250000000003
20
292.99999999999966
10
1057.5250000000003
20
292.99999999999966
10
1057.5250000000003
20
298.99999999999972
10
1061.5250000000003
20
298.99999999999972
0
LWPOLYLINE
5
409
100
AcDbEntity
8
0
100
AcDbPolyline
90
4
70
1
43
0.0
10
916.17500000000041
20
292.99999999999966
10
912.1750000000003
20
292.99999999999966
10
912.1750000000003
20
298.99999999999972
10
916.17500000000041
20
298.99999999999972
0
LWPOLYLINE
5
410
100
AcDbEntity
8
0
100
AcDbPolyline
90
4
70
1
43
0.0
10
847.50000000000023
20
256.99999999999972
10
843.50000000000023
20
256.99999999999972
10
843.50000000000023
20
262.99999999999972
10
847.50000000000023
20
262.99999999999966
0
LWPOLYLINE
5
411
100
AcDbEntity
8
0
100
AcDbPolyline
90
4
70
1
43
0.0
10
976.70000000000027
20
232.99999999999966
10
972.70000000000027
20
232.99999999999966
10
972.70000000000027
20
238.99999999999966
10
976.70000000000027
20
238.99999999999966
0
LWPOLYLINE
5
412
100
AcDbEntity
8
0
100
AcDbPolyline
90
4
70
1
43
0.0
10
879.80000000000018
20
232.99999999999966
10
875.8000000000003
20
232.99999999999966
10
875.8000000000003
20
238.99999999999966
10
879.80000000000018
20
238.99999999999966
0
LWPOLYLINE
5
413
100
AcDbEntity
8
0
100
AcDbPolyline
90
4
70
1
43
0.0
10
1065.5250000000003
20
280.99999999999972
10
1061.5250000000003
20
280.99999999999972
10
1061.5250000000003
20
286.99999999999972
10
1065.5250000000003
20
286.99999999999972
0
LWPOLYLINE
5
414
100
AcDbEntity
8
0
100
AcDbPolyline
90
4
70
1
43
0.0
10
912.10000000000036
20
304.99999999999972
10
908.10000000000036
20
304.99999999999972
10
908.10000000000036
20
310.99999999999972
10
912.10000000000036
20
310.99999999999977
0
LWPOLYLINE
5
415
100
AcDbEntity
8
0
100
AcDbPolyline
90
4
70
1
43
0.0
10
863.65000000000032
20
256.99999999999972
10
859.65000000000032
20
256.99999999999972
10
859.65000000000032
20
262.99999999999972
10
863.65000000000032
20
262.99999999999966
0
LWPOLYLINE
5
416
100
AcDbEntity
8
0
100
AcDbPolyline
90
4
70
1
43
0.0
10
940.4000000000002
20
244.99999999999969
10
936.40000000000032
20
244.99999999999969
10
936.40000000000032
20
250.99999999999969
10
940.4000000000002
20
250.99999999999969
0
LWPOLYLINE
5
417
100
AcDbEntity
8
0
100
AcDbPolyline
90
4
70
1
43
0.0
10
908.10000000000036
20
316.99999999999977
10
904.10000000000025
20
316.99999999999977
10
904.10000000000025
20
322.99999999999977
10
908.10000000000036
20
322.99999999999977
0
LWPOLYLINE
5
418
100
AcDbEntity
8
0
100
AcDbPolyline
90
4
70
1
43
0.0
10
904.02500000000032
20
280.99999999999972
10
900.02500000000032
20
280.99999999999972
10
900.02500000000032
20
286.99999999999972
10
904.02500000000032
20
286.99999999999972
0
LWPOLYLINE
5
419
100
AcDbEntity
8
0
100
AcDbPolyline
90
4
70
1
43
0.0
10
924.25000000000023
20
292.99999999999966
10
920.25000000000034
20
292.99999999999966
10
920.25000000000034
20
298.99999999999972
10
924.25000000000023
20
298.99999999999972
0
LWPOLYLINE
5
420
100
AcDbEntity
8
0
100
AcDbPolyline
90
4
70
1
43
0.0
10
924.25000000000023
20
268.99999999999972
10
920.25000000000034
20
268.99999999999972
10
920.25000000000034
20
274.99999999999972
10
924.25000000000023
20
274.99999999999966
0
LWPOLYLINE
5
421
100
AcDbEntity
8
0
100
AcDbPolyline
90
4
70
1
43
0.0
10
940.4000000000002
20
292.99999999999966
10
936.40000000000032
20
292.99999999999966
10
936.40000000000032
20
298.99999999999972
10
940.4000000000002
20
298.99999999999972
0
LWPOLYLINE
5
422
100
AcDbEntity
8
0
100
AcDbPolyline
90
4
70
1
43
0.0
10
912.10000000000036
20
232.99999999999966
10
908.10000000000036
20
232.99999999999966
10
908.10000000000036
20
238.99999999999966
10
912.10000000000036
20
238.99999999999966
0
LWPOLYLINE
5
423
100
AcDbEntity
8
0
100
AcDbPolyline
90
4
70
1
43
0.0
10
1025.2250000000004
20
226.99999999999963
10
1029.2250000000004
20
226.99999999999963
10
1029.2250000000004
20
220.99999999999963
10
1025.2250000000004
20
220.99999999999966
0
LWPOLYLINE
5
424
100
AcDbEntity
8
0
100
AcDbPolyline
90
4
70
1
43
0.0
10
991.99992180359459
20
16.999999999999336
10
911.9999218035947
20
16.999999999999336
10
911.9999218035947
20
21.999999999999339
10
991.99992180359459
20
21.999999999999336
0
ENDSEC
0
SECTION
2
OBJECTS
0
DICTIONARY
5
C
100
AcDbDictionary
3
ACAD_GROUP
350
D
3
ACAD_MLINESTYLE
350
17
0
DICTIONARY
5
D
100
AcDbDictionary
0
DICTIONARY
5
1A
330
C
100
AcDbDictionary
0
DICTIONARY
5
17
100
AcDbDictionary
0
ENDSEC
0
EOF
