0
SECTION
2
HEADER
9
$INSUNITS
70
4
9
$ACADVER
1
AC1014
9
$HANDSEED
5
FFFF
0
ENDSEC
0
SECTION
2
TABLES
0
TABLE
2
VPORT
5
8
100
AcDbSymbolTable
0
ENDTAB
0
TABLE
2
LTYPE
5
5
100
AcDbSymbolTable
0
LTYPE
5
14
100
AcDbSymbolTableRecord
100
AcDbLinetypeTableRecord
2
BYBLOCK
70
0
0
LTYPE
5
15
100
AcDbSymbolTableRecord
100
AcDbLinetypeTableRecord
2
BYLAYER
70
0
0
LTYPE
5
16
100
AcDbSymbolTableRecord
100
AcDbLinetypeTableRecord
2
DASHED
70
0
3
Dashed __ __ __ __ __ __ __ __ __ __ __ __ __ _
72
65
73
2
40
0.75
49
0.5
74
0
49
-0.25
74
0
0
ENDTAB
0
TABLE
2
LAYER
5
2
100
AcDbSymbolTable
70
2
0
LAYER
5
50
100
AcDbSymbolTableRecord
100
AcDbLayerTableRecord
2
0
70
0
62
7
6
CONTINUOUS
0
ENDTAB
0
TABLE
2
STYLE
5
3
100
AcDbSymbolTable
70
1
0
STYLE
5
11
100
AcDbSymbolTableRecord
100
AcDbTextStyleTableRecord
2
STANDARD
70
0
0
ENDTAB
0
TABLE
2
VIEW
5
6
100
AcDbSymbolTable
70
0
0
ENDTAB
0
TABLE
2
UCS
5
7
100
AcDbSymbolTable
70
0
0
ENDTAB
0
TABLE
2
APPID
5
9
100
AcDbSymbolTable
70
2
0
APPID
5
12
100
AcDbSymbolTableRecord
100
AcDbRegAppTableRecord
2
ACAD
70
0
0
ENDTAB
0
TABLE
2
DIMSTYLE
5
A
100
AcDbSymbolTable
70
1
0
ENDTAB
0
TABLE
2
BLOCK_RECORD
5
1
100
AcDbSymbolTable
70
1
0
BLOCK_RECORD
5
1F
100
AcDbSymbolTableRecord
100
AcDbBlockTableRecord
2
*MODEL_SPACE
0
BLOCK_RECORD
5
1B
100
AcDbSymbolTableRecord
100
AcDbBlockTableRecord
2
*PAPER_SPACE
0
ENDTAB
0
ENDSEC
0
SECTION
2
BLOCKS
0
BLOCK
5
20
100
AcDbEntity
100
AcDbBlockBegin
2
*MODEL_SPACE
0
ENDBLK
5
21
100
AcDbEntity
100
AcDbBlockEnd
0
BLOCK
5
1C
100
AcDbEntity
100
AcDbBlockBegin
2
*PAPER_SPACE
0
ENDBLK
5
1D
100
AcDbEntity
100
AcDbBlockEnd
0
ENDSEC
0
SECTION
2
ENTITIES
0
POINT
5
100
100
AcDbEntity
8
0
100
AcDbPoint
10
439.12471171536379
20
287.20390000000003
30
0
0
LWPOLYLINE
5
101
100
AcDbEntity
8
0
100
AcDbPolyline
90
79
70
1
43
0.0
10
340.00400000000002
20
291.20370000000003
10
344.00310000000002
20
291.20370000000003
10
344.00310000000002
20
283.20410000000004
10
340.00400000000002
20
283.20410000000004
10
340.00400000000002
20
268.80340000000001
10
340.00400000000002
20
264.8032
10
344.00310000000002
20
264.8032
10
359.404
20
264.8032
10
359.404
20
268.80340000000001
10
367.40369999999996
20
268.80340000000001
10
367.40369999999996
20
264.8032
10
375.40289999999999
20
264.8032
10
375.40289999999999
20
268.80340000000001
10
383.40390000000002
20
268.80340000000001
10
383.40390000000002
20
264.8032
10
391.40350000000001
20
264.8032
10
391.40350000000001
20
268.80340000000001
10
399.40309999999999
20
268.80340000000001
10
399.40309999999999
20
264.8032
10
407.40369999999996
20
264.8032
10
407.40369999999996
20
268.80340000000001
10
415.40329999999994
20
268.80340000000001
10
415.40329999999994
20
264.8032
10
423.40429999999998
20
264.8032
10
423.40429999999998
20
268.80340000000001
10
431.40359999999998
20
268.80340000000001
10
431.40359999999998
20
264.8032
10
446.80360000000002
20
264.8032
10
450.80359999999996
20
264.8032
10
450.80359999999996
20
268.80340000000001
10
450.80359999999996
20
283.20410000000004
10
446.80360000000002
20
283.20410000000004
10
446.80360000000002
20
291.20370000000003
10
450.80359999999996
20
291.20370000000003
10
450.80359999999996
20
305.60360000000003
10
446.80360000000002
20
305.60360000000003
10
415.96280000000002
20
305.60360000000003
10
415.76850000000002
20
305.26760000000002
10
415.1388
20
304.28159999999997
10
414.23349999999999
20
303.01760000000002
10
413.24960000000004
20
301.8186
10
412.19130000000001
20
300.6866
10
411.05989999999997
20
299.62880000000001
10
409.86080000000004
20
298.64339999999999
10
408.59719999999993
20
297.73820000000001
10
407.6105
20
297.10990000000004
10
407.27429999999998
20
296.91410000000002
10
406.93669999999997
20
296.71969999999999
10
405.89769999999999
20
296.17960000000005
10
404.48239999999998
20
295.53899999999999
10
403.02999999999997
20
294.9932
10
401.54730000000001
20
294.54239999999999
10
400.03809999999999
20
294.19100000000003
10
398.50880000000006
20
293.93770000000006
10
396.96120000000002
20
293.786
10
395.79239999999999
20
293.73350000000005
10
395.40400000000005
20
293.73350000000005
10
395.01379999999995
20
293.73350000000005
10
393.84540000000004
20
293.786
10
392.29780000000005
20
293.93770000000006
10
390.76819999999998
20
294.19100000000003
10
389.2593
20
294.54239999999999
10
387.77659999999997
20
294.9932
10
386.32389999999998
20
295.53899999999999
10
384.90890000000002
20
296.17960000000005
10
383.86959999999999
20
296.71969999999999
10
383.53340000000003
20
296.91410000000002
10
383.19580000000002
20
297.10990000000004
10
382.20910000000003
20
297.73820000000001
10
380.94540000000001
20
298.64339999999999
10
379.74670000000003
20
299.62880000000001
10
378.61530000000005
20
300.6866
10
377.55700000000002
20
301.8186
10
376.57170000000002
20
303.01760000000002
10
375.66650000000004
20
304.28159999999997
10
375.0378
20
305.26760000000002
10
374.84340000000003
20
305.60360000000003
10
344.00310000000002
20
305.60360000000003
10
340.00400000000002
20
305.60360000000003
0
LWPOLYLINE
5
102
100
AcDbEntity
8
0
100
AcDbPolyline
90
42
70
1
43
0.0
10
257.40360000000004
20
201.6046
10
265.40260000000001
20
201.6046
10
265.40260000000001
20
197.60359999999997
10
273.40359999999998
20
197.60359999999997
10
273.40359999999998
20
201.6046
10
281.40359999999998
20
201.6046
10
281.40359999999998
20
197.60359999999997
10
290.80260000000004
20
197.60359999999997
10
290.80260000000004
20
201.6046
10
290.80260000000004
20
217.00360000000003
10
294.80360000000007
20
217.00360000000003
10
294.80360000000007
20
225.00360000000001
10
290.80260000000004
20
225.00360000000001
10
290.80260000000004
20
233.00360000000001
10
294.80360000000007
20
233.00360000000001
10
294.80360000000007
20
241.00360000000001
10
290.80260000000004
20
241.00360000000001
10
290.80260000000004
20
249.00460000000004
10
294.80360000000007
20
249.00460000000004
10
294.80360000000007
20
257.00360000000001
10
290.80260000000004
20
257.00360000000001
10
290.80260000000004
20
265.00360000000001
10
294.80360000000007
20
265.00360000000001
10
294.80360000000007
20
273.00260000000003
10
290.80260000000004
20
273.00260000000003
10
290.80260000000004
20
281.00360000000001
10
294.80360000000007
20
281.00360000000001
10
294.80360000000007
20
289.00360000000001
10
290.80260000000004
20
289.00360000000001
10
290.80260000000004
20
304.40260000000001
10
290.80260000000004
20
308.40360000000004
10
281.40359999999998
20
308.40360000000004
10
281.40359999999998
20
304.40260000000001
10
273.40359999999998
20
304.40260000000001
10
273.40359999999998
20
308.40360000000004
10
265.40260000000001
20
308.40360000000004
10
265.40260000000001
20
304.40260000000001
10
257.40360000000004
20
304.40260000000001
10
257.40360000000004
20
308.40360000000004
10
100.004
20
308.40360000000004
10
100.004
20
197.60359999999997
10
257.40360000000004
20
197.60359999999997
0
LWPOLYLINE
5
103
100
AcDbEntity
8
0
100
AcDbPolyline
90
15
70
1
43
0.0
10
324.20459999999997
20
222.00400000000002
10
324.20459999999997
20
226.00300000000001
10
333.60360000000003
20
226.00300000000001
10
333.60360000000003
20
240.40370000000001
10
337.60260000000005
20
240.40370000000001
10
337.60260000000005
20
248.40289999999999
10
333.60360000000003
20
248.40289999999999
10
333.60360000000003
20
262.80369999999999
10
296.80290000000002
20
226.00300000000001
10
300.20460000000003
20
226.00300000000001
10
300.20460000000003
20
222.00400000000002
10
308.20359999999999
20
222.00400000000002
10
308.20359999999999
20
226.00300000000001
10
316.20360000000005
20
226.00300000000001
10
316.20360000000005
20
222.00400000000002
0
LWPOLYLINE
5
104
100
AcDbEntity
8
0
100
AcDbPolyline
90
15
70
1
43
0.0
10
296.80340000000001
20
268.80340000000001
10
300.20460000000003
20
268.80340000000001
10
300.20460000000003
20
264.8032
10
308.20359999999999
20
264.8032
10
308.20359999999999
20
268.80340000000001
10
316.20360000000005
20
268.80340000000001
10
316.20360000000005
20
264.8032
10
324.20459999999997
20
264.8032
10
324.20459999999997
20
268.80340000000001
10
333.60360000000003
20
268.80340000000001
10
333.60360000000003
20
283.20410000000004
10
337.60260000000005
20
283.20410000000004
10
337.60260000000005
20
291.20370000000003
10
333.60360000000003
20
291.20370000000003
10
333.60360000000003
20
305.60360000000003
0
LWPOLYLINE
5
105
100
AcDbEntity
8
0
100
AcDbPolyline
90
122
70
1
43
0.0
10
178.00370000000001
20
310.40460000000002
10
178.00370000000001
20
314.40360000000004
10
186.0033
20
314.40360000000004
10
186.0033
20
310.40460000000002
10
194.00460000000004
20
310.40460000000002
10
194.00460000000004
20
314.40360000000004
10
202.00360000000003
20
314.40360000000004
10
202.00360000000003
20
310.40460000000002
10
210.0026
20
310.40460000000002
10
210.0026
20
314.40360000000004
10
218.00360000000001
20
314.40360000000004
10
218.00360000000001
20
310.40460000000002
10
226.00360000000001
20
310.40460000000002
10
226.00360000000001
20
314.40360000000004
10
234.00360000000001
20
314.40360000000004
10
234.00360000000001
20
310.40460000000002
10
242.00360000000003
20
310.40460000000002
10
242.00360000000003
20
314.40360000000004
10
250.00360000000001
20
314.40360000000004
10
250.00360000000001
20
310.40460000000002
10
258.00260000000003
20
310.40460000000002
10
258.00260000000003
20
314.40360000000004
10
266.00360000000001
20
314.40360000000004
10
266.00360000000001
20
310.40460000000002
10
274.00360000000001
20
310.40460000000002
10
274.00360000000001
20
314.40360000000004
10
282.00459999999998
20
314.40360000000004
10
282.00459999999998
20
310.40460000000002
10
296.00360000000001
20
310.40460000000002
10
300.00360000000001
20
310.40460000000002
10
300.00360000000001
20
314.40360000000004
10
300.00360000000001
20
326.40359999999998
10
296.00360000000001
20
326.40359999999998
10
296.00360000000001
20
334.40260000000001
10
300.00360000000001
20
334.40260000000001
10
300.00360000000001
20
342.40360000000004
10
296.00360000000001
20
342.40360000000004
10
296.00360000000001
20
350.40359999999998
10
300.00360000000001
20
350.40359999999998
10
300.00360000000001
20
358.40360000000004
10
296.00360000000001
20
358.40360000000004
10
296.00360000000001
20
366.40359999999998
10
300.00360000000001
20
366.40359999999998
10
300.00360000000001
20
374.40359999999998
10
296.00360000000001
20
374.40359999999998
10
296.00360000000001
20
382.40459999999996
10
300.00360000000001
20
382.40459999999996
10
300.00360000000001
20
390.40359999999998
10
296.00360000000001
20
390.40359999999998
10
296.00360000000001
20
398.40260000000001
10
300.00360000000001
20
398.40260000000001
10
300.00360000000001
20
406.40359999999998
10
296.00360000000001
20
406.40359999999998
10
296.00360000000001
20
414.40359999999998
10
300.00360000000001
20
414.40359999999998
10
300.00360000000001
20
426.40359999999998
10
300.00360000000001
20
430.40359999999998
10
296.00360000000001
20
430.40359999999998
10
282.00459999999998
20
430.40359999999998
10
282.00459999999998
20
426.40359999999998
10
274.00360000000001
20
426.40359999999998
10
274.00360000000001
20
430.40359999999998
10
266.00360000000001
20
430.40359999999998
10
266.00360000000001
20
426.40359999999998
10
258.00260000000003
20
426.40359999999998
10
258.00260000000003
20
430.40359999999998
10
250.00360000000001
20
430.40359999999998
10
250.00360000000001
20
426.40359999999998
10
242.00360000000003
20
426.40359999999998
10
242.00360000000003
20
430.40359999999998
10
234.00360000000001
20
430.40359999999998
10
234.00360000000001
20
426.40359999999998
10
226.00360000000001
20
426.40359999999998
10
226.00360000000001
20
430.40359999999998
10
218.00360000000001
20
430.40359999999998
10
218.00360000000001
20
426.40359999999998
10
210.0026
20
426.40359999999998
10
210.0026
20
430.40359999999998
10
202.00360000000003
20
430.40359999999998
10
202.00360000000003
20
426.40359999999998
10
194.00460000000004
20
426.40359999999998
10
194.00460000000004
20
430.40359999999998
10
186.0033
20
430.40359999999998
10
186.0033
20
426.40359999999998
10
178.00370000000001
20
426.40359999999998
10
178.00370000000001
20
430.40359999999998
10
170.00410000000002
20
430.40359999999998
10
170.00410000000002
20
426.40359999999998
10
162.0034
20
426.40359999999998
10
162.0034
20
430.40359999999998
10
154.00380000000001
20
430.40359999999998
10
154.00380000000001
20
426.40359999999998
10
146.00280000000001
20
426.40359999999998
10
146.00280000000001
20
430.40359999999998
10
138.00360000000001
20
430.40359999999998
10
138.00360000000001
20
426.40359999999998
10
130.00400000000002
20
426.40359999999998
10
130.00400000000002
20
430.40359999999998
10
122.0044
20
430.40359999999998
10
122.0044
20
426.40359999999998
10
114.00350000000002
20
426.40359999999998
10
114.00350000000002
20
430.40359999999998
10
100.004
20
430.40359999999998
10
100.004
20
426.40359999999998
10
100.004
20
314.40360000000004
10
100.004
20
310.40460000000002
10
114.00350000000002
20
310.40460000000002
10
114.00350000000002
20
314.40360000000004
10
122.0044
20
314.40360000000004
10
122.0044
20
310.40460000000002
10
130.00400000000002
20
310.40460000000002
10
130.00400000000002
20
314.40360000000004
10
138.00360000000001
20
314.40360000000004
10
138.00360000000001
20
310.40460000000002
10
146.00280000000001
20
310.40460000000002
10
146.00280000000001
20
314.40360000000004
10
154.00380000000001
20
314.40360000000004
10
154.00380000000001
20
310.40460000000002
10
162.0034
20
310.40460000000002
10
162.0034
20
314.40360000000004
10
170.00410000000002
20
314.40360000000004
10
170.00410000000002
20
310.40460000000002
0
LWPOLYLINE
5
106
100
AcDbEntity
8
0
100
AcDbPolyline
90
126
70
1
43
0.0
10
436.00260000000003
20
310.40460000000002
10
444.00160000000005
20
310.40460000000002
10
444.00160000000005
20
314.40360000000004
10
452.00260000000009
20
314.40360000000004
10
452.00260000000009
20
310.40460000000002
10
460.00360000000001
20
310.40460000000002
10
460.00360000000001
20
314.40360000000004
10
468.00459999999998
20
314.40360000000004
10
468.00459999999998
20
310.40460000000002
10
476.00260000000003
20
310.40460000000002
10
476.00260000000003
20
314.40360000000004
10
484.00360000000006
20
314.40360000000004
10
484.00360000000006
20
310.40460000000002
10
498.00559999999996
20
310.40460000000002
10
502.00559999999996
20
310.40460000000002
10
502.00559999999996
20
314.40360000000004
10
502.00559999999996
20
326.40359999999998
10
498.00559999999996
20
326.40359999999998
10
498.00559999999996
20
334.40260000000001
10
502.00559999999996
20
334.40260000000001
10
502.00559999999996
20
342.40360000000004
10
498.00559999999996
20
342.40360000000004
10
498.00559999999996
20
350.40359999999998
10
502.00559999999996
20
350.40359999999998
10
502.00559999999996
20
358.40360000000004
10
498.00559999999996
20
358.40360000000004
10
498.00559999999996
20
366.40359999999998
10
502.00559999999996
20
366.40359999999998
10
502.00559999999996
20
374.40359999999998
10
498.00559999999996
20
374.40359999999998
10
498.00559999999996
20
382.40459999999996
10
502.00559999999996
20
382.40459999999996
10
502.00559999999996
20
390.40359999999998
10
498.00559999999996
20
390.40359999999998
10
498.00559999999996
20
398.40260000000001
10
502.00559999999996
20
398.40260000000001
10
502.00559999999996
20
406.40359999999998
10
498.00559999999996
20
406.40359999999998
10
498.00559999999996
20
414.40359999999998
10
502.00559999999996
20
414.40359999999998
10
502.00559999999996
20
426.40359999999998
10
502.00559999999996
20
430.40359999999998
10
498.00559999999996
20
430.40359999999998
10
484.00360000000006
20
430.40359999999998
10
484.00360000000006
20
426.40359999999998
10
476.00260000000003
20
426.40359999999998
10
476.00260000000003
20
430.40359999999998
10
468.00459999999998
20
430.40359999999998
10
468.00459999999998
20
426.40359999999998
10
460.00360000000001
20
426.40359999999998
10
460.00360000000001
20
430.40359999999998
10
452.00260000000009
20
430.40359999999998
10
452.00260000000009
20
426.40359999999998
10
444.00160000000005
20
426.40359999999998
10
444.00160000000005
20
430.40359999999998
10
436.00260000000003
20
430.40359999999998
10
436.00260000000003
20
426.40359999999998
10
428.00360000000006
20
426.40359999999998
10
428.00360000000006
20
430.40359999999998
10
420.00360000000001
20
430.40359999999998
10
420.00360000000001
20
426.40359999999998
10
412.00459999999998
20
426.40359999999998
10
412.00459999999998
20
430.40359999999998
10
404.00360000000006
20
430.40359999999998
10
404.00360000000006
20
426.40359999999998
10
396.00360000000001
20
426.40359999999998
10
396.00360000000001
20
430.40359999999998
10
388.00360000000001
20
430.40359999999998
10
388.00360000000001
20
426.40359999999998
10
380.00360000000001
20
426.40359999999998
10
380.00360000000001
20
430.40359999999998
10
372.00360000000001
20
430.40359999999998
10
372.00360000000001
20
426.40359999999998
10
364.00260000000003
20
426.40359999999998
10
364.00260000000003
20
430.40359999999998
10
356.00360000000001
20
430.40359999999998
10
356.00360000000001
20
426.40359999999998
10
348.00459999999998
20
426.40359999999998
10
348.00459999999998
20
430.40359999999998
10
340.00260000000003
20
430.40359999999998
10
340.00260000000003
20
426.40359999999998
10
332.00360000000001
20
426.40359999999998
10
332.00360000000001
20
430.40359999999998
10
324.00459999999998
20
430.40359999999998
10
324.00459999999998
20
426.40359999999998
10
316.00360000000001
20
426.40359999999998
10
316.00360000000001
20
430.40359999999998
10
302.00360000000001
20
430.40359999999998
10
302.00360000000001
20
426.40359999999998
10
302.00360000000001
20
410.40359999999998
10
472.00360000000001
20
410.40359999999998
10
472.00360000000001
20
407.40360000000004
10
302.00360000000001
20
407.40360000000004
10
302.00360000000001
20
314.40360000000004
10
302.00360000000001
20
310.40460000000002
10
316.00360000000001
20
310.40460000000002
10
316.00360000000001
20
314.40360000000004
10
324.00459999999998
20
314.40360000000004
10
324.00459999999998
20
310.40460000000002
10
332.00360000000001
20
310.40460000000002
10
332.00360000000001
20
314.40360000000004
10
340.00260000000003
20
314.40360000000004
10
340.00260000000003
20
310.40460000000002
10
348.00459999999998
20
310.40460000000002
10
348.00459999999998
20
314.40360000000004
10
356.00360000000001
20
314.40360000000004
10
356.00360000000001
20
310.40460000000002
10
364.00260000000003
20
310.40460000000002
10
364.00260000000003
20
314.40360000000004
10
372.00360000000001
20
314.40360000000004
10
372.00360000000001
20
310.40460000000002
10
380.00360000000001
20
310.40460000000002
10
380.00360000000001
20
314.40360000000004
10
388.00360000000001
20
314.40360000000004
10
388.00360000000001
20
310.40460000000002
10
396.00360000000001
20
310.40460000000002
10
396.00360000000001
20
314.40360000000004
10
404.00360000000006
20
314.40360000000004
10
404.00360000000006
20
310.40460000000002
10
412.00459999999998
20
310.40460000000002
10
412.00459999999998
20
314.40360000000004
10
420.00360000000001
20
314.40360000000004
10
420.00360000000001
20
310.40460000000002
10
428.00360000000006
20
310.40460000000002
10
428.00360000000006
20
314.40360000000004
10
436.00260000000003
20
314.40360000000004
0
LWPOLYLINE
5
107
100
AcDbEntity
8
0
100
AcDbPolyline
90
100
70
1
43
0.0
10
428.00360000000006
20
432.40360000000004
10
436.00260000000003
20
432.40360000000004
10
436.00260000000003
20
436.40359999999998
10
444.00160000000005
20
436.40359999999998
10
444.00160000000005
20
432.40360000000004
10
452.00260000000009
20
432.40360000000004
10
452.00260000000009
20
436.40359999999998
10
460.00360000000001
20
436.40359999999998
10
460.00360000000001
20
432.40360000000004
10
468.00459999999998
20
432.40360000000004
10
468.00459999999998
20
436.40359999999998
10
476.00260000000003
20
436.40359999999998
10
476.00260000000003
20
432.40360000000004
10
484.00360000000006
20
432.40360000000004
10
484.00360000000006
20
436.40359999999998
10
498.00559999999996
20
436.40359999999998
10
498.00559999999996
20
445.40260000000001
10
502.00559999999996
20
445.40260000000001
10
502.00559999999996
20
453.40359999999998
10
498.00559999999996
20
453.40359999999998
10
498.00559999999996
20
461.40460000000007
10
502.00559999999996
20
461.40460000000007
10
502.00559999999996
20
469.40160000000003
10
498.00559999999996
20
469.40160000000003
10
498.00559999999996
20
478.40460000000007
10
484.00360000000006
20
478.40460000000007
10
484.00360000000006
20
482.40560000000005
10
476.00260000000003
20
482.40560000000005
10
476.00260000000003
20
478.40460000000007
10
468.00459999999998
20
478.40460000000007
10
468.00459999999998
20
482.40560000000005
10
460.00360000000001
20
482.40560000000005
10
460.00360000000001
20
478.40460000000007
10
452.00260000000009
20
478.40460000000007
10
452.00260000000009
20
482.40560000000005
10
444.00160000000005
20
482.40560000000005
10
444.00160000000005
20
478.40460000000007
10
436.00260000000003
20
478.40460000000007
10
436.00260000000003
20
482.40560000000005
10
428.00360000000006
20
482.40560000000005
10
428.00360000000006
20
478.40460000000007
10
420.00360000000001
20
478.40460000000007
10
420.00360000000001
20
482.40560000000005
10
412.00459999999998
20
482.40560000000005
10
412.00459999999998
20
478.40460000000007
10
404.00360000000006
20
478.40460000000007
10
404.00360000000006
20
482.40560000000005
10
396.00360000000001
20
482.40560000000005
10
396.00360000000001
20
478.40460000000007
10
388.00360000000001
20
478.40460000000007
10
388.00360000000001
20
482.40560000000005
10
380.00360000000001
20
482.40560000000005
10
380.00360000000001
20
478.40460000000007
10
372.00360000000001
20
478.40460000000007
10
372.00360000000001
20
482.40560000000005
10
364.00260000000003
20
482.40560000000005
10
364.00260000000003
20
478.40460000000007
10
356.00360000000001
20
478.40460000000007
10
356.00360000000001
20
482.40560000000005
10
348.00459999999998
20
482.40560000000005
10
348.00459999999998
20
478.40460000000007
10
340.00260000000003
20
478.40460000000007
10
340.00260000000003
20
482.40560000000005
10
332.00360000000001
20
482.40560000000005
10
332.00360000000001
20
478.40460000000007
10
324.00459999999998
20
478.40460000000007
10
324.00459999999998
20
482.40560000000005
10
316.00360000000001
20
482.40560000000005
10
316.00360000000001
20
478.40460000000007
10
302.00360000000001
20
478.40460000000007
10
302.00360000000001
20
436.40359999999998
10
316.00360000000001
20
436.40359999999998
10
316.00360000000001
20
432.40360000000004
10
324.00459999999998
20
432.40360000000004
10
324.00459999999998
20
436.40359999999998
10
332.00360000000001
20
436.40359999999998
10
332.00360000000001
20
432.40360000000004
10
340.00260000000003
20
432.40360000000004
10
340.00260000000003
20
436.40359999999998
10
348.00459999999998
20
436.40359999999998
10
348.00459999999998
20
432.40360000000004
10
356.00360000000001
20
432.40360000000004
10
356.00360000000001
20
436.40359999999998
10
364.00260000000003
20
436.40359999999998
10
364.00260000000003
20
432.40360000000004
10
372.00360000000001
20
432.40360000000004
10
372.00360000000001
20
436.40359999999998
10
380.00360000000001
20
436.40359999999998
10
380.00360000000001
20
432.40360000000004
10
388.00360000000001
20
432.40360000000004
10
388.00360000000001
20
436.40359999999998
10
396.00360000000001
20
436.40359999999998
10
396.00360000000001
20
432.40360000000004
10
404.00360000000006
20
432.40360000000004
10
404.00360000000006
20
436.40359999999998
10
412.00459999999998
20
436.40359999999998
10
412.00459999999998
20
432.40360000000004
10
420.00360000000001
20
432.40360000000004
10
420.00360000000001
20
436.40359999999998
10
428.00360000000006
20
436.40359999999998
0
LWPOLYLINE
5
108
100
AcDbEntity
8
0
100
AcDbPolyline
90
104
70
1
43
0.0
10
138.00360000000001
20
432.40360000000004
10
138.00360000000001
20
436.40359999999998
10
146.00280000000001
20
436.40359999999998
10
146.00280000000001
20
432.40360000000004
10
154.00380000000001
20
432.40360000000004
10
154.00380000000001
20
436.40359999999998
10
162.0034
20
436.40359999999998
10
162.0034
20
432.40360000000004
10
170.00410000000002
20
432.40360000000004
10
170.00410000000002
20
436.40359999999998
10
178.00370000000001
20
436.40359999999998
10
178.00370000000001
20
432.40360000000004
10
186.0033
20
432.40360000000004
10
186.0033
20
436.40359999999998
10
194.00460000000004
20
436.40359999999998
10
194.00460000000004
20
432.40360000000004
10
202.00360000000003
20
432.40360000000004
10
202.00360000000003
20
436.40359999999998
10
210.0026
20
436.40359999999998
10
210.0026
20
432.40360000000004
10
218.00360000000001
20
432.40360000000004
10
218.00360000000001
20
436.40359999999998
10
226.00360000000001
20
436.40359999999998
10
226.00360000000001
20
432.40360000000004
10
234.00360000000001
20
432.40360000000004
10
234.00360000000001
20
436.40359999999998
10
242.00360000000003
20
436.40359999999998
10
242.00360000000003
20
432.40360000000004
10
250.00360000000001
20
432.40360000000004
10
250.00360000000001
20
436.40359999999998
10
258.00260000000003
20
436.40359999999998
10
258.00260000000003
20
432.40360000000004
10
266.00360000000001
20
432.40360000000004
10
266.00360000000001
20
436.40359999999998
10
274.00360000000001
20
436.40359999999998
10
274.00360000000001
20
432.40360000000004
10
282.00459999999998
20
432.40360000000004
10
282.00459999999998
20
436.40359999999998
10
296.00360000000001
20
436.40359999999998
10
296.00360000000001
20
445.40260000000001
10
300.00360000000001
20
445.40260000000001
10
300.00360000000001
20
453.40359999999998
10
296.00360000000001
20
453.40359999999998
10
296.00360000000001
20
461.40460000000007
10
300.00360000000001
20
461.40460000000007
10
300.00360000000001
20
469.40160000000003
10
296.00360000000001
20
469.40160000000003
10
296.00360000000001
20
478.40460000000007
10
290.39072865524895
20
478.40460000000007
42
-2.5175832625073076
10
286.61687134475108
20
478.40460000000007
10
282.00459999999998
20
478.40460000000007
10
282.00459999999998
20
482.40560000000005
10
274.00360000000001
20
482.40560000000005
10
274.00360000000001
20
478.40460000000007
10
266.00360000000001
20
478.40460000000007
10
266.00360000000001
20
482.40560000000005
10
258.00260000000003
20
482.40560000000005
10
258.00260000000003
20
478.40460000000007
10
250.00360000000001
20
478.40460000000007
10
250.00360000000001
20
482.40560000000005
10
242.00360000000003
20
482.40560000000005
10
242.00360000000003
20
478.40460000000007
10
234.00360000000001
20
478.40460000000007
10
234.00360000000001
20
482.40560000000005
10
226.00360000000001
20
482.40560000000005
10
226.00360000000001
20
478.40460000000007
10
218.00360000000001
20
478.40460000000007
10
218.00360000000001
20
482.40560000000005
10
210.0026
20
482.40560000000005
10
210.0026
20
478.40460000000007
10
202.00360000000003
20
478.40460000000007
10
202.00360000000003
20
482.40560000000005
10
194.00460000000004
20
482.40560000000005
10
194.00460000000004
20
478.40460000000007
10
186.0033
20
478.40460000000007
10
186.0033
20
482.40560000000005
10
178.00370000000001
20
482.40560000000005
10
178.00370000000001
20
478.40460000000007
10
170.00410000000002
20
478.40460000000007
10
170.00410000000002
20
482.40560000000005
10
162.0034
20
482.40560000000005
10
162.0034
20
478.40460000000007
10
154.00380000000001
20
478.40460000000007
10
154.00380000000001
20
482.40560000000005
10
146.00280000000001
20
482.40560000000005
10
146.00280000000001
20
478.40460000000007
10
138.00360000000001
20
478.40460000000007
10
138.00360000000001
20
482.40560000000005
10
130.00400000000002
20
482.40560000000005
10
130.00400000000002
20
478.40460000000007
10
122.0044
20
478.40460000000007
10
122.0044
20
482.40560000000005
10
114.00350000000002
20
482.40560000000005
10
114.00350000000002
20
478.40460000000007
10
109.39072865524894
20
478.40460000000007
42
-2.5175832625073076
10
105.61687134475109
20
478.40460000000007
10
100.004
20
478.40460000000007
10
100.004
20
436.40359999999998
10
114.00350000000002
20
436.40359999999998
10
114.00350000000002
20
432.40360000000004
10
122.0044
20
432.40360000000004
10
122.0044
20
436.40359999999998
10
130.00400000000002
20
436.40359999999998
10
130.00400000000002
20
432.40360000000004
0
LWPOLYLINE
5
109
100
AcDbEntity
8
0
100
AcDbPolyline
90
72
70
1
43
0.0
10
460.00360000000001
20
241.40360000000004
10
456.00360000000012
20
241.40360000000004
10
456.00360000000012
20
249.40460000000004
10
460.00360000000001
20
249.40460000000004
10
460.00360000000001
20
258.40460000000002
10
456.00360000000012
20
258.40460000000002
10
444.00260000000003
20
258.40460000000002
10
444.00260000000003
20
262.40460000000002
10
436.00360000000012
20
262.40460000000002
10
436.00360000000012
20
258.40460000000002
10
428.00420000000003
20
258.40460000000002
10
428.00420000000003
20
262.40460000000002
10
420.00319999999999
20
262.40460000000002
10
420.00319999999999
20
258.40460000000002
10
412.00360000000001
20
258.40460000000002
10
412.00360000000001
20
262.40460000000002
10
404.00440000000003
20
262.40460000000002
10
404.00440000000003
20
258.40460000000002
10
396.00340000000006
20
258.40460000000002
10
396.00340000000006
20
262.40460000000002
10
388.00380000000007
20
262.40460000000002
10
388.00380000000007
20
258.40460000000002
10
380.00280000000004
20
258.40460000000002
10
380.00280000000004
20
262.40460000000002
10
372.00360000000001
20
262.40460000000002
10
372.00360000000001
20
258.40460000000002
10
364.00390000000004
20
258.40460000000002
10
364.00390000000004
20
262.40460000000002
10
356.00300000000004
20
262.40460000000002
10
356.00300000000004
20
258.40460000000002
10
344.00310000000002
20
258.40460000000002
10
340.00400000000008
20
258.40460000000002
10
340.00400000000008
20
249.40460000000004
10
344.00310000000002
20
249.40460000000004
10
344.00310000000002
20
241.40360000000004
10
340.00400000000008
20
241.40360000000004
10
340.00400000000008
20
233.40260000000004
10
344.00310000000002
20
233.40260000000004
10
344.00310000000002
20
225.40560000000002
10
340.00400000000008
20
225.40560000000002
10
340.00400000000008
20
216.40260000000001
10
344.00310000000002
20
216.40260000000001
10
356.00300000000004
20
216.40260000000001
10
356.00300000000004
20
212.40160000000006
10
364.00390000000004
20
212.40160000000006
10
364.00390000000004
20
216.40260000000001
10
372.00360000000001
20
216.40260000000001
10
372.00360000000001
20
212.40160000000006
10
380.00280000000004
20
212.40160000000006
10
380.00280000000004
20
216.40260000000001
10
388.00380000000007
20
216.40260000000001
10
388.00380000000007
20
212.40160000000006
10
396.00340000000006
20
212.40160000000006
10
396.00340000000006
20
216.40260000000001
10
404.00440000000003
20
216.40260000000001
10
404.00440000000003
20
212.40160000000006
10
412.00360000000001
20
212.40160000000006
10
412.00360000000001
20
216.40260000000001
10
420.00319999999999
20
216.40260000000001
10
420.00319999999999
20
212.40160000000006
10
428.00420000000003
20
212.40160000000006
10
428.00420000000003
20
216.40260000000001
10
436.00360000000012
20
216.40260000000001
10
436.00360000000012
20
212.40160000000006
10
444.00260000000003
20
212.40160000000006
10
444.00260000000003
20
216.40260000000001
10
456.00360000000012
20
216.40260000000001
10
460.00360000000001
20
216.40260000000001
10
460.00360000000001
20
225.40560000000002
10
456.00360000000012
20
225.40560000000002
10
456.00360000000012
20
233.40260000000004
10
460.00360000000001
20
233.40260000000004
0
CIRCLE
5
110
100
AcDbEntity
8
0
100
AcDbCircle
10
198.00380000000001
20
468.40409999999997
30
0
40
2.750000000000008
210
0
220
0
230
1
0
CIRCLE
5
111
100
AcDbEntity
8
0
100
AcDbCircle
10
198.00380000000001
20
446.40409999999997
30
0
40
2.75
210
0
220
0
230
1
0
CIRCLE
5
112
100
AcDbEntity
8
0
100
AcDbCircle
10
118.50380000000001
20
476.40409999999997
30
0
40
2.7500000000000036
210
0
220
0
230
1
0
CIRCLE
5
113
100
AcDbEntity
8
0
100
AcDbCircle
10
277.50380000000001
20
476.40409999999997
30
0
40
2.7499999999999858
210
0
220
0
230
1
0
LWPOLYLINE
5
114
100
AcDbEntity
8
0
100
AcDbPolyline
90
8
70
1
43
0.0
10
442.12471171536379
20
282.20390000000003
10
436.12471171536384
20
282.20389999999998
42
-0.41421356237310025
10
434.12471171536379
20
284.20390000000003
10
434.12471171536379
20
290.20390000000003
42
-0.41421356237308982
10
436.12471171536384
20
292.20390000000003
10
442.12471171536379
20
292.20390000000003
42
-0.41421356237310025
10
444.12471171536379
20
290.20389999999998
10
444.12471171536379
20
284.20390000000003
42
-0.41421356237310025
0
LWPOLYLINE
5
115
100
AcDbEntity
8
0
100
AcDbPolyline
90
4
70
1
43
0.0
10
403.51661903789699
20
383.82676192420752
10
425.68338096210323
20
383.82676192420752
10
433.96338096210314
20
370.02676192420751
10
411.79661903789702
20
370.02676192420751
0
LWPOLYLINE
5
116
100
AcDbEntity
8
0
100
AcDbPolyline
90
4
70
1
43
0.0
10
394.88338096210316
20
370.02676192420756
10
372.71661903789698
20
370.02676192420756
10
380.99661903789701
20
383.82676192420763
10
403.16338096210313
20
383.82676192420752
0
LWPOLYLINE
5
117
100
AcDbEntity
8
0
100
AcDbPolyline
90
4
70
1
43
0.0
10
380.99661903789701
20
384.02676192420756
10
403.16338096210313
20
384.02676192420756
10
394.88338096210316
20
397.82676192420763
10
372.71661903789698
20
397.82676192420763
0
LWPOLYLINE
5
118
100
AcDbEntity
8
0
100
AcDbPolyline
90
4
70
1
43
0.0
10
394.94000000000005
20
342.12112698736911
10
403.22338096210319
20
355.92676192420748
10
394.94000000000005
20
369.73239686104603
10
386.65661903789703
20
355.92676192420754
0
LWPOLYLINE
5
119
100
AcDbEntity
8
0
100
AcDbPolyline
90
4
70
1
43
0.0
10
372.54000000000008
20
370.12112698736905
10
380.82338096210322
20
383.9267619242076
10
372.54000000000008
20
397.73239686104608
10
364.25661903789694
20
383.9267619242076
0
LWPOLYLINE
5
120
100
AcDbEntity
8
0
100
AcDbPolyline
90
4
70
1
43
0.0
10
395.11661903789701
20
342.02676192420762
10
403.39661903789698
20
355.82676192420752
10
425.56338096210322
20
355.82676192420752
10
417.28338096210325
20
342.02676192420762
0
LWPOLYLINE
5
121
100
AcDbEntity
8
0
100
AcDbPolyline
90
4
70
1
43
0.0
10
403.51661903789699
20
356.02676192420751
10
411.79661903789702
20
369.82676192420746
10
433.96338096210314
20
369.82676192420746
10
425.68338096210323
20
356.02676192420751
0
LWPOLYLINE
5
122
100
AcDbEntity
8
0
100
AcDbPolyline
90
4
70
1
43
0.0
10
395.11661903789695
20
397.82676192420763
10
403.39661903789698
20
384.02676192420756
10
425.56338096210322
20
384.02676192420756
10
417.28338096210325
20
397.82676192420752
0
LWPOLYLINE
5
123
100
AcDbEntity
8
0
100
AcDbPolyline
90
4
70
1
43
0.0
10
403.34000000000009
20
356.121126987369
10
395.05661903789695
20
369.92676192420754
10
403.34000000000009
20
383.73239686104603
10
411.62338096210317
20
369.92676192420754
0
SPLINE
5
124
100
AcDbEntity
8
0
100
AcDbSpline
70
0
71
2
72
6
73
3
74
0
42
0.000000001
43
0.0000000001
44
0.0000000001
40
0
40
0
40
0
40
1
40
1
40
1
10
453.02044781684748
20
349.04259999889177
30
0
10
453.28113469123713
20
349.04259999889177
30
0
10
453.28113469123713
20
348.79873117107195
30
0
0
LINE
5
125
100
AcDbEntity
8
0
100
AcDbLine
10
453.28113469123713
20
348.79873117107195
30
0
11
453.28113469123713
21
345.82185586589617
31
0
0
SPLINE
5
126
100
AcDbEntity
8
0
100
AcDbSpline
70
0
71
2
72
6
73
3
74
0
42
0.000000001
43
0.0000000001
44
0.0000000001
40
0
40
0
40
0
40
1
40
1
40
1
10
453.28113469123713
20
345.82185586589617
30
0
10
453.28113469123713
20
345.57798942226214
30
0
10
452.98681172370783
20
345.57798942226214
30
0
0
SPLINE
5
127
100
AcDbEntity
8
0
100
AcDbSpline
70
0
71
2
72
6
73
3
74
0
42
0.000000001
43
0.0000000001
44
0.0000000001
40
0
40
0
40
0
40
1
40
1
40
1
10
452.98681172370783
20
345.57798942226214
30
0
10
452.1374765300738
20
345.57798942226214
30
0
10
450.43880852699152
20
345.64105828899187
30
0
0
SPLINE
5
128
100
AcDbEntity
8
0
100
AcDbSpline
70
0
71
2
72
6
73
3
74
0
42
0.000000001
43
0.0000000001
44
0.0000000001
40
0
40
0
40
0
40
1
40
1
40
1
10
450.43880852699152
20
345.64105828899187
30
0
10
448.74013813972346
20
345.70412715572161
30
0
10
447.89080533027521
20
345.70412715572161
30
0
0
SPLINE
5
129
100
AcDbEntity
8
0
100
AcDbSpline
70
0
71
2
72
6
73
3
74
0
42
0.000000001
43
0.0000000001
44
0.0000000001
40
0
40
0
40
0
40
1
40
1
40
1
10
447.89080533027521
20
345.70412715572161
30
0
10
447.64693650245539
20
345.70412715572161
30
0
10
447.63011845588557
20
345.62844356197161
30
0
0
SPLINE
5
130
100
AcDbEntity
8
0
100
AcDbSpline
70
0
71
2
72
6
73
3
74
0
42
0.000000001
43
0.0000000001
44
0.0000000001
40
0
40
0
40
0
40
1
40
1
40
1
10
447.63011845588557
20
345.62844356197161
30
0
10
447.68057497978083
20
345.53594192165178
30
0
10
450.22857579231135
20
344.5016034473781
30
0
0
SPLINE
5
131
100
AcDbEntity
8
0
100
AcDbSpline
70
0
71
2
72
6
73
3
74
0
42
0.000000001
43
0.0000000001
44
0.0000000001
40
0
40
0
40
0
40
1
40
1
40
1
10
450.22857579231135
20
344.5016034473781
30
0
10
451.72542246818415
20
343.89613827365679
30
0
10
453.21386012077204
20
343.29067190784258
30
0
0
SPLINE
5
132
100
AcDbEntity
8
0
100
AcDbSpline
70
0
71
2
72
6
73
3
74
0
42
0.000000001
43
0.0000000001
44
0.0000000001
40
0
40
0
40
0
40
1
40
1
40
1
10
453.21386012077204
20
343.29067190784258
30
0
10
453.4072724246966
20
343.20658048290056
30
0
10
453.44091090202204
20
343.0804403652553
30
0
0
SPLINE
5
133
100
AcDbEntity
8
0
100
AcDbSpline
70
0
71
2
72
6
73
3
74
0
42
0.000000001
43
0.0000000001
44
0.0000000001
40
0
40
0
40
0
40
1
40
1
40
1
10
453.44091090202204
20
343.0804403652553
30
0
10
453.44931992530695
20
343.03839524883074
30
0
10
453.44931992530695
20
342.74407108920855
30
0
0
SPLINE
5
134
100
AcDbEntity
8
0
100
AcDbSpline
70
0
71
2
72
6
73
3
74
0
42
0.000000001
43
0.0000000001
44
0.0000000001
40
0
40
0
40
0
40
1
40
1
40
1
10
453.44931992530695
20
342.74407108920855
30
0
10
453.44931992530695
20
342.30678995746416
30
0
10
453.28113469123713
20
342.22269734042925
30
0
0
SPLINE
5
135
100
AcDbEntity
8
0
100
AcDbSpline
70
0
71
2
72
6
73
3
74
0
42
0.000000001
43
0.0000000001
44
0.0000000001
40
0
40
0
40
0
40
1
40
1
40
1
10
453.28113469123713
20
342.22269734042925
30
0
10
452.35611828803889
20
341.76859697002214
30
0
10
450.59017571449152
20
341.02858384746355
30
0
0
SPLINE
5
136
100
AcDbEntity
8
0
100
AcDbSpline
70
0
71
2
72
6
73
3
74
0
42
0.000000001
43
0.0000000001
44
0.0000000001
40
0
40
0
40
0
40
1
40
1
40
1
10
450.59017571449152
20
341.02858384746355
30
0
10
448.72332009315363
20
340.23811420100969
30
0
10
447.89080533027521
20
339.84287937778277
30
0
0
SPLINE
5
137
100
AcDbEntity
8
0
100
AcDbSpline
70
0
71
2
72
6
73
3
74
0
42
0.000000001
43
0.0000000001
44
0.0000000001
40
0
40
0
40
0
40
1
40
1
40
1
10
447.89080533027521
20
339.84287937778277
30
0
10
447.84875782966486
20
339.82606133121294
30
0
10
447.79830368995539
20
339.76719697612566
30
0
0
SPLINE
5
138
100
AcDbEntity
8
0
100
AcDbSpline
70
0
71
2
72
6
73
3
74
0
42
0.000000001
43
0.0000000001
44
0.0000000001
40
0
40
0
40
0
40
1
40
1
40
1
10
447.79830368995539
20
339.76719697612566
30
0
10
447.87398728370539
20
339.70833142894548
30
0
10
448.04217251777521
20
339.70833142894548
30
0
0
SPLINE
5
139
100
AcDbEntity
8
0
100
AcDbSpline
70
0
71
2
72
6
73
3
74
0
42
0.000000001
43
0.0000000001
44
0.0000000001
40
0
40
0
40
0
40
1
40
1
40
1
10
448.04217251777521
20
339.70833142894548
30
0
10
448.86627825736872
20
339.70833142894548
30
0
10
450.51449212074152
20
339.75037773746294
30
0
0
SPLINE
5
140
100
AcDbEntity
8
0
100
AcDbSpline
70
0
71
2
72
6
73
3
74
0
42
0.000000001
43
0.0000000001
44
0.0000000001
40
0
40
0
40
0
40
1
40
1
40
1
10
450.51449212074152
20
339.75037773746294
30
0
10
452.16270359992853
20
339.7924240459804
30
0
10
452.98681172370783
20
339.7924240459804
30
0
0
SPLINE
5
141
100
AcDbEntity
8
0
100
AcDbSpline
70
0
71
2
72
6
73
3
74
0
42
0.000000001
43
0.0000000001
44
0.0000000001
40
0
40
0
40
0
40
1
40
1
40
1
10
452.98681172370783
20
339.7924240459804
30
0
10
453.28113469123713
20
339.7924240459804
30
0
10
453.28113469123713
20
339.55696543353838
30
0
0
LINE
5
142
100
AcDbEntity
8
0
100
AcDbLine
10
453.28113469123713
20
339.55696543353838
30
0
11
453.28113469123713
21
336.74827536243242
31
0
0
SPLINE
5
143
100
AcDbEntity
8
0
100
AcDbSpline
70
0
71
2
72
6
73
3
74
0
42
0.000000001
43
0.0000000001
44
0.0000000001
40
0
40
0
40
0
40
1
40
1
40
1
10
453.28113469123713
20
336.74827536243242
30
0
10
453.28113469123713
20
336.5800901283626
30
0
10
453.2264748477923
20
336.5422483314876
30
0
0
SPLINE
5
144
100
AcDbEntity
8
0
100
AcDbSpline
70
0
71
2
72
6
73
3
74
0
42
0.000000001
43
0.0000000001
44
0.0000000001
40
0
40
0
40
0
40
1
40
1
40
1
10
453.2264748477923
20
336.5422483314876
30
0
10
453.17181500434748
20
336.50440772670549
30
0
10
453.0372658634173
20
336.50440772670549
30
0
0
SPLINE
5
145
100
AcDbEntity
8
0
100
AcDbSpline
70
0
71
2
72
6
73
3
74
0
42
0.000000001
43
0.0000000001
44
0.0000000001
40
0
40
0
40
0
40
1
40
1
40
1
10
453.0372658634173
20
336.50440772670549
30
0
10
452.12065848350397
20
336.50440772670549
30
0
10
450.28323563575617
20
336.59270366328997
30
0
0
SPLINE
5
146
100
AcDbEntity
8
0
100
AcDbSpline
70
0
71
2
72
6
73
3
74
0
42
0.000000001
43
0.0000000001
44
0.0000000001
40
0
40
0
40
0
40
1
40
1
40
1
10
450.28323563575617
20
336.59270366328997
30
0
10
448.44581517219416
20
336.68100198406023
30
0
10
447.52920779228083
20
336.68100198406023
30
0
0
SPLINE
5
147
100
AcDbEntity
8
0
100
AcDbSpline
70
0
71
2
72
6
73
3
74
0
42
0.000000001
43
0.0000000001
44
0.0000000001
40
0
40
0
40
0
40
1
40
1
40
1
10
447.52920779228083
20
336.68100198406023
30
0
10
446.55373486518732
20
336.68100198406023
30
0
10
443.87118252754084
20
336.59690936702532
30
0
0
SPLINE
5
148
100
AcDbEntity
8
0
100
AcDbSpline
70
0
71
2
72
6
73
3
74
0
42
0.000000001
43
0.0000000001
44
0.0000000001
40
0
40
0
40
0
40
1
40
1
40
1
10
443.87118252754084
20
336.59690936702532
30
0
10
443.1732157134997
20
336.58849915164751
30
0
10
441.79409893989435
20
336.52122577327532
30
0
0
LINE
5
149
100
AcDbEntity
8
0
100
AcDbLine
10
441.79409893989435
20
336.52122577327532
30
0
11
441.65114196777216
21
336.51281674999041
31
0
0
SPLINE
5
150
100
AcDbEntity
8
0
100
AcDbSpline
70
0
71
2
72
6
73
3
74
0
42
0.000000001
43
0.0000000001
44
0.0000000001
40
0
40
0
40
0
40
1
40
1
40
1
10
441.65114196777216
20
336.51281674999041
30
0
10
441.48295673370234
20
336.50440772670549
30
0
10
441.48295673370234
20
336.86600526469988
30
0
0
SPLINE
5
151
100
AcDbEntity
8
0
100
AcDbSpline
70
0
71
2
72
6
73
3
74
0
42
0.000000001
43
0.0000000001
44
0.0000000001
40
0
40
0
40
0
40
1
40
1
40
1
10
441.48295673370234
20
336.86600526469988
30
0
10
441.48295673370234
20
337.328513466299
30
0
10
441.45352396011225
20
338.25353106159014
30
0
0
SPLINE
5
152
100
AcDbEntity
8
0
100
AcDbSpline
70
0
71
2
72
6
73
3
74
0
42
0.000000001
43
0.0000000001
44
0.0000000001
40
0
40
0
40
0
40
1
40
1
40
1
10
441.45352396011225
20
338.25353106159014
30
0
10
441.42409237861506
20
339.17854865688128
30
0
10
441.42409237861506
20
339.6410568584804
30
0
0
SPLINE
5
153
100
AcDbEntity
8
0
100
AcDbSpline
70
0
71
2
72
6
73
3
74
0
42
0.000000001
43
0.0000000001
44
0.0000000001
40
0
40
0
40
0
40
1
40
1
40
1
10
441.42409237861506
20
339.6410568584804
30
0
10
441.42409237861506
20
339.73355849880022
30
0
10
441.77728089332453
20
339.90174373287005
30
0
0
LINE
5
154
100
AcDbEntity
8
0
100
AcDbLine
10
441.77728089332453
20
339.90174373287005
30
0
11
447.16761025428644
21
342.35724528926653
31
0
0
SPLINE
5
155
100
AcDbEntity
8
0
100
AcDbSpline
70
0
71
2
72
6
73
3
74
0
42
0.000000001
43
0.0000000001
44
0.0000000001
40
0
40
0
40
0
40
1
40
1
40
1
10
447.16761025428644
20
342.35724528926653
30
0
10
447.71421107292048
20
342.61793216365618
30
0
10
447.71421107292048
20
342.79452642101091
30
0
0
SPLINE
5
156
100
AcDbEntity
8
0
100
AcDbSpline
70
0
71
2
72
6
73
3
74
0
42
0.000000001
43
0.0000000001
44
0.0000000001
40
0
40
0
40
0
40
1
40
1
40
1
10
447.71421107292048
20
342.79452642101091
30
0
10
447.71421107292048
20
342.88702806133074
30
0
10
447.08351763725153
20
343.18976124423784
30
0
0
SPLINE
5
157
100
AcDbEntity
8
0
100
AcDbSpline
70
0
71
2
72
6
73
3
74
0
42
0.000000001
43
0.0000000001
44
0.0000000001
40
0
40
0
40
0
40
1
40
1
40
1
10
447.08351763725153
20
343.18976124423784
30
0
10
445.31757506370417
20
344.03909524577898
30
0
10
441.76046165466181
20
345.70412715572161
30
0
0
SPLINE
5
158
100
AcDbEntity
8
0
100
AcDbSpline
70
0
71
2
72
6
73
3
74
0
42
0.000000001
43
0.0000000001
44
0.0000000001
40
0
40
0
40
0
40
1
40
1
40
1
10
441.76046165466181
20
345.70412715572161
30
0
10
441.43250140189997
20
345.8470829357509
30
0
10
441.43250140189997
20
346.01526816982073
30
0
0
SPLINE
5
159
100
AcDbEntity
8
0
100
AcDbSpline
70
0
71
2
72
6
73
3
74
0
42
0.000000001
43
0.0000000001
44
0.0000000001
40
0
40
0
40
0
40
1
40
1
40
1
10
441.43250140189997
20
346.01526816982073
30
0
10
441.43250140189997
20
346.25913699764055
30
0
10
441.45772847175471
20
346.75107797282976
30
0
0
SPLINE
5
160
100
AcDbEntity
8
0
100
AcDbSpline
70
0
71
2
72
6
73
3
74
0
42
0.000000001
43
0.0000000001
44
0.0000000001
40
0
40
0
40
0
40
1
40
1
40
1
10
441.45772847175471
20
346.75107797282976
30
0
10
441.48295673370234
20
347.24301894801897
30
0
10
441.48295673370234
20
347.49529679912371
30
0
0
SPLINE
5
161
100
AcDbEntity
8
0
100
AcDbSpline
70
0
71
2
72
6
73
3
74
0
42
0.000000001
43
0.0000000001
44
0.0000000001
40
0
40
0
40
0
40
1
40
1
40
1
10
441.48295673370234
20
347.49529679912371
30
0
10
441.48295673370234
20
347.70552953380388
30
0
10
441.44091042518488
20
348.13860496181292
30
0
0
SPLINE
5
162
100
AcDbEntity
8
0
100
AcDbSpline
70
0
71
2
72
6
73
3
74
0
42
0.000000001
43
0.0000000001
44
0.0000000001
40
0
40
0
40
0
40
1
40
1
40
1
10
441.44091042518488
20
348.13860496181292
30
0
10
441.39886411666743
20
348.57168038982195
30
0
10
441.39886411666743
20
348.78191312450213
30
0
0
SPLINE
5
163
100
AcDbEntity
8
0
100
AcDbSpline
70
0
71
2
72
6
73
3
74
0
42
0.000000001
43
0.0000000001
44
0.0000000001
40
0
40
0
40
0
40
1
40
1
40
1
10
441.39886411666743
20
348.78191312450213
30
0
10
441.39886411666743
20
349.03419097560686
30
0
10
441.60068663596979
20
349.03419097560686
30
0
0
SPLINE
5
164
100
AcDbEntity
8
0
100
AcDbSpline
70
0
71
2
72
6
73
3
74
0
42
0.000000001
43
0.0000000001
44
0.0000000001
40
0
40
0
40
0
40
1
40
1
40
1
10
441.60068663596979
20
349.03419097560686
30
0
10
442.59297760963312
20
349.03419097560686
30
0
10
444.56494721412531
20
348.96271070140642
30
0
0
SPLINE
5
165
100
AcDbEntity
8
0
100
AcDbSpline
70
0
71
2
72
6
73
3
74
0
42
0.000000001
43
0.0000000001
44
0.0000000001
40
0
40
0
40
0
40
1
40
1
40
1
10
444.56494721412531
20
348.96271070140642
30
0
10
446.5369168186175
20
348.89123281139177
30
0
10
447.52920779228083
20
348.89123281139177
30
0
0
SPLINE
5
166
100
AcDbEntity
8
0
100
AcDbSpline
70
0
71
2
72
6
73
3
74
0
42
0.000000001
43
0.0000000001
44
0.0000000001
40
0
40
0
40
0
40
1
40
1
40
1
10
447.52920779228083
20
348.89123281139177
30
0
10
448.44581517219416
20
348.89123281139177
30
0
10
450.27903231620661
20
348.96691640514177
30
0
0
SPLINE
5
167
100
AcDbEntity
8
0
100
AcDbSpline
70
0
71
2
72
6
73
3
74
0
42
0.000000001
43
0.0000000001
44
0.0000000001
40
0
40
0
40
0
40
1
40
1
40
1
10
450.27903231620661
20
348.96691640514177
30
0
10
452.11224946021906
20
349.04259999889177
30
0
10
453.02044781684748
20
349.04259999889177
30
0
0
SPLINE
5
168
100
AcDbEntity
8
0
100
AcDbSpline
70
0
71
2
72
6
73
3
74
0
42
0.000000001
43
0.0000000001
44
0.0000000001
40
0
40
0
40
0
40
1
40
1
40
1
10
452.81021746635309
20
360.95850547450823
30
0
10
453.17181500434748
20
360.95850547450823
30
0
10
453.28113469123713
20
360.64736207622332
30
0
0
SPLINE
5
169
100
AcDbEntity
8
0
100
AcDbSpline
70
0
71
2
72
6
73
3
74
0
42
0.000000001
43
0.0000000001
44
0.0000000001
40
0
40
0
40
0
40
1
40
1
40
1
10
453.28113469123713
20
360.64736207622332
30
0
10
453.36522730827204
20
360.39508660930437
30
0
10
453.36522730827204
20
359.31870301860613
30
0
0
SPLINE
5
170
100
AcDbEntity
8
0
100
AcDbSpline
70
0
71
2
72
6
73
3
74
0
42
0.000000001
43
0.0000000001
44
0.0000000001
40
0
40
0
40
0
40
1
40
1
40
1
10
453.36522730827204
20
359.31870301860613
30
0
10
453.36522730827204
20
358.28436454433245
30
0
10
453.28113469123713
20
357.80503591197771
30
0
0
SPLINE
5
171
100
AcDbEntity
8
0
100
AcDbSpline
70
0
71
2
72
6
73
3
74
0
42
0.000000001
43
0.0000000001
44
0.0000000001
40
0
40
0
40
0
40
1
40
1
40
1
10
453.28113469123713
20
357.80503591197771
30
0
10
453.23908957481257
20
357.5779875149135
30
0
10
453.19283875465266
20
357.50650724071306
30
0
0
SPLINE
5
172
100
AcDbEntity
8
0
100
AcDbSpline
70
0
71
2
72
6
73
3
74
0
42
0.000000001
43
0.0000000001
44
0.0000000001
40
0
40
0
40
0
40
1
40
1
40
1
10
453.19283875465266
20
357.50650724071306
30
0
10
453.14658555030695
20
357.43502935069841
30
0
10
452.95317324638239
20
357.32570966380877
30
0
0
SPLINE
5
173
100
AcDbEntity
8
0
100
AcDbSpline
70
0
71
2
72
6
73
3
74
0
42
0.000000001
43
0.0000000001
44
0.0000000001
40
0
40
0
40
0
40
1
40
1
40
1
10
452.95317324638239
20
357.32570966380877
30
0
10
451.82633313178889
20
356.71183427470964
30
0
10
450.69949540138117
20
356.10636790889544
30
0
0
SPLINE
5
174
100
AcDbEntity
8
0
100
AcDbSpline
70
0
71
2
72
6
73
3
74
0
42
0.000000001
43
0.0000000001
44
0.0000000001
40
0
40
0
40
0
40
1
40
1
40
1
10
450.69949540138117
20
356.10636790889544
30
0
10
448.88309630393854
20
355.10566791194719
30
0
10
448.6980930232989
20
354.91225322383684
30
0
0
SPLINE
5
175
100
AcDbEntity
8
0
100
AcDbSpline
70
0
71
2
72
6
73
3
74
0
42
0.000000001
43
0.0000000001
44
0.0000000001
40
0
40
0
40
0
40
1
40
1
40
1
10
448.6980930232989
20
354.91225322383684
30
0
10
449.02605446815363
20
354.00405486720842
30
0
10
449.16901024818293
20
354.00405486720842
30
0
0
SPLINE
5
176
100
AcDbEntity
8
0
100
AcDbSpline
70
0
71
2
72
6
73
3
74
0
42
0.000000001
43
0.0000000001
44
0.0000000001
40
0
40
0
40
0
40
1
40
1
40
1
10
449.16901024818293
20
354.00405486720842
30
0
10
449.79970606803766
20
354.00405486720842
30
0
10
451.07370766639582
20
354.05451139110369
30
0
0
SPLINE
5
177
100
AcDbEntity
8
0
100
AcDbSpline
70
0
71
2
72
6
73
3
74
0
42
0.000000001
43
0.0000000001
44
0.0000000001
40
0
40
0
40
0
40
1
40
1
40
1
10
451.07370766639582
20
354.05451139110369
30
0
10
452.34770688056818
20
354.10496791499895
30
0
10
452.98681172370783
20
354.10496791499895
30
0
0
SPLINE
5
178
100
AcDbEntity
8
0
100
AcDbSpline
70
0
71
2
72
6
73
3
74
0
42
0.000000001
43
0.0000000001
44
0.0000000001
40
0
40
0
40
0
40
1
40
1
40
1
10
452.98681172370783
20
354.10496791499895
30
0
10
453.24749859809748
20
354.10496791499895
30
0
10
453.28113469123713
20
353.87791713374895
30
0
0
SPLINE
5
179
100
AcDbEntity
8
0
100
AcDbSpline
70
0
71
2
72
6
73
3
74
0
42
0.000000001
43
0.0000000001
44
0.0000000001
40
0
40
0
40
0
40
1
40
1
40
1
10
453.28113469123713
20
353.87791713374895
30
0
10
453.34840926170222
20
353.44063600200457
30
0
10
453.34840926170222
20
352.29697784084124
30
0
0
SPLINE
5
180
100
AcDbEntity
8
0
100
AcDbSpline
70
0
71
2
72
6
73
3
74
0
42
0.000000001
43
0.0000000001
44
0.0000000001
40
0
40
0
40
0
40
1
40
1
40
1
10
453.34840926170222
20
352.29697784084124
30
0
10
453.34840926170222
20
351.20377620357317
30
0
10
453.28113469123713
20
350.8505876888637
30
0
0
SPLINE
5
181
100
AcDbEntity
8
0
100
AcDbSpline
70
0
71
2
72
6
73
3
74
0
42
0.000000001
43
0.0000000001
44
0.0000000001
40
0
40
0
40
0
40
1
40
1
40
1
10
453.28113469123713
20
350.8505876888637
30
0
10
453.23067816734186
20
350.60671886104387
30
0
10
453.02044781684748
20
350.60671886104387
30
0
0
SPLINE
5
182
100
AcDbEntity
8
0
100
AcDbSpline
70
0
71
2
72
6
73
3
74
0
42
0.000000001
43
0.0000000001
44
0.0000000001
40
0
40
0
40
0
40
1
40
1
40
1
10
453.02044781684748
20
350.60671886104387
30
0
10
452.11224946021906
20
350.60671886104387
30
0
10
450.27903231620661
20
350.69501479762835
30
0
0
SPLINE
5
183
100
AcDbEntity
8
0
100
AcDbSpline
70
0
71
2
72
6
73
3
74
0
42
0.000000001
43
0.0000000001
44
0.0000000001
40
0
40
0
40
0
40
1
40
1
40
1
10
450.27903231620661
20
350.69501479762835
30
0
10
448.44581517219416
20
350.78331311839861
30
0
10
447.52920779228083
20
350.78331311839861
30
0
0
SPLINE
5
184
100
AcDbEntity
8
0
100
AcDbSpline
70
0
71
2
72
6
73
3
74
0
42
0.000000001
43
0.0000000001
44
0.0000000001
40
0
40
0
40
0
40
1
40
1
40
1
10
447.52920779228083
20
350.78331311839861
30
0
10
446.55373486518732
20
350.78331311839861
30
0
10
444.59858330726496
20
350.6992205013637
30
0
0
SPLINE
5
185
100
AcDbEntity
8
0
100
AcDbSpline
70
0
71
2
72
6
73
3
74
0
42
0.000000001
43
0.0000000001
44
0.0000000001
40
0
40
0
40
0
40
1
40
1
40
1
10
444.59858330726496
20
350.6992205013637
30
0
10
442.64343294143549
20
350.61512788432879
30
0
10
441.66796001434199
20
350.61512788432879
30
0
0
SPLINE
5
186
100
AcDbEntity
8
0
100
AcDbSpline
70
0
71
2
72
6
73
3
74
0
42
0.000000001
43
0.0000000001
44
0.0000000001
40
0
40
0
40
0
40
1
40
1
40
1
10
441.66796001434199
20
350.61512788432879
30
0
10
441.48295673370234
20
350.61512788432879
30
0
10
441.48295673370234
20
350.79172214168352
30
0
0
SPLINE
5
187
100
AcDbEntity
8
0
100
AcDbSpline
70
0
71
2
72
6
73
3
74
0
42
0.000000001
43
0.0000000001
44
0.0000000001
40
0
40
0
40
0
40
1
40
1
40
1
10
441.48295673370234
20
350.79172214168352
30
0
10
441.48295673370234
20
351.05240901607317
30
0
10
441.50818380355707
20
351.57798846858782
30
0
0
SPLINE
5
188
100
AcDbEntity
8
0
100
AcDbSpline
70
0
71
2
72
6
73
3
74
0
42
0.000000001
43
0.0000000001
44
0.0000000001
40
0
40
0
40
0
40
1
40
1
40
1
10
441.50818380355707
20
351.57798846858782
30
0
10
441.53341206550471
20
352.10356553691668
30
0
10
441.53341206550471
20
352.36425241130632
30
0
0
SPLINE
5
189
100
AcDbEntity
8
0
100
AcDbSpline
70
0
71
2
72
6
73
3
74
0
42
0.000000001
43
0.0000000001
44
0.0000000001
40
0
40
0
40
0
40
1
40
1
40
1
10
441.53341206550471
20
352.36425241130632
30
0
10
441.53341206550471
20
352.63334830898089
30
0
10
441.50818380355707
20
353.16313108104509
30
0
0
SPLINE
5
190
100
AcDbEntity
8
0
100
AcDbSpline
70
0
71
2
72
6
73
3
74
0
42
0.000000001
43
0.0000000001
44
0.0000000001
40
0
40
0
40
0
40
1
40
1
40
1
10
441.50818380355707
20
353.16313108104509
30
0
10
441.48295673370234
20
353.6929138531093
30
0
10
441.48295673370234
20
353.95360072749895
30
0
0
SPLINE
5
191
100
AcDbEntity
8
0
100
AcDbSpline
70
0
71
2
72
6
73
3
74
0
42
0.000000001
43
0.0000000001
44
0.0000000001
40
0
40
0
40
0
40
1
40
1
40
1
10
441.48295673370234
20
353.95360072749895
30
0
10
441.48295673370234
20
354.09655650752825
30
0
10
441.63432272910944
20
354.09655650752825
30
0
0
SPLINE
5
192
100
AcDbEntity
8
0
100
AcDbSpline
70
0
71
2
72
6
73
3
74
0
42
0.000000001
43
0.0000000001
44
0.0000000001
40
0
40
0
40
0
40
1
40
1
40
1
10
441.63432272910944
20
354.09655650752825
30
0
10
442.25660714149348
20
354.09655650752825
30
0
10
443.51379069328181
20
354.03348764079851
30
0
0
SPLINE
5
193
100
AcDbEntity
8
0
100
AcDbSpline
70
0
71
2
72
6
73
3
74
0
42
0.000000001
43
0.0000000001
44
0.0000000001
40
0
40
0
40
0
40
1
40
1
40
1
10
443.51379069328181
20
354.03348764079851
30
0
10
444.77097424507014
20
353.97041877406878
30
0
10
445.39325865745417
20
353.97041877406878
30
0
0
SPLINE
5
194
100
AcDbEntity
8
0
100
AcDbSpline
70
0
71
2
72
6
73
3
74
0
42
0.000000001
43
0.0000000001
44
0.0000000001
40
0
40
0
40
0
40
1
40
1
40
1
10
445.39325865745417
20
353.97041877406878
30
0
10
446.11645373344294
20
353.97041877406878
30
0
10
446.11645373344294
20
354.3656547893886
30
0
0
SPLINE
5
195
100
AcDbEntity
8
0
100
AcDbSpline
70
0
71
2
72
6
73
3
74
0
42
0.000000001
43
0.0000000001
44
0.0000000001
40
0
40
0
40
0
40
1
40
1
40
1
10
446.11645373344294
20
354.3656547893886
30
0
10
446.11645373344294
20
355.36635478633684
30
0
10
445.56985291480891
20
355.92136462825579
30
0
0
SPLINE
5
196
100
AcDbEntity
8
0
100
AcDbSpline
70
0
71
2
72
6
73
3
74
0
42
0.000000001
43
0.0000000001
44
0.0000000001
40
0
40
0
40
0
40
1
40
1
40
1
10
445.56985291480891
20
355.92136462825579
30
0
10
445.16620787620417
20
356.33341869014544
30
0
10
444.09823330879084
20
356.75388177532
30
0
0
SPLINE
5
197
100
AcDbEntity
8
0
100
AcDbSpline
70
0
71
2
72
6
73
3
74
0
42
0.000000001
43
0.0000000001
44
0.0000000001
40
0
40
0
40
0
40
1
40
1
40
1
10
444.09823330879084
20
356.75388177532
30
0
10
443.28253659248224
20
357.02297528880877
30
0
10
441.69318827628962
20
357.63685067790789
30
0
0
SPLINE
5
198
100
AcDbEntity
8
0
100
AcDbSpline
70
0
71
2
72
6
73
3
74
0
42
0.000000001
43
0.0000000001
44
0.0000000001
40
0
40
0
40
0
40
1
40
1
40
1
10
441.69318827628962
20
357.63685067790789
30
0
10
441.48295673370234
20
357.72935231822771
30
0
10
441.48295673370234
20
358.01526864665789
30
0
0
SPLINE
5
199
100
AcDbEntity
8
0
100
AcDbSpline
70
0
71
2
72
6
73
3
74
0
42
0.000000001
43
0.0000000001
44
0.0000000001
40
0
40
0
40
0
40
1
40
1
40
1
10
441.48295673370234
20
358.01526864665789
30
0
10
441.48295673370234
20
358.23390802043718
30
0
10
441.50818380355707
20
358.67539247173113
30
0
0
SPLINE
5
200
100
AcDbEntity
8
0
100
AcDbSpline
70
0
71
2
72
6
73
3
74
0
42
0.000000001
43
0.0000000001
44
0.0000000001
40
0
40
0
40
0
40
1
40
1
40
1
10
441.50818380355707
20
358.67539247173113
30
0
10
441.53341206550471
20
359.11687930721087
30
0
10
441.53341206550471
20
359.33552106517595
30
0
0
SPLINE
5
201
100
AcDbEntity
8
0
100
AcDbSpline
70
0
71
2
72
6
73
3
74
0
42
0.000000001
43
0.0000000001
44
0.0000000001
40
0
40
0
40
0
40
1
40
1
40
1
10
441.53341206550471
20
359.33552106517595
30
0
10
441.53341206550471
20
359.56256946224016
30
0
10
441.51659401893488
20
360.01246532100481
30
0
0
SPLINE
5
202
100
AcDbEntity
8
0
100
AcDbSpline
70
0
71
2
72
6
73
3
74
0
42
0.000000001
43
0.0000000001
44
0.0000000001
40
0
40
0
40
0
40
1
40
1
40
1
10
441.51659401893488
20
360.01246532100481
30
0
10
441.49977478027216
20
360.46235879558367
30
0
10
441.49977478027216
20
360.68100055354876
30
0
0
SPLINE
5
203
100
AcDbEntity
8
0
100
AcDbSpline
70
0
71
2
72
6
73
3
74
0
42
0.000000001
43
0.0000000001
44
0.0000000001
40
0
40
0
40
0
40
1
40
1
40
1
10
441.49977478027216
20
360.68100055354876
30
0
10
441.49977478027216
20
360.88282188075823
30
0
10
441.69318827628962
20
360.88282188075823
30
0
0
SPLINE
5
204
100
AcDbEntity
8
0
100
AcDbSpline
70
0
71
2
72
6
73
3
74
0
42
0.000000001
43
0.0000000001
44
0.0000000001
40
0
40
0
40
0
40
1
40
1
40
1
10
441.69318827628962
20
360.88282188075823
30
0
10
441.97069319724909
20
360.88282188075823
30
0
10
443.04707678794733
20
360.52963336604876
30
0
0
SPLINE
5
205
100
AcDbEntity
8
0
100
AcDbSpline
70
0
71
2
72
6
73
3
74
0
42
0.000000001
43
0.0000000001
44
0.0000000001
40
0
40
0
40
0
40
1
40
1
40
1
10
443.04707678794733
20
360.52963336604876
30
0
10
446.22577342033259
20
359.48688586849016
30
0
10
447.01624306678644
20
358.13299735683245
30
0
0
SPLINE
5
206
100
AcDbEntity
8
0
100
AcDbSpline
70
0
71
2
72
6
73
3
74
0
42
0.000000001
43
0.0000000001
44
0.0000000001
40
0
40
0
40
0
40
1
40
1
40
1
10
447.01624306678644
20
358.13299735683245
30
0
10
447.17601927757136
20
357.85549243587297
30
0
10
447.27692994117609
20
357.85549243587297
30
0
0
SPLINE
5
207
100
AcDbEntity
8
0
100
AcDbSpline
70
0
71
2
72
6
73
3
74
0
42
0.000000001
43
0.0000000001
44
0.0000000001
40
0
40
0
40
0
40
1
40
1
40
1
10
447.27692994117609
20
357.85549243587297
30
0
10
447.26852091789118
20
357.85549243587297
30
0
10
449.79970606803766
20
359.4069989551906
30
0
0
SPLINE
5
208
100
AcDbEntity
8
0
100
AcDbSpline
70
0
71
2
72
6
73
3
74
0
42
0.000000001
43
0.0000000001
44
0.0000000001
40
0
40
0
40
0
40
1
40
1
40
1
10
449.79970606803766
20
359.4069989551906
30
0
10
452.33088883399836
20
360.95850547450823
30
0
10
452.81021746635309
20
360.95850547450823
30
0
0
SPLINE
5
209
100
AcDbEntity
8
0
100
AcDbSpline
70
0
71
2
72
6
73
3
74
0
42
0.000000001
43
0.0000000001
44
0.0000000001
40
0
40
0
40
0
40
1
40
1
40
1
10
446.806012716292
20
367.87091334956926
30
0
10
447.06669720649586
20
367.87091334956926
30
0
10
447.48716267585621
20
367.75318225520891
30
0
0
SPLINE
5
210
100
AcDbEntity
8
0
100
AcDbSpline
70
0
71
2
72
6
73
3
74
0
42
0.000000001
43
0.0000000001
44
0.0000000001
40
0
40
0
40
0
40
1
40
1
40
1
10
447.48716267585621
20
367.75318225520891
30
0
10
447.82353075981007
20
367.65227397578997
30
0
10
448.16831025123463
20
367.55976756709856
30
0
0
SPLINE
5
211
100
AcDbEntity
8
0
100
AcDbSpline
70
0
71
2
72
6
73
3
74
0
42
0.000000001
43
0.0000000001
44
0.0000000001
40
0
40
0
40
0
40
1
40
1
40
1
10
448.16831025123463
20
367.55976756709856
30
0
10
448.58877333640919
20
367.52613147395891
30
0
10
449.38765200614796
20
367.39999374049944
30
0
0
SPLINE
5
212
100
AcDbEntity
8
0
100
AcDbSpline
70
0
71
2
72
6
73
3
74
0
42
0.000000001
43
0.0000000001
44
0.0000000001
40
0
40
0
40
0
40
1
40
1
40
1
10
449.38765200614796
20
367.39999374049944
30
0
10
449.50538071632252
20
367.37476428645891
30
0
10
449.50538071632258
20
367.19817241328997
30
0
0
SPLINE
5
213
100
AcDbEntity
8
0
100
AcDbSpline
70
0
71
2
72
6
73
3
74
0
42
0.000000001
43
0.0000000001
44
0.0000000001
40
0
40
0
40
0
40
1
40
1
40
1
10
449.50538071632258
20
367.19817241328997
30
0
10
449.50538071632258
20
366.87861999172014
30
0
10
449.49697169303766
20
366.23531421321672
30
0
0
SPLINE
5
214
100
AcDbEntity
8
0
100
AcDbSpline
70
0
71
2
72
6
73
3
74
0
42
0.000000001
43
0.0000000001
44
0.0000000001
40
0
40
0
40
0
40
1
40
1
40
1
10
449.49697169303766
20
366.23531421321672
30
0
10
449.48856266975275
20
365.59200366634172
30
0
10
449.48856266975275
20
365.26404460567278
30
0
0
SPLINE
5
215
100
AcDbEntity
8
0
100
AcDbSpline
70
0
71
2
72
6
73
3
74
0
42
0.000000001
43
0.0000000001
44
0.0000000001
40
0
40
0
40
0
40
1
40
1
40
1
10
449.48856266975275
20
365.26404460567278
30
0
10
449.48856266975275
20
364.3810733188991
30
0
10
449.64833888053766
20
362.89263566631121
30
0
0
SPLINE
5
216
100
AcDbEntity
8
0
100
AcDbSpline
70
0
71
2
72
6
73
3
74
0
42
0.000000001
43
0.0000000001
44
0.0000000001
40
0
40
0
40
0
40
1
40
1
40
1
10
449.64833888053766
20
362.89263566631121
30
0
10
449.65674790382258
20
362.8085430492763
30
0
10
449.71561345100275
20
362.438536487997
30
0
0
SPLINE
5
217
100
AcDbEntity
8
0
100
AcDbSpline
70
0
71
2
72
6
73
3
74
0
42
0.000000001
43
0.0000000001
44
0.0000000001
40
0
40
0
40
0
40
1
40
1
40
1
10
449.71561345100275
20
362.438536487997
30
0
10
449.76606759071223
20
362.14421113628191
30
0
10
449.76606759071223
20
361.97602590221209
30
0
0
SPLINE
5
218
100
AcDbEntity
8
0
100
AcDbSpline
70
0
71
2
72
6
73
3
74
0
42
0.000000001
43
0.0000000001
44
0.0000000001
40
0
40
0
40
0
40
1
40
1
40
1
10
449.76606759071223
20
361.97602590221209
30
0
10
449.76606759071223
20
361.75738652843279
30
0
10
449.35401591300837
20
361.75738652843279
30
0
0
SPLINE
5
219
100
AcDbEntity
8
0
100
AcDbSpline
70
0
71
2
72
6
73
3
74
0
42
0.000000001
43
0.0000000001
44
0.0000000001
40
0
40
0
40
0
40
1
40
1
40
1
10
449.35401591300837
20
361.75738652843279
30
0
10
449.13537415504328
20
361.75738652843279
30
0
10
448.13467415809504
20
362.04330047267717
30
0
0
SPLINE
5
220
100
AcDbEntity
8
0
100
AcDbSpline
70
0
71
2
72
6
73
3
74
0
42
0.000000001
43
0.0000000001
44
0.0000000001
40
0
40
0
40
0
40
1
40
1
40
1
10
448.13467415809504
20
362.04330047267717
30
0
10
447.18442830085627
20
362.32080539363665
30
0
10
446.9069233798968
20
362.44694551128191
30
0
0
SPLINE
5
221
100
AcDbEntity
8
0
100
AcDbSpline
70
0
71
2
72
6
73
3
74
0
42
0.000000001
43
0.0000000001
44
0.0000000001
40
0
40
0
40
0
40
1
40
1
40
1
10
446.9069233798968
20
362.44694551128191
30
0
10
446.77237423896662
20
362.5058086742763
30
0
10
446.77237423896662
20
362.66558488506121
30
0
0
SPLINE
5
222
100
AcDbEntity
8
0
100
AcDbSpline
70
0
71
2
72
6
73
3
74
0
42
0.000000001
43
0.0000000001
44
0.0000000001
40
0
40
0
40
0
40
1
40
1
40
1
10
446.77237423896662
20
362.66558488506121
30
0
10
446.77237423896662
20
362.99354632991594
30
0
10
446.80601271629206
20
363.64946683543963
30
0
0
SPLINE
5
223
100
AcDbEntity
8
0
100
AcDbSpline
70
0
71
2
72
6
73
3
74
0
42
0.000000001
43
0.0000000001
44
0.0000000001
40
0
40
0
40
0
40
1
40
1
40
1
10
446.80601271629206
20
363.64946683543963
30
0
10
446.83964880943171
20
364.3053897251491
30
0
10
446.83964880943171
20
364.63335117000383
30
0
0
SPLINE
5
224
100
AcDbEntity
8
0
100
AcDbSpline
70
0
71
2
72
6
73
3
74
0
42
0.000000001
43
0.0000000001
44
0.0000000001
40
0
40
0
40
0
40
1
40
1
40
1
10
446.83964880943171
20
364.63335117000383
30
0
10
446.83964880943171
20
365.32290538448137
30
0
10
446.63782748222224
20
366.91225608485979
30
0
0
SPLINE
5
225
100
AcDbEntity
8
0
100
AcDbSpline
70
0
71
2
72
6
73
3
74
0
42
0.000000001
43
0.0000000001
44
0.0000000001
40
0
40
0
40
0
40
1
40
1
40
1
10
446.63782748222224
20
366.91225608485979
30
0
10
446.52850541114674
20
367.74477084773821
30
0
10
446.52850541114674
20
367.69431670802874
30
0
0
SPLINE
5
226
100
AcDbEntity
8
0
100
AcDbSpline
70
0
71
2
72
6
73
3
74
0
42
0.000000001
43
0.0000000001
44
0.0000000001
40
0
40
0
40
0
40
1
40
1
40
1
10
446.52850541114674
20
367.69431670802874
30
0
10
446.52850541114674
20
367.87091334956926
30
0
10
446.806012716292
20
367.87091334956926
30
0
0
SPLINE
5
227
100
AcDbEntity
8
0
100
AcDbSpline
70
0
71
2
72
6
73
3
74
0
42
0.000000001
43
0.0000000001
44
0.0000000001
40
0
40
0
40
0
40
1
40
1
40
1
10
453.42409285545216
20
376.96971973079485
30
0
10
453.42409285545216
20
376.2465198864345
30
0
10
453.39045437812672
20
375.08605083125872
30
0
0
SPLINE
5
228
100
AcDbEntity
8
0
100
AcDbSpline
70
0
71
2
72
6
73
3
74
0
42
0.000000001
43
0.0000000001
44
0.0000000001
40
0
40
0
40
0
40
1
40
1
40
1
10
453.39045437812672
20
375.08605083125872
30
0
10
453.35681828498707
20
373.57237895625872
30
0
10
453.34840926170216
20
373.20237239497942
30
0
0
LINE
5
229
100
AcDbEntity
8
0
100
AcDbLine
10
453.34840926170216
20
373.20237239497942
30
0
11
453.31477078437672
21
370.68801005977434
31
0
0
SPLINE
5
230
100
AcDbEntity
8
0
100
AcDbSpline
70
0
71
2
72
6
73
3
74
0
42
0.000000001
43
0.0000000001
44
0.0000000001
40
0
40
0
40
0
40
1
40
1
40
1
10
453.31477078437672
20
370.68801005977434
30
0
10
453.32317980766163
20
370.30959209102434
30
0
10
453.28113469123707
20
369.6032150616054
30
0
0
SPLINE
5
231
100
AcDbEntity
8
0
100
AcDbSpline
70
0
71
2
72
6
73
3
74
0
42
0.000000001
43
0.0000000001
44
0.0000000001
40
0
40
0
40
0
40
1
40
1
40
1
10
453.28113469123707
20
369.6032150616054
30
0
10
453.23908957481251
20
369.35935100215715
30
0
10
453.02044781684742
20
369.35935100215715
30
0
0
SPLINE
5
232
100
AcDbEntity
8
0
100
AcDbSpline
70
0
71
2
72
6
73
3
74
0
42
0.000000001
43
0.0000000001
44
0.0000000001
40
0
40
0
40
0
40
1
40
1
40
1
10
453.02044781684742
20
369.35935100215715
30
0
10
452.10384043693409
20
369.35935100215715
30
0
10
450.27482899665699
20
369.38878139156145
30
0
0
SPLINE
5
233
100
AcDbEntity
8
0
100
AcDbSpline
70
0
71
2
72
6
73
3
74
0
42
0.000000001
43
0.0000000001
44
0.0000000001
40
0
40
0
40
0
40
1
40
1
40
1
10
450.27482899665699
20
369.38878139156145
30
0
10
448.4458151721941
20
369.41821178096575
30
0
10
447.52920779228077
20
369.41821178096575
30
0
0
SPLINE
5
234
100
AcDbEntity
8
0
100
AcDbSpline
70
0
71
2
72
6
73
3
74
0
42
0.000000001
43
0.0000000001
44
0.0000000001
40
0
40
0
40
0
40
1
40
1
40
1
10
447.52920779228077
20
369.41821178096575
30
0
10
446.55373486518727
20
369.41821178096575
30
0
10
444.60699233054982
20
369.35935100215715
30
0
0
SPLINE
5
235
100
AcDbEntity
8
0
100
AcDbSpline
70
0
71
2
72
6
73
3
74
0
42
0.000000001
43
0.0000000001
44
0.0000000001
40
0
40
0
40
0
40
1
40
1
40
1
10
444.60699233054982
20
369.35935100215715
30
0
10
442.66025098800526
20
369.3004806866054
30
0
10
441.68477806091175
20
369.3004806866054
30
0
0
SPLINE
5
236
100
AcDbEntity
8
0
100
AcDbSpline
70
0
71
2
72
6
73
3
74
0
42
0.000000001
43
0.0000000001
44
0.0000000001
40
0
40
0
40
0
40
1
40
1
40
1
10
441.68477806091175
20
369.3004806866054
30
0
10
441.49977478027211
20
369.3004806866054
30
0
10
441.49977478027211
20
369.55276092189592
30
0
0
SPLINE
5
237
100
AcDbEntity
8
0
100
AcDbSpline
70
0
71
2
72
6
73
3
74
0
42
0.000000001
43
0.0000000001
44
0.0000000001
40
0
40
0
40
0
40
1
40
1
40
1
10
441.49977478027211
20
369.55276092189592
30
0
10
441.49977478027211
20
369.80504115718645
30
0
10
441.52500304221974
20
370.30538638728899
30
0
0
SPLINE
5
238
100
AcDbEntity
8
0
100
AcDbSpline
70
0
71
2
72
6
73
3
74
0
42
0.000000001
43
0.0000000001
44
0.0000000001
40
0
40
0
40
0
40
1
40
1
40
1
10
441.52500304221974
20
370.30538638728899
30
0
10
441.55023011207447
20
370.80574115413469
30
0
10
441.55023011207447
20
371.04960521358294
30
0
0
SPLINE
5
239
100
AcDbEntity
8
0
100
AcDbSpline
70
0
71
2
72
6
73
3
74
0
42
0.000000001
43
0.0000000001
44
0.0000000001
40
0
40
0
40
0
40
1
40
1
40
1
10
441.55023011207447
20
371.04960521358294
30
0
10
441.55023011207447
20
371.32711490291399
30
0
10
441.52079733848439
20
371.87371333736223
30
0
0
SPLINE
5
240
100
AcDbEntity
8
0
100
AcDbSpline
70
0
71
2
72
6
73
3
74
0
42
0.000000001
43
0.0000000001
44
0.0000000001
40
0
40
0
40
0
40
1
40
1
40
1
10
441.52079733848439
20
371.87371333736223
30
0
10
441.49136575698719
20
372.42031177181047
30
0
10
441.49136575698719
20
372.69782146114153
30
0
0
SPLINE
5
241
100
AcDbEntity
8
0
100
AcDbSpline
70
0
71
2
72
6
73
3
74
0
42
0.000000001
43
0.0000000001
44
0.0000000001
40
0
40
0
40
0
40
1
40
1
40
1
10
441.49136575698719
20
372.69782146114153
30
0
10
441.49136575698719
20
372.823959194601
30
0
10
441.65114077567921
20
372.81555255550188
30
0
0
LINE
5
242
100
AcDbEntity
8
0
100
AcDbLine
10
441.65114077567921
20
372.81555255550188
30
0
11
441.76046165466175
21
372.80714114803118
31
0
0
SPLINE
5
243
100
AcDbEntity
8
0
100
AcDbSpline
70
0
71
2
72
6
73
3
74
0
42
0.000000001
43
0.0000000001
44
0.0000000001
40
0
40
0
40
0
40
1
40
1
40
1
10
441.76046165466175
20
372.80714114803118
30
0
10
443.34140094756947
20
372.70623286861223
30
0
10
446.51168736457691
20
372.58009036678118
30
0
0
LINE
5
244
100
AcDbEntity
8
0
100
AcDbLine
10
446.51168736457691
20
372.58009036678118
30
0
11
448.73173150062428
21
372.57167895931047
31
0
0
SPLINE
5
245
100
AcDbEntity
8
0
100
AcDbSpline
70
0
71
2
72
6
73
3
74
0
42
0.000000001
43
0.0000000001
44
0.0000000001
40
0
40
0
40
0
40
1
40
1
40
1
10
448.73173150062428
20
372.57167895931047
30
0
10
449.80811509132252
20
372.57167895931047
30
0
10
450.30425938606129
20
372.58009036678118
30
0
0
SPLINE
5
246
100
AcDbEntity
8
0
100
AcDbSpline
70
0
71
2
72
6
73
3
74
0
42
0.000000001
43
0.0000000001
44
0.0000000001
40
0
40
0
40
0
40
1
40
1
40
1
10
450.30425938606129
20
372.58009036678118
30
0
10
450.40517243385182
20
372.58850177425188
30
0
10
450.50608309745655
20
372.596908413351
30
0
0
SPLINE
5
247
100
AcDbEntity
8
0
100
AcDbSpline
70
0
71
2
72
6
73
3
74
0
42
0.000000001
43
0.0000000001
44
0.0000000001
40
0
40
0
40
0
40
1
40
1
40
1
10
450.50608309745655
20
372.596908413351
30
0
10
450.60699376106129
20
372.60531505245012
30
0
10
450.63222083091603
20
372.72304614681047
30
0
0
SPLINE
5
248
100
AcDbEntity
8
0
100
AcDbSpline
70
0
71
2
72
6
73
3
74
0
42
0.000000001
43
0.0000000001
44
0.0000000001
40
0
40
0
40
0
40
1
40
1
40
1
10
450.63222083091603
20
372.72304614681047
30
0
10
450.63222083091603
20
372.73145755428118
30
0
10
450.63222083091603
20
372.94168552058977
30
0
0
SPLINE
5
249
100
AcDbEntity
8
0
100
AcDbSpline
70
0
71
2
72
6
73
3
74
0
42
0.000000001
43
0.0000000001
44
0.0000000001
40
0
40
0
40
0
40
1
40
1
40
1
10
450.63222083091603
20
372.94168552058977
30
0
10
450.63222083091603
20
373.69852145808977
30
0
10
450.55233391761647
20
375.20797809261126
30
0
0
SPLINE
5
250
100
AcDbEntity
8
0
100
AcDbSpline
70
0
71
2
72
6
73
3
74
0
42
0.000000001
43
0.0000000001
44
0.0000000001
40
0
40
0
40
0
40
1
40
1
40
1
10
450.55233391761647
20
375.20797809261126
30
0
10
450.47244462013111
20
376.7174442638759
30
0
10
450.47244462013111
20
377.47427066463274
30
0
0
SPLINE
5
251
100
AcDbEntity
8
0
100
AcDbSpline
70
0
71
2
72
6
73
3
74
0
42
0.000000001
43
0.0000000001
44
0.0000000001
40
0
40
0
40
0
40
1
40
1
40
1
10
450.47244462013111
20
377.47427066463274
30
0
10
450.47244462013111
20
377.70132144588274
30
0
10
450.66585692405567
20
377.70132144588274
30
0
0
SPLINE
5
252
100
AcDbEntity
8
0
100
AcDbSpline
70
0
71
2
72
6
73
3
74
0
42
0.000000001
43
0.0000000001
44
0.0000000001
40
0
40
0
40
0
40
1
40
1
40
1
10
450.66585692405567
20
377.70132144588274
30
0
10
452.10384043693409
20
377.70132144588274
30
0
10
453.1465855503069
20
377.49109347957415
30
0
0
SPLINE
5
253
100
AcDbEntity
8
0
100
AcDbSpline
70
0
71
2
72
6
73
3
74
0
42
0.000000001
43
0.0000000001
44
0.0000000001
40
0
40
0
40
0
40
1
40
1
40
1
10
453.1465855503069
20
377.49109347957415
30
0
10
453.36522730827198
20
377.4490459789638
30
0
10
453.40727242469654
20
377.3145016064052
30
0
0
SPLINE
5
254
100
AcDbEntity
8
0
100
AcDbSpline
70
0
71
2
72
6
73
3
74
0
42
0.000000001
43
0.0000000001
44
0.0000000001
40
0
40
0
40
0
40
1
40
1
40
1
10
453.40727242469654
20
377.3145016064052
30
0
10
453.42409285545216
20
377.27245410579485
30
0
10
453.42409285545216
20
376.96971973079485
30
0
0
SPLINE
5
255
100
AcDbEntity
8
0
100
AcDbSpline
70
0
71
2
72
6
73
3
74
0
42
0.000000001
43
0.0000000001
44
0.0000000001
40
0
40
0
40
0
40
1
40
1
40
1
10
448.71491106986866
20
386.30398830074114
30
0
10
449.5642462635027
20
386.30398830074114
30
0
10
449.68197497367726
20
385.75738032954973
30
0
0
SPLINE
5
256
100
AcDbEntity
8
0
100
AcDbSpline
70
0
71
2
72
6
73
3
74
0
42
0.000000001
43
0.0000000001
44
0.0000000001
40
0
40
0
40
0
40
1
40
1
40
1
10
449.68197497367726
20
385.75738032954973
30
0
10
449.69879302024708
20
385.66488345760149
30
0
10
449.8669782543169
20
384.0166672100429
30
0
0
SPLINE
5
257
100
AcDbEntity
8
0
100
AcDbSpline
70
0
71
2
72
6
73
3
74
0
42
0.000000001
43
0.0000000001
44
0.0000000001
40
0
40
0
40
0
40
1
40
1
40
1
10
449.8669782543169
20
384.0166672100429
30
0
10
449.97630032539234
20
383.02437862056536
30
0
10
450.12766512870655
20
381.05661471980852
30
0
0
SPLINE
5
258
100
AcDbEntity
8
0
100
AcDbSpline
70
0
71
2
72
6
73
3
74
0
42
0.000000001
43
0.0000000001
44
0.0000000001
40
0
40
0
40
0
40
1
40
1
40
1
10
450.12766512870655
20
381.05661471980852
30
0
10
450.67426594734059
20
381.17434581416887
30
0
10
450.96018227577076
20
381.77140315669817
30
0
0
SPLINE
5
259
100
AcDbEntity
8
0
100
AcDbSpline
70
0
71
2
72
6
73
3
74
0
42
0.000000001
43
0.0000000001
44
0.0000000001
40
0
40
0
40
0
40
1
40
1
40
1
10
450.96018227577076
20
381.77140315669817
30
0
10
451.19563969611988
20
382.25913127559465
30
0
10
451.19563969611988
20
382.88142284053606
30
0
0
SPLINE
5
260
100
AcDbEntity
8
0
100
AcDbSpline
70
0
71
2
72
6
73
3
74
0
42
0.000000001
43
0.0000000001
44
0.0000000001
40
0
40
0
40
0
40
1
40
1
40
1
10
451.19563969611988
20
382.88142284053606
30
0
10
451.19563969611988
20
383.62984737056536
30
0
10
450.79199704170094
20
384.38667377132219
30
0
0
SPLINE
5
261
100
AcDbEntity
8
0
100
AcDbSpline
70
0
71
2
72
6
73
3
74
0
42
0.000000001
43
0.0000000001
44
0.0000000001
40
0
40
0
40
0
40
1
40
1
40
1
10
450.79199704170094
20
384.38667377132219
30
0
10
450.59017571449147
20
384.7062309612636
30
0
10
450.3883520030962
20
385.02577861446184
30
0
0
SPLINE
5
262
100
AcDbEntity
8
0
100
AcDbSpline
70
0
71
2
72
6
73
3
74
0
42
0.000000001
43
0.0000000001
44
0.0000000001
40
0
40
0
40
0
40
1
40
1
40
1
10
450.3883520030962
20
385.02577861446184
30
0
10
450.47244462013111
20
385.20237048763079
30
0
10
451.24609622001515
20
385.61863025325579
30
0
0
SPLINE
5
263
100
AcDbEntity
8
0
100
AcDbSpline
70
0
71
2
72
6
73
3
74
0
42
0.000000001
43
0.0000000001
44
0.0000000001
40
0
40
0
40
0
40
1
40
1
40
1
10
451.24609622001515
20
385.61863025325579
30
0
10
452.01974781989918
20
386.03489001888079
30
0
10
452.22997817039357
20
386.03489001888079
30
0
0
SPLINE
5
264
100
AcDbEntity
8
0
100
AcDbSpline
70
0
71
2
72
6
73
3
74
0
42
0.000000001
43
0.0000000001
44
0.0000000001
40
0
40
0
40
0
40
1
40
1
40
1
10
452.22997817039357
20
386.03489001888079
30
0
10
452.28884371757374
20
386.03489001888079
30
0
10
452.42339047431813
20
385.90874751704973
30
0
0
SPLINE
5
265
100
AcDbEntity
8
0
100
AcDbSpline
70
0
71
2
72
6
73
3
74
0
42
0.000000001
43
0.0000000001
44
0.0000000001
40
0
40
0
40
0
40
1
40
1
40
1
10
452.42339047431813
20
385.90874751704973
30
0
10
453.5250035190569
20
384.88282283443255
30
0
10
453.5250035190569
20
382.72164424556536
30
0
0
SPLINE
5
266
100
AcDbEntity
8
0
100
AcDbSpline
70
0
71
2
72
6
73
3
74
0
42
0.000000001
43
0.0000000001
44
0.0000000001
40
0
40
0
40
0
40
1
40
1
40
1
10
453.5250035190569
20
382.72164424556536
30
0
10
453.5250035190569
20
380.72024425166887
30
0
10
452.35611828803883
20
379.49249347347063
30
0
0
SPLINE
5
267
100
AcDbEntity
8
0
100
AcDbSpline
70
0
71
2
72
6
73
3
74
0
42
0.000000001
43
0.0000000001
44
0.0000000001
40
0
40
0
40
0
40
1
40
1
40
1
10
452.35611828803883
20
379.49249347347063
30
0
10
451.17041262626515
20
378.23110660213274
30
0
10
449.18583067893849
20
378.23110660213274
30
0
0
SPLINE
5
268
100
AcDbEntity
8
0
100
AcDbSpline
70
0
71
2
72
6
73
3
74
0
42
0.000000001
43
0.0000000001
44
0.0000000001
40
0
40
0
40
0
40
1
40
1
40
1
10
449.18583067893849
20
378.23110660213274
30
0
10
447.2517028713213
20
378.23110660213274
30
0
10
446.01554306983815
20
379.35793956416887
30
0
0
SPLINE
5
269
100
AcDbEntity
8
0
100
AcDbSpline
70
0
71
2
72
6
73
3
74
0
42
0.000000001
43
0.0000000001
44
0.0000000001
40
0
40
0
40
0
40
1
40
1
40
1
10
446.01554306983815
20
379.35793956416887
30
0
10
444.73733576774464
20
380.51841815608782
30
0
10
444.73733576774464
20
382.43573268550676
30
0
0
SPLINE
5
270
100
AcDbEntity
8
0
100
AcDbSpline
70
0
71
2
72
6
73
3
74
0
42
0.000000001
43
0.0000000001
44
0.0000000001
40
0
40
0
40
0
40
1
40
1
40
1
10
444.73733576774464
20
382.43573268550676
30
0
10
444.73733576774464
20
384.05030330318255
30
0
10
445.91463002204762
20
385.17714580196184
30
0
0
SPLINE
5
271
100
AcDbEntity
8
0
100
AcDbSpline
70
0
71
2
72
6
73
3
74
0
42
0.000000001
43
0.0000000001
44
0.0000000001
40
0
40
0
40
0
40
1
40
1
40
1
10
445.91463002204762
20
385.17714580196184
30
0
10
447.09192666053639
20
386.30398830074114
30
0
10
448.71491106986866
20
386.30398830074114
30
0
0
SPLINE
5
272
100
AcDbEntity
8
0
100
AcDbSpline
70
0
71
2
72
6
73
3
74
0
42
0.000000001
43
0.0000000001
44
0.0000000001
40
0
40
0
40
0
40
1
40
1
40
1
10
448.20194634437428
20
383.36074908870501
30
0
10
447.68057259559498
20
383.36074908870501
30
0
10
447.28533896446095
20
382.99074252742571
30
0
0
SPLINE
5
273
100
AcDbEntity
8
0
100
AcDbSpline
70
0
71
2
72
6
73
3
74
0
42
0.000000001
43
0.0000000001
44
0.0000000001
40
0
40
0
40
0
40
1
40
1
40
1
10
447.28533896446095
20
382.99074252742571
30
0
10
446.89010533332691
20
382.62073596614641
30
0
10
446.89010533332691
20
382.10776408809465
30
0
0
SPLINE
5
274
100
AcDbEntity
8
0
100
AcDbSpline
70
0
71
2
72
6
73
3
74
0
42
0.000000001
43
0.0000000001
44
0.0000000001
40
0
40
0
40
0
40
1
40
1
40
1
10
446.89010533332691
20
382.10776408809465
30
0
10
446.89010533332691
20
381.57798846858782
30
0
10
447.33579548835621
20
381.23320659297747
30
0
0
SPLINE
5
275
100
AcDbEntity
8
0
100
AcDbSpline
70
0
71
2
72
6
73
3
74
0
42
0.000000001
43
0.0000000001
44
0.0000000001
40
0
40
0
40
0
40
1
40
1
40
1
10
447.33579548835621
20
381.23320659297747
30
0
10
447.74784716606007
20
380.91365893977922
30
0
10
448.30285939216481
20
380.91365893977922
30
0
0
SPLINE
5
276
100
AcDbEntity
8
0
100
AcDbSpline
70
0
71
2
72
6
73
3
74
0
42
0.000000001
43
0.0000000001
44
0.0000000001
40
0
40
0
40
0
40
1
40
1
40
1
10
448.30285939216481
20
380.91365893977922
30
0
10
448.52990778922901
20
380.91365893977922
30
0
10
448.52990778922901
20
381.14911159175676
30
0
0
SPLINE
5
277
100
AcDbEntity
8
0
100
AcDbSpline
70
0
71
2
72
6
73
3
74
0
42
0.000000001
43
0.0000000001
44
0.0000000001
40
0
40
0
40
0
40
1
40
1
40
1
10
448.52990778922901
20
381.14911159175676
30
0
10
448.52990778922901
20
381.77140315669817
30
0
10
448.33649548530445
20
383.08323939937395
30
0
0
SPLINE
5
278
100
AcDbEntity
8
0
100
AcDbSpline
70
0
71
2
72
6
73
3
74
0
42
0.000000001
43
0.0000000001
44
0.0000000001
40
0
40
0
40
0
40
1
40
1
40
1
10
448.33649548530445
20
383.08323939937395
30
0
10
448.2944479846941
20
383.36074908870501
30
0
10
448.20194634437428
20
383.36074908870501
30
0
0
SPLINE
5
279
100
AcDbEntity
8
0
100
AcDbSpline
70
0
71
2
72
6
73
3
74
0
42
0.000000001
43
0.0000000001
44
0.0000000001
40
0
40
0
40
0
40
1
40
1
40
1
10
451.09472903251515
20
395.60462077754778
30
0
10
453.49136504173146
20
395.60462077754778
30
0
10
454.53411253929005
20
394.59550937312883
30
0
0
SPLINE
5
280
100
AcDbEntity
8
0
100
AcDbSpline
70
0
71
2
72
6
73
3
74
0
42
0.000000001
43
0.0000000001
44
0.0000000001
40
0
40
0
40
0
40
1
40
1
40
1
10
454.53411253929005
20
394.59550937312883
30
0
10
455.60208710670338
20
393.55276187557024
30
0
10
455.60208710670338
20
391.1308964123134
30
0
0
SPLINE
5
281
100
AcDbEntity
8
0
100
AcDbSpline
70
0
71
2
72
6
73
3
74
0
42
0.000000001
43
0.0000000001
44
0.0000000001
40
0
40
0
40
0
40
1
40
1
40
1
10
455.60208710670338
20
391.1308964123134
30
0
10
455.60208710670338
20
390.42451938289446
30
0
10
455.37503870963917
20
389.20518001216692
30
0
0
SPLINE
5
282
100
AcDbEntity
8
0
100
AcDbSpline
70
0
71
2
72
6
73
3
74
0
42
0.000000001
43
0.0000000001
44
0.0000000001
40
0
40
0
40
0
40
1
40
1
40
1
10
455.37503870963917
20
389.20518001216692
30
0
10
455.08912238120899
20
387.64947017329973
30
0
10
454.70229777335987
20
387.64947017329973
30
0
0
SPLINE
5
283
100
AcDbEntity
8
0
100
AcDbSpline
70
0
71
2
72
6
73
3
74
0
42
0.000000001
43
0.0000000001
44
0.0000000001
40
0
40
0
40
0
40
1
40
1
40
1
10
454.70229777335987
20
387.64947017329973
30
0
10
454.54252156257496
20
387.64947017329973
30
0
10
453.05408390998707
20
388.01106532710833
30
0
0
SPLINE
5
284
100
AcDbEntity
8
0
100
AcDbSpline
70
0
71
2
72
6
73
3
74
0
42
0.000000001
43
0.0000000001
44
0.0000000001
40
0
40
0
40
0
40
1
40
1
40
1
10
453.05408390998707
20
388.01106532710833
30
0
10
452.81862648963795
20
388.06992610591692
30
0
10
452.81862648963795
20
388.19606860774797
30
0
0
SPLINE
5
285
100
AcDbEntity
8
0
100
AcDbSpline
70
0
71
2
72
6
73
3
74
0
42
0.000000001
43
0.0000000001
44
0.0000000001
40
0
40
0
40
0
40
1
40
1
40
1
10
452.81862648963795
20
388.19606860774797
30
0
10
452.82703551292286
20
388.23811610835833
30
0
10
452.8522625827776
20
388.28856547969622
30
0
0
SPLINE
5
286
100
AcDbEntity
8
0
100
AcDbSpline
70
0
71
2
72
6
73
3
74
0
42
0.000000001
43
0.0000000001
44
0.0000000001
40
0
40
0
40
0
40
1
40
1
40
1
10
452.8522625827776
20
388.28856547969622
30
0
10
453.49136504173146
20
389.58359798091692
30
0
10
453.49136504173146
20
390.68520625728411
30
0
0
SPLINE
5
287
100
AcDbEntity
8
0
100
AcDbSpline
70
0
71
2
72
6
73
3
74
0
42
0.000000001
43
0.0000000001
44
0.0000000001
40
0
40
0
40
0
40
1
40
1
40
1
10
453.49136504173146
20
390.68520625728411
30
0
10
453.49136504173146
20
391.29067500728411
30
0
10
453.18863305091725
20
391.8877323498134
30
0
0
SPLINE
5
288
100
AcDbEntity
8
0
100
AcDbSpline
70
0
71
2
72
6
73
3
74
0
42
0.000000001
43
0.0000000001
44
0.0000000001
40
0
40
0
40
0
40
1
40
1
40
1
10
453.18863305091725
20
391.8877323498134
30
0
10
452.82703551292286
20
392.61092265743059
30
0
10
452.28043469428883
20
392.61092265743059
30
0
0
LINE
5
289
100
AcDbEntity
8
0
100
AcDbLine
10
452.28043469428883
20
392.61092265743059
30
0
11
451.71701344489918
21
392.61092265743059
31
0
0
SPLINE
5
290
100
AcDbEntity
8
0
100
AcDbSpline
70
0
71
2
72
6
73
3
74
0
42
0.000000001
43
0.0000000001
44
0.0000000001
40
0
40
0
40
0
40
1
40
1
40
1
10
451.71701344489918
20
392.61092265743059
30
0
10
452.52430113792286
20
391.75317844051165
30
0
10
452.52430113792286
20
390.40769656795305
30
0
0
SPLINE
5
291
100
AcDbEntity
8
0
100
AcDbSpline
70
0
71
2
72
6
73
3
74
0
42
0.000000001
43
0.0000000001
44
0.0000000001
40
0
40
0
40
0
40
1
40
1
40
1
10
452.52430113792286
20
390.40769656795305
30
0
10
452.52430113792286
20
388.82676204341692
30
0
10
451.38905200004444
20
387.80923923152727
30
0
0
SPLINE
5
292
100
AcDbEntity
8
0
100
AcDbSpline
70
0
71
2
72
6
73
3
74
0
42
0.000000001
43
0.0000000001
44
0.0000000001
40
0
40
0
40
0
40
1
40
1
40
1
10
451.38905200004444
20
387.80923923152727
30
0
10
450.29585036277638
20
386.82536204952044
30
0
10
448.69809302329884
20
386.82536204952044
30
0
0
SPLINE
5
293
100
AcDbEntity
8
0
100
AcDbSpline
70
0
71
2
72
6
73
3
74
0
42
0.000000001
43
0.0000000001
44
0.0000000001
40
0
40
0
40
0
40
1
40
1
40
1
10
448.69809302329884
20
386.82536204952044
30
0
10
447.09192666053639
20
386.82536204952044
30
0
10
446.03236111640797
20
387.76719173091692
30
0
0
SPLINE
5
294
100
AcDbEntity
8
0
100
AcDbSpline
70
0
71
2
72
6
73
3
74
0
42
0.000000001
43
0.0000000001
44
0.0000000001
40
0
40
0
40
0
40
1
40
1
40
1
10
446.03236111640797
20
387.76719173091692
30
0
10
444.9307480716692
20
388.75107844966692
30
0
10
444.9307480716692
20
390.34042438167376
30
0
0
SPLINE
5
295
100
AcDbEntity
8
0
100
AcDbSpline
70
0
71
2
72
6
73
3
74
0
42
0.000000001
43
0.0000000001
44
0.0000000001
40
0
40
0
40
0
40
1
40
1
40
1
10
444.9307480716692
20
390.34042438167376
30
0
10
444.9307480716692
20
391.61022266048235
30
0
10
445.83894642829762
20
392.28296359676165
30
0
0
SPLINE
5
296
100
AcDbEntity
8
0
100
AcDbSpline
70
0
71
2
72
6
73
3
74
0
42
0.000000001
43
0.0000000001
44
0.0000000001
40
0
40
0
40
0
40
1
40
1
40
1
10
445.83894642829762
20
392.28296359676165
30
0
10
446.02394970893727
20
392.41750796932024
30
0
10
446.02394970893727
20
392.4679668774013
30
0
0
SPLINE
5
297
100
AcDbEntity
8
0
100
AcDbSpline
70
0
71
2
72
6
73
3
74
0
42
0.000000001
43
0.0000000001
44
0.0000000001
40
0
40
0
40
0
40
1
40
1
40
1
10
446.02394970893727
20
392.4679668774013
30
0
10
446.02394970893727
20
392.5436504711513
30
0
10
445.72121771812306
20
392.5436504711513
30
0
0
SPLINE
5
298
100
AcDbEntity
8
0
100
AcDbSpline
70
0
71
2
72
6
73
3
74
0
42
0.000000001
43
0.0000000001
44
0.0000000001
40
0
40
0
40
0
40
1
40
1
40
1
10
445.72121771812306
20
392.5436504711513
30
0
10
445.04847678184376
20
392.5436504711513
30
0
10
445.04847678184376
20
392.6950176586513
30
0
0
SPLINE
5
299
100
AcDbEntity
8
0
100
AcDbSpline
70
0
71
2
72
6
73
3
74
0
42
0.000000001
43
0.0000000001
44
0.0000000001
40
0
40
0
40
0
40
1
40
1
40
1
10
445.04847678184376
20
392.6950176586513
30
0
10
445.04847678184376
20
392.82956203120989
30
0
10
445.18723162650929
20
394.14981921809954
30
0
0
SPLINE
5
300
100
AcDbEntity
8
0
100
AcDbSpline
70
0
71
2
72
6
73
3
74
0
42
0.000000001
43
0.0000000001
44
0.0000000001
40
0
40
0
40
0
40
1
40
1
40
1
10
445.18723162650929
20
394.14981921809954
30
0
10
445.32598408698902
20
395.47006686824602
30
0
10
445.34280213355885
20
395.52052577632708
30
0
0
SPLINE
5
301
100
AcDbEntity
8
0
100
AcDbSpline
70
0
71
2
72
6
73
3
74
0
42
0.000000001
43
0.0000000001
44
0.0000000001
40
0
40
0
40
0
40
1
40
1
40
1
10
445.34280213355885
20
395.52052577632708
30
0
10
445.39325627326832
20
395.66348155635637
30
0
10
445.56144150733815
20
395.66348155635637
30
0
0
SPLINE
5
302
100
AcDbEntity
8
0
100
AcDbSpline
70
0
71
2
72
6
73
3
74
0
42
0.000000001
43
0.0000000001
44
0.0000000001
40
0
40
0
40
0
40
1
40
1
40
1
10
445.56144150733815
20
395.66348155635637
30
0
10
446.14168080329762
20
395.66348155635637
30
0
10
447.29374798774586
20
395.62563975948137
30
0
0
SPLINE
5
303
100
AcDbEntity
8
0
100
AcDbSpline
70
0
71
2
72
6
73
3
74
0
42
0.000000001
43
0.0000000001
44
0.0000000001
40
0
40
0
40
0
40
1
40
1
40
1
10
447.29374798774586
20
395.62563975948137
30
0
10
448.4458151721941
20
395.58779796260637
30
0
10
449.02605446815357
20
395.58779796260637
30
0
0
SPLINE
5
304
100
AcDbEntity
8
0
100
AcDbSpline
70
0
71
2
72
6
73
3
74
0
42
0.000000001
43
0.0000000001
44
0.0000000001
40
0
40
0
40
0
40
1
40
1
40
1
10
449.02605446815357
20
395.58779796260637
30
0
10
449.37083157539234
20
395.58779796260637
30
0
10
450.06039055824147
20
395.59620937007708
30
0
0
SPLINE
5
305
100
AcDbEntity
8
0
100
AcDbSpline
70
0
71
2
72
6
73
3
74
0
42
0.000000001
43
0.0000000001
44
0.0000000001
40
0
40
0
40
0
40
1
40
1
40
1
10
450.06039055824147
20
395.59620937007708
30
0
10
450.74994954109059
20
395.60462077754778
30
0
10
451.09472903251515
20
395.60462077754778
30
0
0
SPLINE
5
306
100
AcDbEntity
8
0
100
AcDbSpline
70
0
71
2
72
6
73
3
74
0
42
0.000000001
43
0.0000000001
44
0.0000000001
40
0
40
0
40
0
40
1
40
1
40
1
10
448.76536759376393
20
392.6950176586513
30
0
10
448.15149220466481
20
392.6950176586513
30
0
10
447.70159634590016
20
392.287169300497
30
0
0
SPLINE
5
307
100
AcDbEntity
8
0
100
AcDbSpline
70
0
71
2
72
6
73
3
74
0
42
0.000000001
43
0.0000000001
44
0.0000000001
40
0
40
0
40
0
40
1
40
1
40
1
10
447.70159634590016
20
392.287169300497
30
0
10
447.25170048713551
20
391.8793209423427
30
0
10
447.25170048713551
20
391.265440784872
30
0
0
SPLINE
5
308
100
AcDbEntity
8
0
100
AcDbSpline
70
0
71
2
72
6
73
3
74
0
42
0.000000001
43
0.0000000001
44
0.0000000001
40
0
40
0
40
0
40
1
40
1
40
1
10
447.25170048713551
20
391.265440784872
30
0
10
447.25170048713551
20
390.65157016414446
30
0
10
447.71000536918507
20
390.24372180599016
30
0
0
SPLINE
5
309
100
AcDbEntity
8
0
100
AcDbSpline
70
0
71
2
72
6
73
3
74
0
42
0.000000001
43
0.0000000001
44
0.0000000001
40
0
40
0
40
0
40
1
40
1
40
1
10
447.71000536918507
20
390.24372180599016
30
0
10
448.16831025123463
20
389.83587344783587
30
0
10
448.78218564033375
20
389.83587344783587
30
0
0
SPLINE
5
310
100
AcDbEntity
8
0
100
AcDbSpline
70
0
71
2
72
6
73
3
74
0
42
0.000000001
43
0.0000000001
44
0.0000000001
40
0
40
0
40
0
40
1
40
1
40
1
10
448.78218564033375
20
389.83587344783587
30
0
10
449.39606102943287
20
389.83587344783587
30
0
10
449.84175118446217
20
390.25213321346087
30
0
0
SPLINE
5
311
100
AcDbEntity
8
0
100
AcDbSpline
70
0
71
2
72
6
73
3
74
0
42
0.000000001
43
0.0000000001
44
0.0000000001
40
0
40
0
40
0
40
1
40
1
40
1
10
449.84175118446217
20
390.25213321346087
30
0
10
450.28744133949147
20
390.6683834423427
30
0
10
450.28744133949147
20
391.265440784872
30
0
0
SPLINE
5
312
100
AcDbEntity
8
0
100
AcDbSpline
70
0
71
2
72
6
73
3
74
0
42
0.000000001
43
0.0000000001
44
0.0000000001
40
0
40
0
40
0
40
1
40
1
40
1
10
450.28744133949147
20
391.265440784872
30
0
10
450.28744133949147
20
391.8793209423427
30
0
10
449.83334216117726
20
392.287169300497
30
0
0
SPLINE
5
313
100
AcDbEntity
8
0
100
AcDbSpline
70
0
71
2
72
6
73
3
74
0
42
0.000000001
43
0.0000000001
44
0.0000000001
40
0
40
0
40
0
40
1
40
1
40
1
10
449.83334216117726
20
392.287169300497
30
0
10
449.37924298286305
20
392.6950176586513
30
0
10
448.76536759376393
20
392.6950176586513
30
0
0
SPLINE
5
314
100
AcDbEntity
8
0
100
AcDbSpline
70
0
71
2
72
6
73
3
74
0
42
0.000000001
43
0.0000000001
44
0.0000000001
40
0
40
0
40
0
40
1
40
1
40
1
10
449.14378317832814
20
405.14911731380266
30
0
10
451.0610929393755
20
405.14911731380266
30
0
10
452.2552052402483
20
403.97602161067766
30
0
0
SPLINE
5
315
100
AcDbEntity
8
0
100
AcDbSpline
70
0
71
2
72
6
73
3
74
0
42
0.000000001
43
0.0000000001
44
0.0000000001
40
0
40
0
40
0
40
1
40
1
40
1
10
452.2552052402483
20
403.97602161067766
30
0
10
453.4493199253069
20
402.80293544429583
30
0
10
453.4493199253069
20
400.89403232234758
30
0
0
SPLINE
5
316
100
AcDbEntity
8
0
100
AcDbSpline
70
0
71
2
72
6
73
3
74
0
42
0.000000001
43
0.0000000001
44
0.0000000001
40
0
40
0
40
0
40
1
40
1
40
1
10
453.4493199253069
20
400.89403232234758
30
0
10
453.4493199253069
20
399.0439995159511
30
0
10
452.27202567100392
20
397.84988483089251
30
0
0
SPLINE
5
317
100
AcDbEntity
8
0
100
AcDbSpline
70
0
71
2
72
6
73
3
74
0
42
0.000000001
43
0.0000000001
44
0.0000000001
40
0
40
0
40
0
40
1
40
1
40
1
10
452.27202567100392
20
397.84988483089251
30
0
10
451.09472903251515
20
396.65577014583391
30
0
10
449.24469384193287
20
396.65577014583391
30
0
0
SPLINE
5
318
100
AcDbEntity
8
0
100
AcDbSpline
70
0
71
2
72
6
73
3
74
0
42
0.000000001
43
0.0000000001
44
0.0000000001
40
0
40
0
40
0
40
1
40
1
40
1
10
449.24469384193287
20
396.65577014583391
30
0
10
447.29374798774586
20
396.65577014583391
30
0
10
446.07861193656788
20
397.79942592281145
30
0
0
SPLINE
5
319
100
AcDbEntity
8
0
100
AcDbSpline
70
0
71
2
72
6
73
3
74
0
42
0.000000001
43
0.0000000001
44
0.0000000001
40
0
40
0
40
0
40
1
40
1
40
1
10
446.07861193656788
20
397.79942592281145
30
0
10
444.8634758853899
20
398.94309123653215
30
0
10
444.8634758853899
20
400.89403232234758
30
0
0
SPLINE
5
320
100
AcDbEntity
8
0
100
AcDbSpline
70
0
71
2
72
6
73
3
74
0
42
0.000000001
43
0.0000000001
44
0.0000000001
40
0
40
0
40
0
40
1
40
1
40
1
10
444.8634758853899
20
400.89403232234758
30
0
10
444.8634758853899
20
402.79452403682512
30
0
10
446.05338486671315
20
403.97181590694231
30
0
0
SPLINE
5
321
100
AcDbEntity
8
0
100
AcDbSpline
70
0
71
2
72
6
73
3
74
0
42
0.000000001
43
0.0000000001
44
0.0000000001
40
0
40
0
40
0
40
1
40
1
40
1
10
446.05338486671315
20
403.97181590694231
30
0
10
447.24329384803639
20
405.14911731380266
30
0
10
449.14378317832814
20
405.14911731380266
30
0
0
SPLINE
5
322
100
AcDbEntity
8
0
100
AcDbSpline
70
0
71
2
72
6
73
3
74
0
42
0.000000001
43
0.0000000001
44
0.0000000001
40
0
40
0
40
0
40
1
40
1
40
1
10
449.14378317832814
20
402.39088138240618
30
0
10
448.47945364951954
20
402.39088138240618
30
0
10
447.97069462776051
20
401.97882732051653
30
0
0
SPLINE
5
323
100
AcDbEntity
8
0
100
AcDbSpline
70
0
71
2
72
6
73
3
74
0
42
0.000000001
43
0.0000000001
44
0.0000000001
40
0
40
0
40
0
40
1
40
1
40
1
10
447.97069462776051
20
401.97882732051653
30
0
10
447.46193322181568
20
401.56677325862688
30
0
10
447.46193322181568
20
400.91085513728899
30
0
0
SPLINE
5
324
100
AcDbEntity
8
0
100
AcDbSpline
70
0
71
2
72
6
73
3
74
0
42
0.000000001
43
0.0000000001
44
0.0000000001
40
0
40
0
40
0
40
1
40
1
40
1
10
447.46193322181568
20
400.91085513728899
30
0
10
447.46193322181568
20
400.2465256084804
30
0
10
447.98330697059498
20
399.81764873164934
30
0
0
SPLINE
5
325
100
AcDbEntity
8
0
100
AcDbSpline
70
0
71
2
72
6
73
3
74
0
42
0.000000001
43
0.0000000001
44
0.0000000001
40
0
40
0
40
0
40
1
40
1
40
1
10
447.98330697059498
20
399.81764873164934
30
0
10
448.47104462623463
20
399.4140060772304
30
0
10
449.14378317832814
20
399.4140060772304
30
0
0
SPLINE
5
326
100
AcDbEntity
8
0
100
AcDbSpline
70
0
71
2
72
6
73
3
74
0
42
0.000000001
43
0.0000000001
44
0.0000000001
40
0
40
0
40
0
40
1
40
1
40
1
10
449.14378317832814
20
399.4140060772304
30
0
10
449.82493313789234
20
399.4140060772304
30
0
10
450.3126684093462
20
399.81764873164934
30
0
0
SPLINE
5
327
100
AcDbEntity
8
0
100
AcDbSpline
70
0
71
2
72
6
73
3
74
0
42
0.000000001
43
0.0000000001
44
0.0000000001
40
0
40
0
40
0
40
1
40
1
40
1
10
450.3126684093462
20
399.81764873164934
30
0
10
450.8340421581255
20
400.2465256084804
30
0
10
450.8340421581255
20
400.91085513728899
30
0
0
SPLINE
5
328
100
AcDbEntity
8
0
100
AcDbSpline
70
0
71
2
72
6
73
3
74
0
42
0.000000001
43
0.0000000001
44
0.0000000001
40
0
40
0
40
0
40
1
40
1
40
1
10
450.8340421581255
20
400.91085513728899
30
0
10
450.8340421581255
20
401.56677325862688
30
0
10
450.3126684093462
20
401.99565013545794
30
0
0
SPLINE
5
329
100
AcDbEntity
8
0
100
AcDbSpline
70
0
71
2
72
6
73
3
74
0
42
0.000000001
43
0.0000000001
44
0.0000000001
40
0
40
0
40
0
40
1
40
1
40
1
10
450.3126684093462
20
401.99565013545794
30
0
10
449.82493313789234
20
402.39088138240618
30
0
10
449.14378317832814
20
402.39088138240618
30
0
0
ENDSEC
0
SECTION
2
OBJECTS
0
DICTIONARY
5
C
100
AcDbDictionary
3
ACAD_GROUP
350
D
3
ACAD_MLINESTYLE
350
17
0
DICTIONARY
5
D
100
AcDbDictionary
0
DICTIONARY
5
1A
330
C
100
AcDbDictionary
0
DICTIONARY
5
17
100
AcDbDictionary
0
ENDSEC
0
EOF
